<svg xmlns="http://www.w3.org/2000/svg" viewBox="0 0 64 64" fill="none"><circle cx="32" cy="32" r="32" fill="#0A0406"/><path d="M43.5781 22.7716H43.5235C43.1958 22.6624 42.8136 22.5532 42.4859 22.5532C41.7214 22.5532 40.9023 22.8808 40.1378 23.1539C39.3733 23.4815 38.6088 23.7545 37.8989 23.7545C37.0252 23.7545 36.4791 23.4269 35.7692 23.1539C35.1139 22.8262 34.404 22.5532 33.6941 22.5532C33.4211 22.5532 33.0935 22.6078 32.8204 22.6624C32.875 22.6624 33.0935 22.7716 33.1481 22.7716C33.3119 22.717 33.5303 22.717 33.6941 22.717C34.3494 22.717 35.0047 22.99 35.66 23.3177C36.0969 23.4815 36.7522 23.9184 37.5167 23.973C38.1173 23.973 38.3904 23.9184 38.6088 23.9184C39.1003 23.8091 39.6464 23.5907 40.1378 23.3723C40.9023 23.0446 41.6668 22.7716 42.4313 22.7716C42.7044 22.7716 43.032 22.8808 43.3051 22.9354C43.3051 23.0446 43.3051 23.1539 43.3051 23.2631C43.3051 24.5736 42.9774 24.6283 41.7214 25.0105C40.1924 25.5566 40.1378 25.1743 39.8102 28.3416C39.5371 31.9457 38.4996 37.1334 35.2778 41.9934L35.1685 42.2119C35.1685 42.2119 35.0047 42.4849 34.8955 42.8672C34.8409 43.0856 34.5133 44.1231 34.3494 44.5054C34.1856 44.9422 33.9672 45.2699 33.6941 45.4883C41.2846 38.4986 42.9774 31.8911 43.4689 25.4474C43.5235 27.0856 43.4689 28.56 43.3051 29.9798C43.2505 29.9798 43.1412 29.9252 43.0866 29.9252C43.0866 29.9798 43.0866 30.0344 43.032 30.089C43.0866 30.089 43.1958 30.1436 43.2505 30.1436C43.2505 30.3074 43.1958 30.4167 43.1958 30.5805C43.0866 30.5805 42.9774 30.5259 42.9228 30.5259C42.9228 30.5805 42.8682 30.6351 42.8682 30.6897C42.9228 30.6897 43.0866 30.7443 43.1412 30.7443C43.1412 30.9081 43.0866 31.0173 43.0866 31.1812C42.9774 31.1812 42.8136 31.1266 42.759 31.1266C42.759 31.1812 42.7044 31.2358 42.7044 31.2904C42.8136 31.2904 42.9228 31.345 43.032 31.345C43.032 31.5088 42.9774 31.618 42.9774 31.7818C42.8682 31.7818 42.7044 31.7272 42.5952 31.7272C42.5952 31.7818 42.5406 31.8364 42.5406 31.8911C42.6498 31.8911 42.8136 31.9457 42.9228 31.9457C42.8682 32.1095 42.8682 32.2187 42.8136 32.3825C42.7044 32.3825 42.4859 32.3279 42.3767 32.3279C42.3767 32.3825 42.3221 32.4371 42.3221 32.5463C42.4313 32.5463 42.6498 32.5463 42.759 32.601C42.7044 32.7648 42.7044 32.874 42.6498 33.0378C42.5406 33.0378 42.3767 32.9832 42.2675 32.9832H42.3221C42.3221 33.0378 42.2675 33.0924 42.2675 33.2016C42.3221 33.2016 42.4313 33.2016 42.4859 33.2016C42.5952 33.2016 42.7044 33.2016 42.8136 33.2562C42.759 33.4201 42.759 33.5293 42.7044 33.6931C42.6498 33.6931 42.5406 33.6931 42.4859 33.6931C42.3767 33.6931 42.2675 33.6931 42.1037 33.7477C42.1037 33.8023 42.0491 33.8569 42.0491 33.9661C42.2129 33.9661 42.3221 33.9115 42.4859 33.9115C42.5406 33.9115 42.5952 33.9115 42.6498 33.9115C42.5952 34.0754 42.5952 34.1846 42.5406 34.3484H42.4859C42.2675 34.3484 42.1037 34.3484 41.8853 34.403C41.8307 34.4576 41.8307 34.5668 41.8307 34.6214C42.0491 34.5668 42.2675 34.5122 42.4859 34.5122C42.4313 34.676 42.3767 34.7853 42.3221 34.9491C42.1037 34.9491 41.8307 35.0037 41.6122 35.0583C41.6122 35.1129 41.5576 35.2221 41.503 35.2767C41.7761 35.2221 41.9945 35.1675 42.2675 35.1675C42.2129 35.3313 42.1583 35.4405 42.1037 35.6044C41.8307 35.659 41.5576 35.7136 41.2846 35.7682C41.23 35.8228 41.23 35.932 41.1754 35.9866C41.4484 35.8774 41.7761 35.8228 41.9945 35.7682C41.9399 35.932 41.8853 36.0958 41.8307 36.205C41.5576 36.2597 41.23 36.3689 40.9569 36.4781C40.9023 36.5327 40.9023 36.6419 40.8477 36.6965C41.1208 36.5873 41.503 36.4781 41.7761 36.4235C41.7214 36.5873 41.6668 36.7511 41.6122 36.9149C41.2846 37.0242 40.9023 37.1334 40.6293 37.2426C40.5747 37.3518 40.5201 37.4064 40.5201 37.5156C40.8477 37.4064 41.23 37.2426 41.5576 37.188C41.503 37.3518 41.3938 37.5156 41.3392 37.6795C41.0115 37.7887 40.5747 37.9525 40.247 38.0617C40.1924 37.9525 40.1378 38.0617 40.1378 38.1163C40.1924 38.1163 40.1924 38.0617 40.247 38.0617C40.5747 37.9525 40.9569 37.7887 41.2846 37.6795C41.1754 37.8433 41.1208 38.0071 41.0662 38.1709C40.7931 38.2801 40.4655 38.3893 40.1924 38.4986C40.0832 38.5532 39.974 38.6078 39.8648 38.6078C39.8102 38.717 39.7556 38.7716 39.701 38.8808C39.8648 38.8262 40.0832 38.717 40.247 38.6624C40.4655 38.6078 40.7385 38.444 40.9569 38.3893C40.8477 38.5532 40.7931 38.717 40.6839 38.9354C40.5201 38.99 40.3016 39.0992 40.1924 39.1539C39.9194 39.2631 39.6464 39.3723 39.3733 39.4815C39.3187 39.5907 39.2641 39.6453 39.2095 39.7545C39.5371 39.6453 39.9194 39.5361 40.247 39.3723C40.3016 39.3177 40.4655 39.3177 40.5201 39.2631C40.4109 39.4269 40.3016 39.6453 40.1924 39.8091C39.7556 39.973 39.2641 40.1914 38.8819 40.3006C38.8272 40.3552 38.7726 40.4644 38.718 40.519C39.1003 40.4098 39.6464 40.246 40.0286 40.0822C39.9194 40.246 39.8102 40.4644 39.6464 40.6283C39.2641 40.7921 38.718 40.9559 38.3358 41.0105C38.2812 41.0651 38.2266 41.1743 38.172 41.2289C38.5542 41.1743 39.0457 41.0105 39.4825 40.9013C39.3733 41.1197 39.2095 41.2835 39.1003 41.4474C38.718 41.5566 38.2812 41.6658 37.8989 41.6658H37.8443C37.7897 41.7204 37.7351 41.775 37.6805 41.8296C37.7351 41.8296 37.7897 41.8296 37.8443 41.8296C38.172 41.8296 38.5542 41.775 38.8819 41.6658C38.718 41.8296 38.6088 42.0481 38.4996 42.2119C38.2812 42.2665 38.0627 42.2665 37.8443 42.2665C37.6805 42.2665 37.5167 42.2665 37.3528 42.2119C37.2982 42.2665 37.2436 42.3211 37.2436 42.3757C37.4621 42.4303 37.6259 42.4303 37.8443 42.4303C38.0081 42.4303 38.172 42.4303 38.2812 42.3757C38.172 42.5395 38.0627 42.7033 37.8989 42.8672C37.5713 42.8672 37.2436 42.8126 36.916 42.7033C36.8614 42.758 36.8068 42.8126 36.8068 42.8672C37.1344 42.9764 37.4621 43.031 37.7351 43.031C37.6259 43.1402 37.5167 43.304 37.4075 43.4132C37.0798 43.3586 36.8068 43.2494 36.5337 43.1402C36.4791 43.1948 36.4245 43.2494 36.4245 43.304C36.6976 43.4132 37.0252 43.5225 37.2982 43.5771C37.189 43.6863 37.0798 43.7955 36.9706 43.9047C36.6976 43.7955 36.4245 43.7409 36.1515 43.5771C36.0969 43.6317 36.0423 43.6863 36.0423 43.7409C36.3153 43.8501 36.5883 43.9593 36.8614 44.0685C36.7522 44.1777 36.6429 44.287 36.5883 44.3962C36.3153 44.287 36.0423 44.1777 35.7692 44.0685C35.7146 44.1231 35.66 44.1777 35.6054 44.2324H35.66C35.933 44.3416 36.1515 44.4508 36.4245 44.56C36.3153 44.6692 36.2607 44.7784 36.1515 44.8876C35.9877 44.833 35.8784 44.7784 35.7146 44.6692C35.6054 44.6146 35.4416 44.56 35.3324 44.5054C35.2778 44.56 35.2232 44.6146 35.1685 44.6692C35.3324 44.7238 35.4962 44.7784 35.6054 44.8876C35.7146 44.9423 35.8238 44.9969 35.9877 45.0515C35.8784 45.1607 35.8238 45.2699 35.7146 45.3791C35.4416 45.2699 35.1685 45.1061 34.8955 45.0515C34.8409 45.1061 34.7863 45.1607 34.7317 45.2153C35.0047 45.3245 35.2778 45.4337 35.5508 45.5429C35.4416 45.6521 35.387 45.7614 35.2778 45.816C35.0047 45.7068 34.6771 45.5429 34.404 45.4883C34.3494 45.5429 34.2948 45.5975 34.2402 45.6521C34.5679 45.7068 34.8409 45.8706 35.1685 45.9798C35.0593 46.089 34.9501 46.1982 34.8955 46.3074C34.5679 46.1982 34.1856 46.089 33.858 46.0344C33.8034 46.089 33.7487 46.1436 33.6395 46.1982C34.0218 46.1982 34.3494 46.3074 34.7317 46.4167C34.6225 46.5259 34.5133 46.6351 34.404 46.7443C34.131 46.6351 33.858 46.6351 33.6395 46.6351C33.4757 46.6351 33.2573 46.6351 33.0935 46.6897C32.9842 46.7989 32.875 46.8535 32.7658 46.9627C33.0389 46.9081 33.3665 46.8535 33.6395 46.8535C33.858 46.8535 34.0764 46.9081 34.2948 46.9627C34.1856 47.0719 34.0764 47.2358 33.9672 47.345C33.858 47.345 33.7487 47.345 33.6395 47.345C33.0935 47.345 32.5474 47.5088 32.0013 47.7272C31.8375 47.8364 31.7283 47.9457 31.5644 48.0549C32.2743 47.7818 32.9842 47.5088 33.5849 47.5088C33.6395 47.5088 33.6941 47.5088 33.7487 47.5088C33.6395 47.6726 33.4757 47.7818 33.3665 47.9457C32.7112 48.0003 31.9467 48.2733 31.2368 48.5463C31.0184 48.601 30.8545 48.7102 30.6361 48.7648C30.5269 48.874 30.3631 48.9832 30.2539 49.0924C30.5815 48.9832 30.9638 48.8194 31.2914 48.7102C31.8921 48.4371 32.5474 48.2187 33.1481 48.1095C32.9842 48.2733 32.875 48.4371 32.7112 48.601C32.2197 48.7102 31.6737 48.9286 31.1822 49.147C30.6361 49.3655 30.0354 49.5839 29.4894 49.6931C29.3801 49.7477 29.3255 49.8569 29.2163 49.9115C29.8716 49.8569 30.5815 49.5839 31.2368 49.3109C31.6737 49.147 32.1105 48.9832 32.4928 48.874C32.329 49.0378 32.2197 49.2562 32.1105 49.4201C31.7829 49.5293 31.4552 49.6385 31.1822 49.8023C30.4177 50.13 29.6532 50.403 28.9433 50.403H28.8887C28.8341 50.2938 28.7795 50.2392 28.7795 50.2392C28.7249 50.1846 28.6702 50.2392 28.6156 50.2938C28.7795 50.676 28.9433 51.1129 29.2709 51.5498C30.1993 51.7682 32.602 52.3689 35.2778 51.2221C34.5679 50.0754 34.6771 48.874 36.7522 46.1436C39.3187 42.6487 44.8341 35.7682 43.2505 22.99C43.5235 22.8262 43.5781 22.8262 43.5781 22.7716ZM31.6737 50.676C31.6737 50.676 31.6191 50.8399 31.4006 50.8945C31.1822 50.9491 30.4723 51.1675 29.817 51.0037C30.4177 50.8945 30.9638 50.676 31.5098 50.4576C31.6191 50.403 31.7283 50.403 31.8375 50.3484C31.7283 50.4576 31.6737 50.5668 31.6737 50.676ZM31.8921 50.0754C31.7283 50.13 31.5644 50.1846 31.4006 50.2938C30.7999 50.5122 30.1447 50.7853 29.4894 50.8945C29.4348 50.7853 29.3255 50.6214 29.2163 50.5122C29.9262 50.5122 30.6907 50.1846 31.4552 49.9115C31.6737 49.8023 31.8921 49.7477 32.1651 49.6385C32.1105 49.7477 32.0013 49.9115 31.8921 50.0754Z" fill="#B69564"/><path d="M45.7625 21.1333C44.6703 18.0207 43.2505 16.2733 43.2505 16.2733C41.1208 18.2937 36.2061 20.205 27.6874 17.147C19.1686 14.1436 16.9297 18.949 16.9297 20.6965C16.9297 21.5702 17.2027 23.5361 19.6055 23.8091C19.8239 23.8091 20.2061 23.8637 20.4246 24.8466C22.9911 34.8398 24.8478 44.6692 27.3597 50.3483C27.4143 50.5122 27.5235 50.4029 27.5235 50.4029C27.6874 50.2937 28.1242 50.0207 28.7249 49.5838C29.4894 48.9832 30.5816 48.1094 31.7829 46.7989C29.1072 42.9217 24.5747 28.9422 21.899 22.4439C21.7898 22.2255 21.6259 22.2801 21.6259 22.2801C21.1891 22.6077 21.0253 22.6623 20.7522 22.6623C21.3529 22.4439 21.7351 21.8432 21.7351 21.1879C21.7351 20.9695 21.6805 20.8057 21.6259 20.5872C24.0287 26.3756 25.8853 31.6726 27.5235 36.0412C29.2164 40.4098 30.6908 43.9047 32.4382 46.089C32.4382 46.089 33.4212 44.8876 33.9672 44.1231C34.4587 43.4132 35.0048 42.5941 35.1686 42.321C33.0935 43.1401 32.0014 41.3927 31.073 39.6999C29.8171 37.461 23.8102 22.6077 23.0457 20.8057C22.3904 19.1674 21.2437 18.949 20.37 19.0582C20.9706 18.8398 22.6635 18.5668 23.7556 21.0241C23.8648 21.2971 24.2471 22.1163 24.7386 23.263L24.8478 23.4814L24.6293 23.9183C24.684 24.0821 24.7932 24.2459 24.8478 24.3552L26.6498 20.2596C26.5406 20.205 26.4314 20.1504 26.3222 20.0958L25.0662 22.99C24.5747 21.9524 24.3017 21.2425 24.3017 21.2425C23.428 19.3313 22.7727 19.1128 22.3358 18.8944C21.9536 18.676 19.8785 18.0207 18.6225 20.0958C18.7317 19.7681 20.1515 16.6009 26.759 19.0036C30.3085 20.4234 42.0491 24.8466 43.3051 16.8193C43.3051 16.8193 43.3051 16.8193 43.3597 16.8739C43.4143 16.9285 43.5235 17.0924 43.5235 17.147C43.5235 17.2016 43.4689 17.3108 43.4689 17.3654C43.5235 17.3654 43.6328 17.42 43.6874 17.4746C43.742 17.5292 43.7966 17.6384 43.7966 17.6384C43.7966 17.693 43.8512 17.7477 43.8512 17.7477C43.8512 17.7477 43.9604 17.9661 44.015 18.0207C43.8512 17.9661 43.5782 17.8569 43.3597 17.8023C43.3597 17.8569 43.3051 17.9115 43.3051 17.9661C43.5235 18.0207 43.9058 18.1299 44.1242 18.2391C44.1788 18.2937 44.2334 18.4029 44.2334 18.4029C44.2334 18.4576 44.2881 18.5122 44.2881 18.5122C44.2881 18.5122 44.3427 18.676 44.3973 18.7306C44.015 18.5668 43.5782 18.3483 43.1959 18.2937C43.1959 18.3483 43.1413 18.4029 43.1413 18.4576C43.5782 18.5668 44.0696 18.7852 44.5611 19.0036C44.6157 19.0582 44.6157 19.1674 44.6703 19.2221C44.6703 19.2767 44.7249 19.3313 44.7249 19.3313C44.7249 19.3313 44.7249 19.3313 44.7249 19.3859C44.7249 19.4405 44.7795 19.4951 44.7795 19.5497C44.7249 19.5497 44.6157 19.4951 44.5611 19.4405C44.015 19.2221 43.4689 18.949 42.9229 18.8944C42.8683 18.949 42.8683 19.0036 42.8136 19.0582C43.3597 19.1674 43.9058 19.3859 44.4519 19.6043C44.5611 19.6589 44.7249 19.7135 44.8341 19.7681C44.8887 19.932 44.9979 20.0958 45.0526 20.2596C44.8887 20.205 44.7249 20.0958 44.5611 20.0412C43.9058 19.7681 43.2505 19.4405 42.5952 19.4405C42.5406 19.4951 42.486 19.5497 42.4314 19.6043H42.486C43.1413 19.6043 43.7966 19.8773 44.4519 20.205C44.6703 20.3142 44.8887 20.4234 45.1072 20.478C45.1618 20.6419 45.2164 20.8057 45.271 20.9695C45.0526 20.8603 44.7249 20.7511 44.5065 20.6419C43.8512 20.3688 43.1413 20.0412 42.4314 20.0412C42.2676 20.0412 42.1038 20.0412 41.9399 20.0958C41.8853 20.1504 41.7761 20.2596 41.6669 20.3142C41.9399 20.2596 42.1584 20.205 42.3768 20.205C43.0321 20.205 43.6874 20.478 44.3427 20.8057C44.6157 20.9149 44.9433 21.0787 45.1618 21.1333C45.1072 21.1879 44.9979 21.2971 44.8887 21.461C44.7249 21.4064 44.5611 21.2971 44.3973 21.2425C43.742 20.9695 43.0321 20.6419 42.3222 20.6419C41.7215 20.6419 41.0662 20.8603 40.4109 21.0787C40.2471 21.1333 40.1379 21.1879 39.9741 21.2425C39.7556 21.2971 39.5918 21.4064 39.3734 21.461C38.8273 21.6794 38.2266 21.8432 37.7351 21.8432C37.5167 21.8432 37.2983 21.7886 37.0799 21.734C36.8614 21.734 36.643 21.734 36.4246 21.734C36.8614 21.8978 37.2983 22.007 37.7898 22.007C38.4997 22.007 39.3188 21.6794 40.0833 21.4064C40.8478 21.0787 41.6123 20.8057 42.3768 20.8057C43.0321 20.8057 43.6874 21.0787 44.3427 21.4064C44.4519 21.461 44.6157 21.5156 44.7795 21.5702C44.7249 21.6248 44.6703 21.6794 44.6157 21.734C44.5611 21.7886 44.5611 21.7886 44.5065 21.8432C44.5065 21.8432 44.4519 21.8432 44.4519 21.7886C43.7966 21.5156 43.0867 21.1879 42.3768 21.1879C41.6123 21.1879 40.7932 21.5156 40.0287 21.7886C39.2642 22.1163 38.4997 22.3893 37.7898 22.3893C37.0799 22.3893 36.37 22.0616 35.6601 21.7886C35.5509 21.734 35.4416 21.6794 35.3324 21.6248C35.114 21.6248 34.8956 21.5702 34.6771 21.5702C35.0048 21.6794 35.2778 21.7886 35.6055 21.9524C36.3154 22.2801 37.0253 22.6077 37.7898 22.6077C38.4997 22.6077 39.3188 22.2801 40.0833 22.007C40.8478 21.6794 41.6123 21.4064 42.3768 21.4064C43.0321 21.4064 43.6328 21.6794 44.3427 22.007C44.2334 22.1163 44.1242 22.1709 44.015 22.2801C43.4689 22.0616 42.9229 21.8432 42.3768 21.8432C41.6123 21.8432 40.7932 22.1709 40.0287 22.4439C39.2642 22.7715 38.4997 23.0446 37.7898 23.0446C37.0799 23.0446 36.37 22.7169 35.6601 22.4439C35.0048 22.1163 34.2949 21.8432 33.585 21.8432C33.0389 21.8432 32.4382 22.007 31.8921 22.2255C32.0014 22.2801 32.056 22.2801 32.1652 22.3347C32.6567 22.1709 33.1481 22.007 33.6396 22.007C34.2949 22.007 34.9502 22.2801 35.6055 22.6077C36.3154 22.9354 37.0253 23.263 37.7898 23.263C38.4997 23.263 39.3188 22.9354 40.0833 22.6623C40.8478 22.3347 41.6123 22.0616 42.3768 22.0616C42.8683 22.0616 43.3597 22.2255 43.8512 22.4439C43.7966 22.4985 43.7966 22.4985 43.742 22.4985C44.5065 22.2255 45.1072 21.734 45.7625 21.1333ZM27.5235 48.7101C27.742 49.0924 27.9058 49.3654 28.4519 49.147C28.8887 48.9285 29.0526 48.8739 29.1072 48.8193C28.8341 49.0378 28.5065 49.3108 28.1788 49.5292C27.8512 49.7477 27.5782 49.5292 27.2505 48.9285C26.8136 48.164 25.9399 45.3791 25.5031 43.9593C25.8307 44.5599 26.8683 47.2903 27.5235 48.7101ZM21.5713 22.8262C21.5713 22.8262 21.6259 22.7715 21.6259 22.8262C21.6805 22.8808 21.8444 23.2084 22.1174 24.1367C22.1174 24.1367 22.0628 24.4098 21.4621 24.6828C20.5884 25.1743 21.2437 25.9934 21.1891 27.2494C20.8614 26.7033 20.7522 24.1367 19.8239 23.8091C20.37 23.7545 21.1345 23.6453 21.5713 22.8262ZM20.1515 19.7135C20.6976 19.7135 21.1891 19.9866 21.4621 20.4234C21.1891 20.2596 20.8614 20.1504 20.4792 20.1504C20.4246 20.1504 20.37 20.1504 20.2607 20.1504C20.8068 20.205 21.1891 20.6419 21.1891 21.2425C21.1891 21.8432 20.6976 22.3347 20.0969 22.3347C19.4962 22.3347 19.0048 21.8432 19.0048 21.2425C19.0048 20.9695 19.114 20.6965 19.2778 20.5326C18.9502 20.8057 18.6771 21.1333 18.5679 21.5156C18.5679 21.461 18.5679 21.3517 18.5679 21.2971C18.6225 20.4234 19.3324 19.7135 20.1515 19.7135Z" fill="#B69564"/><path d="M32.1106 21.2971C32.0014 21.2971 31.8922 21.2425 31.783 21.2425C31.6192 21.2971 31.5099 21.3517 31.3461 21.4064C31.0731 21.5156 30.7454 21.6248 30.4724 21.734C30.6908 21.8432 30.6908 21.8432 30.6908 21.8432C30.9093 21.734 31.1822 21.6794 31.4007 21.5702C31.6737 21.461 31.8921 21.3517 32.1106 21.2971Z" fill="#B69564"/><path d="M29.9262 20.6419C29.9262 20.6419 29.3256 20.8603 29.0526 20.9149C29.1072 20.9149 29.1072 20.9149 29.1618 20.9149C29.4894 20.9149 29.8717 20.8603 30.2539 20.7511C30.1447 20.6965 30.0354 20.6965 29.9262 20.6419Z" fill="#B69564"/><path d="M33.4212 21.5702C33.2573 21.5156 33.0935 21.5156 32.8751 21.461C32.3836 21.5702 31.8375 21.7887 31.3461 22.0071C31.2915 22.0071 31.2915 22.0617 31.2369 22.0617L31.4552 22.1709C32.1651 21.8979 32.8205 21.6248 33.4212 21.5702Z" fill="#B69564"/><path d="M30.8546 20.9695C30.8546 20.9695 30.0901 21.2425 29.6532 21.3517L29.9263 21.461C29.9263 21.461 30.3085 21.3517 30.5816 21.2971C30.8546 21.1879 31.1822 21.0787 31.1822 21.0787L30.8546 20.9695Z" fill="#B69564"/><path d="M39.7556 23.9729C39.7556 23.9729 40.9024 23.536 41.1208 23.4268C41.3939 23.3176 41.9399 23.1538 42.486 23.1538C42.486 23.1538 40.684 23.7545 40.4109 23.8637C40.1379 23.9183 40.0833 23.9183 40.0833 23.9183L39.7556 23.9729Z" fill="#B69564"/><path d="M27.032 29.4883L30.3085 22.0616C30.1993 22.007 30.09 21.9524 29.9808 21.8978L27.3051 28.0139C27.1958 27.7954 27.0866 27.577 26.9774 27.3586L26.7044 27.5224C26.8682 27.85 26.9774 28.1231 27.1412 28.4507L26.9228 28.9968C26.9228 29.1606 26.9774 29.3244 27.032 29.4883Z" fill="#B69564"/><path d="M27.7966 31.1811L31.5099 22.6623C31.4007 22.6077 31.2915 22.5531 31.1822 22.4985L28.015 29.7613C27.9058 29.5429 27.7966 29.3244 27.742 29.106L27.4689 29.2698C27.6328 29.5975 27.742 29.8159 27.8512 30.1436L27.6328 30.6896C27.6328 30.8535 27.742 31.0173 27.7966 31.1811Z" fill="#B69564"/><path d="M26.3221 27.7408L29.0525 21.461C28.9433 21.4064 28.8341 21.3517 28.7249 21.2971L26.4859 26.3756C26.3767 26.1572 26.2675 25.8842 26.1583 25.6657L25.8853 25.8296C25.9945 26.1572 26.1583 26.4849 26.3221 26.8125L26.1037 27.304C26.1583 27.4678 26.2129 27.6316 26.3221 27.7408Z" fill="#B69564"/><path d="M25.5577 26.048L27.8512 20.8603L27.5236 20.6965L25.7762 24.6828C25.7762 24.6282 25.7216 24.6282 25.7216 24.5736C25.6123 24.3552 25.5577 24.1367 25.4485 23.9729L25.1755 24.1367C25.2847 24.4644 25.4485 24.7374 25.6123 25.0651L25.3939 25.5565C25.3939 25.7204 25.5031 25.8842 25.5577 26.048Z" fill="#B69564"/><path d="M39.6464 24.5736C39.5372 24.5736 39.3734 24.5736 39.2642 24.5736L32.7113 39.536C32.7113 39.536 32.7113 39.4814 32.6567 39.4814C32.602 39.3722 32.5475 39.2084 32.4383 38.99L32.1106 39.2084C32.2744 39.4814 32.3836 39.6453 32.5474 39.9183L32.2744 40.519C32.329 40.6282 32.4382 40.7374 32.4928 40.8466H32.5474L39.6464 24.5736Z" fill="#B69564"/><path d="M29.5441 33.0924C29.4349 32.9285 29.3256 32.6555 29.271 32.4371L28.998 32.6009C29.1618 32.9285 29.2164 33.147 29.3803 33.4746L29.1072 34.0753C29.1618 34.2391 29.271 34.4029 29.3256 34.5122L34.1311 23.5907C34.0219 23.536 33.9127 23.4814 33.8035 23.4814L29.5441 33.0924Z" fill="#B69564"/><path d="M28.7795 31.3995L28.5065 30.7442L28.2334 30.9081C28.3973 31.2357 28.4519 31.4541 28.6157 31.7818L28.3427 32.3825C28.3973 32.5463 28.5064 32.7101 28.561 32.8193L32.8204 23.0992C32.7112 23.0446 32.602 22.99 32.4928 22.9354L28.7795 31.3995Z" fill="#B69564"/><path d="M30.3085 34.7306C30.2539 34.5668 30.0901 34.2937 30.0355 34.1299L29.7625 34.2937C29.9263 34.6214 29.9809 34.8398 30.1447 35.1675V35.2221L29.8171 35.7681C29.8717 35.932 29.9809 36.0958 30.0355 36.205L35.387 23.9729C35.2778 23.9183 35.1686 23.9183 35.0048 23.8637L30.3085 34.7306Z" fill="#B69564"/><path d="M31.0731 36.3689C30.9639 36.205 30.8547 35.932 30.8001 35.7682L30.4724 35.932C30.6362 36.3143 30.7454 36.4781 30.8546 36.7511V36.8057L30.5816 37.3518C30.6362 37.5156 30.6908 37.6248 30.8001 37.7887L36.7523 24.3006C36.6431 24.246 36.4792 24.246 36.37 24.1914L31.0731 36.3689Z" fill="#B69564"/><path d="M31.6191 39.4269L38.172 24.519C38.0628 24.519 37.8989 24.4644 37.7897 24.4644L31.8375 38.0071C31.7829 37.8433 31.6191 37.5702 31.5644 37.4064L31.2369 37.5702C31.2915 37.6794 31.2914 37.6248 31.2914 37.6794C31.4006 37.8979 31.5099 38.1163 31.6737 38.3347L31.4007 38.99C31.4553 39.0992 31.5645 39.2631 31.6191 39.4269Z" fill="#B69564"/><path d="M33.2027 40.3552L32.9297 40.519C33.6396 41.5019 34.4041 42.2664 35.1686 42.321C34.5133 41.9934 33.8034 41.2289 33.2027 40.3552Z" fill="#B69564"/><path d="M10.703 19.3857C9.93851 19.0034 8.95558 19.2218 8.57333 20.0409C8.13647 20.8601 8.51872 21.7338 9.28322 22.116C10.0477 22.4983 10.9761 22.2799 11.4129 21.4607C11.8498 20.6416 11.4675 19.7679 10.703 19.3857ZM8.79176 23.1536C7.48118 22.4983 6.9351 20.9147 7.69961 19.5495C8.4095 18.1297 9.99312 17.6928 11.2491 18.3481C12.5597 19.0034 13.0511 20.587 12.3412 21.9522C11.6313 23.3174 10.0477 23.8089 8.79176 23.1536Z" fill="white"/><path d="M14.5803 14.471C14.9625 14.0887 14.9625 13.5973 14.6348 13.3242C14.2526 12.9966 13.8157 13.0512 13.4334 13.4334L12.8328 14.0341L13.9249 15.1263L14.5803 14.471ZM11.3584 14.1433L12.8328 12.6689C13.7065 11.7952 14.6894 11.7952 15.4539 12.5051C16.273 13.3242 16.0546 14.4164 15.2901 15.2355L14.6894 15.8362L15.7816 16.9283L15.0171 17.7474L11.3584 14.1433Z" fill="white"/><path d="M17.0375 9.1195L20.3685 7.26284L20.8601 8.13656L18.5119 9.44714L19.0034 10.3209L21.0784 9.17411L21.57 10.0478L19.4949 11.1946L20.041 12.1229L22.4436 10.8123L22.9352 11.6314L19.5494 13.5427L17.0375 9.1195Z" fill="white"/><path d="M23.9726 5.84299L25.0102 5.62456L28.0136 8.19112L27.3037 5.1331L28.3958 4.86006L29.488 9.82934L28.5597 10.0478L25.447 7.42661L26.1569 10.5938L25.0648 10.8123L23.9726 5.84299Z" fill="white"/><path d="M36.0956 7.48127C36.4778 6.06148 37.8976 5.24236 39.372 5.62462C40.2457 5.84305 40.7372 6.2253 41.1195 6.82598L40.1911 7.48127C39.9181 7.04441 39.5904 6.77138 39.0444 6.66216C38.2799 6.44373 37.4607 6.9898 37.2423 7.80892C37.0239 8.68264 37.4607 9.55636 38.3345 9.77479C38.7167 9.884 39.099 9.884 39.4266 9.77479L39.5904 9.01028L38.4983 8.73725L38.7713 7.80892L40.901 8.4096L40.3003 10.5393C39.6997 10.8123 38.8805 10.9762 38.0068 10.7577C36.4778 10.3209 35.7133 8.95568 36.0956 7.48127Z" fill="white"/><path d="M45.8703 12.0137L46.198 10.2663L44.7236 11.2492L45.8703 12.0137ZM46.5256 8.90107L47.3993 9.44714L46.4164 14.9079L45.4334 14.2526L45.6519 13.0512L43.8498 11.8499L42.8669 12.6144L41.9386 12.0137L46.5256 8.90107Z" fill="white"/><path d="M51.2765 14.1979L50.2389 13.0512L51.0034 12.3413L53.7884 15.5085L53.0239 16.1638L51.9864 15.0171L48.9829 17.6928L48.2184 16.8737L51.2765 14.1979Z" fill="white"/><path d="M55.7543 18.5119L57.4471 21.9522L56.5188 22.3891L55.372 19.9317L54.4437 20.4232L55.4812 22.5529L54.5529 22.9898L53.5154 20.8601L52.587 21.2969L53.7884 23.8089L52.8601 24.2457L51.1672 20.7508L55.7543 18.5119Z" fill="white"/><path d="M13.2696 47.3448C13.5973 47.727 13.9249 47.8908 14.198 47.6178C14.471 47.3994 14.4164 47.0717 14.1433 46.7441L13.4334 45.8704L12.6143 46.5256L13.2696 47.3448ZM11.8498 48.8738C12.1775 49.256 12.5051 49.3652 12.7782 49.1468C13.0512 48.9284 13.0512 48.6007 12.6689 48.1639L11.8498 47.1809L10.9761 47.8908L11.8498 48.8738ZM13.5427 44.396L15.0171 46.2526C15.3993 46.6895 15.5631 47.1809 15.5085 47.5632C15.4539 47.8908 15.3447 48.1639 15.0717 48.3823C14.6348 48.7645 14.198 48.7099 13.8157 48.5461C14.0341 49.1468 13.9795 49.6383 13.4334 50.0751C12.7235 50.6758 11.8498 50.3482 11.1399 49.4744L9.55631 47.6178L13.5427 44.396Z" fill="white"/><path d="M18.1842 52.4232C18.6211 52.7508 19.058 52.6962 19.2764 52.314C19.5494 51.9317 19.4403 51.5495 18.9488 51.2218L18.0205 50.5665L17.2014 51.7679L18.1842 52.4232ZM17.7474 49.0921L19.6587 50.4027C20.2048 50.785 20.4778 51.2218 20.587 51.6587C20.6416 52.0409 20.5324 52.4778 20.314 52.8601C19.8225 53.5153 19.1672 53.7337 18.5119 53.5153V55.6995L17.4198 54.935V52.9693L16.7098 52.4778L15.7816 53.8429L14.8532 53.1877L17.7474 49.0921Z" fill="white"/><path d="M23.1536 52.4232L26.8123 53.6245L26.4846 54.6074L23.9181 53.7337L23.5904 54.7166L25.884 55.4811L25.5563 56.4094L23.2628 55.6449L22.9352 56.6279L25.5563 57.5562L25.2287 58.4845L21.57 57.2286L23.1536 52.4232Z" fill="white"/><path d="M28.3959 54.2251H29.5973L30.6894 57.6108L31.7816 54.1705H32.7645L33.9659 57.6108L34.9488 54.1159H36.1502L34.4573 59.249H33.4744L32.273 55.9726L31.1809 59.3036H30.198L28.3959 54.2251Z" fill="white"/><path d="M37.8976 53.4607L41.5017 52.1502L41.8293 53.0785L39.2627 54.0067L39.645 54.9896L41.8839 54.1705L42.2115 55.0989L39.9726 55.918L40.3003 56.9009L42.9214 55.9726L43.2491 56.9009L39.645 58.2115L37.8976 53.4607Z" fill="white"/><path d="M46.6348 51.8225C47.0716 51.4949 47.1808 51.058 46.9078 50.7304C46.6348 50.3481 46.1979 50.3481 45.761 50.6758L44.8327 51.331L45.7064 52.5324L46.6348 51.8225ZM43.3583 51.1126L45.215 49.7474C45.761 49.3652 46.2525 49.2014 46.744 49.3106C47.1262 49.3652 47.5085 49.5836 47.7815 50.0205C48.273 50.6758 48.2184 51.3856 47.8361 51.9317L49.9112 52.6962L48.8737 53.4607L47.017 52.8054L46.3071 53.2969L47.2354 54.6074L46.3071 55.2627L43.3583 51.1126Z" fill="white"/><path d="M51.4949 48.0546L47.8908 47.6723L48.7099 46.6348L51.058 46.9624L50.1843 44.7235L51.0034 43.7406L52.2048 47.1809L53.7884 48.4369L53.0785 49.3106L51.4949 48.0546Z" fill="white"/><path d="M8.95558 40.0819L8.68254 39.4812L8.4095 40.0819H8.95558ZM8.57332 39.1536H8.79175L9.44704 40.6826H9.17401L9.01018 40.3003H8.30029L8.13646 40.6826H7.86343L8.57332 39.1536Z" fill="white"/><path d="M9.99317 39.1536H10.2662V40.4095H11.0853V40.6826H9.99317V39.1536Z" fill="white"/><path d="M11.7952 39.4266H11.3038V39.1536H12.5597V39.4266H12.0683V40.6826H11.7952V39.4266Z" fill="white"/><path d="M13.4335 39.1536H13.1605V40.6826H13.4335V39.1536Z" fill="white"/><path d="M14.0887 39.1536H14.3618L14.8533 39.8635L15.2901 39.1536H15.5631V40.6826H15.3447V39.5904L14.8533 40.3003L14.3618 39.5904V40.6826H14.0887V39.1536Z" fill="white"/><path d="M17.4744 39.9181C17.4744 39.645 17.2559 39.372 16.9829 39.372C16.7098 39.372 16.4915 39.5904 16.4915 39.9181C16.4915 40.1911 16.7098 40.4642 16.9829 40.4642C17.3105 40.4642 17.4744 40.1911 17.4744 39.9181ZM16.2184 39.9181C16.2184 39.4812 16.546 39.1536 16.9829 39.1536C17.4197 39.1536 17.7474 39.4812 17.7474 39.9181C17.7474 40.3549 17.4197 40.6826 16.9829 40.6826C16.546 40.6826 16.2184 40.3549 16.2184 39.9181Z" fill="white"/><path d="M19.058 39.9181C19.2218 39.9181 19.3857 39.8089 19.3857 39.645C19.3857 39.4812 19.2765 39.372 19.058 39.372H18.6758V39.8635H19.058V39.9181ZM18.4027 39.1536H19.058C19.2218 39.1536 19.3857 39.2082 19.4949 39.3174C19.5495 39.372 19.6041 39.5358 19.6041 39.645C19.6041 39.9181 19.4403 40.0273 19.2218 40.0819L19.6041 40.628H19.3857L19.0034 40.0819H18.6758V40.628H18.4027V39.1536Z" fill="white"/><path d="M20.2594 39.1536H21.3516V39.372H20.5325V39.8089H21.297V40.0273H20.5325V40.4095H21.3516V40.6826H20.2594V39.1536Z" fill="white"/><path d="M43.3038 39.1536H43.5768L44.0136 39.8635L44.5051 39.1536H44.7782V40.6826H44.5051V39.5904L44.0136 40.3003L43.5222 39.5904V40.6826H43.3038V39.1536Z" fill="white"/><path d="M46.3618 40.0819L46.0887 39.4812L45.8157 40.0819H46.3618ZM45.9795 39.1536H46.198L46.8532 40.6826H46.5802L46.4164 40.3003H45.7065L45.5973 40.6826H45.3242L45.9795 39.1536Z" fill="white"/><path d="M48.1092 39.9181C48.273 39.9181 48.4369 39.8089 48.4369 39.645C48.4369 39.4812 48.3276 39.372 48.1092 39.372H47.727V39.8635H48.1092V39.9181ZM48.1092 39.1536C48.273 39.1536 48.4369 39.2082 48.5461 39.3174C48.6007 39.372 48.6553 39.5358 48.6553 39.645C48.6553 39.9181 48.4915 40.0273 48.273 40.0819L48.6553 40.628H48.3277L47.9454 40.0819H47.6177V40.628H47.3447V39.1536H48.1092Z" fill="white"/><path d="M49.6928 40.0819L49.0921 39.1536H49.4197L49.802 39.8089L50.2389 39.1536H50.5665L49.9658 40.0819V40.6826H49.6928V40.0819Z" fill="white"/><path d="M51.058 39.1536H51.3311V40.4095H52.1502V40.6826H51.058V39.1536Z" fill="white"/><path d="M53.6246 40.0819L53.3515 39.4812L53.0785 40.0819H53.6246ZM53.2423 39.1536H53.4608L54.116 40.6826H53.843L53.6792 40.3003H52.9693L52.8601 40.6826H52.587L53.2423 39.1536Z" fill="white"/><path d="M54.7167 39.1536H54.9352L55.7543 40.1911V39.1536H56.0273V40.6826H55.8089L54.9898 39.5904V40.6826H54.7167V39.1536Z" fill="white"/><path d="M57.2833 40.4095C57.6109 40.4095 57.8294 40.1911 57.8294 39.9181C57.8294 39.645 57.6109 39.4266 57.2833 39.4266H57.0102V40.4642H57.2833V40.4095ZM56.6826 39.1536H57.2287C57.7201 39.1536 58.0478 39.4812 58.0478 39.9181C58.0478 40.3549 57.7201 40.6826 57.2287 40.6826H56.6826V39.1536Z" fill="white"/><path d="M32 63.9999C14.3618 63.9999 0 49.6382 0 32C0 14.3618 14.3618 0 32 0C49.6382 0 64 14.3618 64 32C64 49.6382 49.6382 63.9999 32 63.9999ZM32 1.63823C15.2355 1.63823 1.63823 15.2901 1.63823 32C1.63823 48.7645 15.2901 62.3617 32 62.3617C48.7645 62.3617 62.3618 48.7099 62.3618 32C62.3618 15.2355 48.7645 1.63823 32 1.63823Z" fill="white"/><path d="M6.88055 40.4095C7.04437 40.4095 7.15359 40.3549 7.15359 40.1911C7.15359 40.0819 7.04437 39.9727 6.82594 39.9727H6.38908V40.4095H6.88055ZM6.77133 39.8089C6.93516 39.8089 7.04437 39.7543 7.04437 39.5904C7.04437 39.4812 6.93516 39.372 6.77133 39.372H6.38908V39.7543H6.77133V39.8089ZM6.82594 39.1536C6.98976 39.1536 7.15359 39.2082 7.20819 39.2628C7.2628 39.3174 7.31741 39.4266 7.31741 39.5358C7.31741 39.6996 7.20819 39.8089 7.09898 39.8635C7.2628 39.9181 7.37202 40.0273 7.37202 40.2457C7.37202 40.5188 7.15359 40.6826 6.82594 40.6826H6.11604V39.1536H6.82594Z" fill="white"/><path d="M35.4403 35.3311V30.6895L34.8942 29.925V35.3311C34.8942 36.2048 33.8567 36.314 33.8567 36.314V36.4779H36.4778V36.314C36.4778 36.314 35.4403 36.2594 35.4403 35.3311Z" fill="white"/><path d="M27.4675 35.3311V30.6895L26.9214 29.925V35.3311C26.9214 36.2048 25.8839 36.314 25.8839 36.314V36.4779H28.5051V36.314C28.5051 36.314 27.4675 36.2594 27.4675 35.3311Z" fill="white"/><path d="M24.2457 29.7065C24.2457 28.669 25.1194 28.7236 25.1194 28.7236V28.5598H22.0614V28.7236C22.0614 28.7236 22.9351 28.669 22.9351 29.7065V35.3311C22.9351 36.3686 22.0614 36.314 22.0614 36.314V36.4779H25.1194V36.314C25.1194 36.314 24.2457 36.3686 24.2457 35.3311V29.7065Z" fill="white"/><path d="M30.9625 28.5598V28.7236C30.9625 28.7236 31.9999 28.8328 31.9999 29.7065V33.6929L28.2866 28.5598H25.7747V28.7236C25.7747 28.7236 26.4846 28.7782 27.1399 29.7065C27.1945 29.7611 31.9999 36.4233 31.9999 36.4233H32.4915V29.7065C32.4915 28.8328 33.529 28.7236 33.529 28.7236V28.5598H30.9625Z" fill="white"/><path d="M38.9897 28.5598V28.7236C38.9897 28.7236 40.0272 28.8328 40.0272 29.7065V33.6929L36.3139 28.5598H33.802V28.7236C33.802 28.7236 34.5119 28.7782 35.1672 29.7065C35.2218 29.7611 40.0272 36.4233 40.0272 36.4233H40.5187V29.7065C40.5187 28.8328 41.5563 28.7236 41.5563 28.7236V28.5598H38.9897Z" fill="white"/><path d="M18.8943 28.7235C19.0581 28.7235 19.9318 28.8328 19.9318 29.7065V33.9113C19.9318 34.785 19.4949 36.1502 18.0751 36.1502C16.4369 36.1502 16.1093 34.8942 16.1093 34.1843V29.7065C16.1093 28.6689 17.0376 28.7235 17.0376 28.7235V28.5597H13.7065V28.7235C13.7065 28.7235 14.6349 28.6689 14.6349 29.7065V34.2935C14.6349 34.8942 14.9079 36.6962 17.6383 36.6962C20.3687 36.6962 20.4233 34.5119 20.4233 33.6382V33.7474V29.6519C20.4233 28.7782 21.3516 28.6689 21.4608 28.6689V28.5051H18.8943V28.7235Z" fill="white"/><path d="M47.6177 34.4027H47.3993C47.3993 34.4027 47.2901 34.9488 46.9625 35.2764C46.6348 35.6587 46.1433 35.8771 45.4881 35.8771C45.1058 35.8771 44.3413 35.8771 44.1775 35.8771V32.4915H44.7782C45.0512 32.4915 45.8157 32.4915 46.0341 32.7099C46.4164 32.9829 46.4164 33.3652 46.4164 33.3652H46.5256V30.9625H46.4164C46.4164 30.9625 46.4164 31.3993 46.0341 31.6723C45.8157 31.8362 45.0512 31.8362 44.7782 31.8362H44.1775V28.9966H44.9966C45.4334 28.9966 46.3072 28.9966 46.6894 29.2696C47.1809 29.5973 47.1809 30.0341 47.1809 30.0341H47.2901V28.5051H42.0478V28.6689C42.0478 28.6689 42.9215 28.6143 42.9215 29.6519V35.3311C42.9215 36.3686 42.0478 36.314 42.0478 36.314V36.4778H47.2355L47.6177 34.4027Z" fill="white"/><path d="M51.3311 31.727C50.7304 31.5086 49.256 31.2355 49.256 30.0888C49.256 29.2151 50.0751 28.7236 50.785 28.7236C51.4403 28.7236 51.9863 28.9966 52.3686 29.4335C52.7509 29.925 52.8601 30.4164 52.8601 30.4164H53.0239V28.5598H52.8601C52.8601 28.5598 52.7509 28.7236 52.5324 28.7236C52.0956 28.7236 51.9317 28.2867 50.7304 28.2867C49.529 28.2867 48.3276 29.3789 48.3276 30.6895C48.3276 32 49.529 32.6553 50.5666 32.983C51.6587 33.3652 52.5324 33.8021 52.5324 34.6758C52.5324 35.5495 51.8771 36.041 51.058 36.041C50.1843 36.041 49.7474 35.7134 49.256 35.1673C48.7645 34.6212 48.6553 33.9113 48.6007 33.8021H48.4369V36.4779H48.6007C48.6007 36.4779 48.7099 36.2048 49.0375 36.1502C49.529 36.0956 50.0205 36.5871 51.058 36.5871C52.1502 36.5871 53.4608 35.8226 53.4608 34.1843C53.4608 32.5461 51.9863 31.9454 51.3311 31.727Z" fill="white"/><path d="M10.2116 32V32.1639C10.2116 32.1639 11.1399 32.1093 11.1399 33.1468V35.2219C11.1399 35.2219 11.1399 35.2765 11.1399 35.3311V35.5495C11.1399 35.5495 10.3208 36.041 9.17406 36.041C8.51877 36.041 6.44369 35.8772 6.44369 31.727C6.44369 27.5768 8.79181 27.3584 9.17406 27.3038C9.39249 27.3038 10.43 27.2492 11.2491 27.9591C12.0683 28.669 12.1775 29.7065 12.1775 29.7065H12.3959V27.14H12.2867C12.2321 27.1946 12.1229 27.3584 11.7952 27.3584C11.3038 27.3584 10.5939 26.7577 9.22867 26.8123C6.49829 26.9215 4.53245 28.942 4.53245 31.9454C4.53245 34.8942 6.82594 36.6417 9.11945 36.6417C9.4471 36.6417 9.77474 36.6417 10.0478 36.5871C10.2116 36.5871 10.3208 36.5325 10.4846 36.5325C10.4846 36.5325 10.4846 36.5325 10.5392 36.5325C10.7577 36.4779 10.9215 36.4233 11.0853 36.4233C11.5222 36.3686 12.1229 36.314 12.5597 36.5325V33.1468C12.5597 32.1093 13.4881 32.1639 13.4881 32.1639V32H10.2116Z" fill="white"/><path d="M57.0648 31.727C56.4642 31.5086 54.9898 31.2355 54.9898 30.0888C54.9898 29.2151 55.8089 28.7236 56.5188 28.7236C57.1741 28.7236 57.7201 28.9966 58.1024 29.4335C58.4846 29.925 58.5939 30.4164 58.5939 30.4164H58.7577V28.5598H58.5939C58.5939 28.5598 58.4846 28.7236 58.2662 28.7236C57.8293 28.7236 57.7201 28.2867 56.4642 28.2867C55.2628 28.2867 54.0614 29.3789 54.0614 30.6895C54.0614 32 55.2628 32.6553 56.3003 32.983C57.3925 33.3652 58.2662 33.8021 58.2662 34.6758C58.2662 35.5495 57.6109 36.041 56.7918 36.041C55.9181 36.041 55.4812 35.7134 54.9898 35.1673C54.4983 34.6212 54.3891 33.9113 54.3345 33.8021H54.1706V36.4779H54.3345C54.3345 36.4779 54.4437 36.2048 54.7713 36.1502C55.2628 36.0956 55.8089 36.5871 56.7918 36.5871C57.884 36.5871 59.1945 35.8226 59.1945 34.1843C59.1945 32.5461 57.7201 31.9454 57.0648 31.727Z" fill="white"/><path d="M59.3584 28.669H59.1399V28.5598H59.686V28.669H59.4676V29.2697H59.3584V28.669Z" fill="white"/><path d="M59.8498 28.5598H59.959L60.1775 28.8874L60.3413 28.5598H60.5051V29.2697H60.3959V28.7782L60.1775 29.1058L59.959 28.7782V29.2697H59.8498V28.5598Z" fill="white"/><path d="M44.6689 23.2082H44.5051V23.099H45.0512V23.2082H44.8328V23.8089H44.6689V23.2082Z" fill="white"/><path d="M45.1604 23.099H45.3242L45.4881 23.4267L45.7065 23.099H45.8157V23.8089H45.7065V23.3175L45.4881 23.6451L45.2696 23.3175V23.8089H45.1604V23.099Z" fill="white"/><path d="M59.3584 28.669H59.1399V28.5598H59.686V28.669H59.4676V29.2697H59.3584V28.669Z" fill="white"/><path d="M59.8498 28.5598H59.959L60.1775 28.8874L60.3413 28.5598H60.5051V29.2697H60.3959V28.7782L60.1775 29.1058L59.959 28.7782V29.2697H59.8498V28.5598Z" fill="white"/><path d="M44.6689 23.2082H44.5051V23.099H45.0512V23.2082H44.8328V23.8089H44.6689V23.2082Z" fill="white"/><path d="M45.1604 23.099H45.3242L45.4881 23.4267L45.7065 23.099H45.8157V23.8089H45.7065V23.3175L45.4881 23.6451L45.2696 23.3175V23.8089H45.1604V23.099Z" fill="white"/></svg>