<svg fill="none" viewBox="0 0 85 72" xmlns="http://www.w3.org/2000/svg"><path d="M19.513 58.996v.247h-.004c-.082-.002-1.448-.019-1.448 1.537v7.03c0 1.093.514 3.09 3.05 3.09 2.198 0 2.839-2.164 2.839-3.532v-6.582c0-1.392-1.343-1.538-1.575-1.538V59h4.03v.248c-.214 0-1.614.194-1.614 1.538v6.187c0 1.38-.085 4.753-4.32 4.753-4.272 0-4.675-2.79-4.675-3.767V60.78c0-1.556-1.367-1.539-1.449-1.537h-.003v-.247zm-12.096-2.7c2.1-.067 3.256.867 3.972.867a.973.973 0 00.79-.308h.202v4.004h-.371s-.216-1.676-1.448-2.74c-1.233-1.063-2.822-1.027-3.185-.988-.607.065-4.254.416-4.254 6.886s3.201 6.698 4.21 6.698a6.11 6.11 0 003.025-.779v-.386c.003-.06.003-.119 0-.178v-3.28c0-1.436-1.185-1.51-1.398-1.513h-.032v-.243h5.143v.244h-.032c-.212.001-1.398.076-1.398 1.512v5.303c-.722-.355-1.638-.286-2.301-.168-.258.073-.553.142-.863.203h-.06c-.253.059-.489.073-.707.111h-.022c-.483.06-.97.088-1.456.088-3.516 0-7.075-2.728-7.075-7.293 0-4.689 2.999-7.9 7.26-8.04zm73.204 2.278c1.874 0 2.104.645 2.761.645a.668.668 0 00.54-.237h.22l.016 2.898h-.22a4.291 4.291 0 00-.784-1.5 3.068 3.068 0 00-2.453-1.13c-1.105 0-2.36.763-2.36 2.1 0 1.782 2.28 2.176 3.208 2.523 1.04.392 3.33 1.291 3.33 3.832s-2.06 3.771-3.726 3.771c-1.579 0-2.374-.7-3.144-.643a.861.861 0 00-.696.48h-.27v-4.17h.278c.153.776.493 1.502.99 2.115.769.883 1.505 1.382 2.824 1.382 1.32 0 2.311-.767 2.311-2.094 0-1.328-1.339-2.06-3.071-2.639-1.584-.53-3.481-1.522-3.481-3.595 0-2.072 1.853-3.738 3.727-3.738zm-8.868 0c1.873 0 2.103.645 2.76.645a.668.668 0 00.541-.237h.222l.014 2.898h-.22a4.272 4.272 0 00-.784-1.5 3.068 3.068 0 00-2.453-1.13c-1.103 0-2.36.763-2.36 2.1 0 1.782 2.28 2.176 3.207 2.523 1.041.392 3.33 1.291 3.33 3.832s-2.059 3.771-3.725 3.771c-1.58 0-2.374-.7-3.144-.643a.861.861 0 00-.696.48h-.27v-4.17h.278a4.85 4.85 0 00.99 2.115c.769.883 1.505 1.382 2.824 1.382s2.307-.76 2.307-2.088-1.339-2.06-3.072-2.639c-1.583-.53-3.483-1.518-3.483-3.594s1.86-3.745 3.734-3.745zm-26.614.422v.247s-1.575.195-1.575 1.539v10.542h-.74l-.009-.012c-.288-.4-7.497-10.396-7.562-10.493-1.003-1.482-2.086-1.573-2.086-1.573v-.244H37l5.726 8.021v-6.239c0-1.392-1.613-1.538-1.613-1.538v-.248l-.006-.002zm12.42 0v.247s-1.575.195-1.575 1.539v10.542h-.74S47.74 60.918 47.673 60.82c-1.003-1.482-2.086-1.573-2.086-1.573v-.244h3.832l5.72 8.021v-6.239c0-1.392-1.613-1.538-1.613-1.538v-.25zm8.845.004v2.37h-.182s-.036-.63-.774-1.179c-.492-.367-1.495-.405-2.193-.406h-1.672v4.421h1.014c.473-.002 1.575-.035 1.919-.294.34-.258.558-.645.605-1.07h.186v3.692h-.186a1.579 1.579 0 00-.605-1.039c-.39-.306-1.523-.335-1.965-.335h-.968v5.292h2.064c1.042 0 1.783-.372 2.285-.934.325-.405.547-.883.645-1.395h.313l-.577 3.197H58.3v-.245h.031c.2-.002 1.296-.078 1.296-1.52v-8.8c0-1.416-1.06-1.507-1.286-1.51H58.3V59zm-34.392-.002v.245h-.004c-.076-.002-1.324-.018-1.324 1.52v8.787c0 1.443 1.097 1.52 1.297 1.521h.031v.247h-4.726v-.247h.031c.2-.002 1.296-.078 1.296-1.52v-8.787c0-1.54-1.248-1.523-1.324-1.52h-.003v-.246zm2.795 2.07l.85 1.218v7.266c0 1.39 1.602 1.512 1.602 1.512v.248h-4.033v-.247s1.581-.18 1.581-1.523zm12.416 0l.85 1.218v7.266c0 1.39 1.603 1.512 1.603 1.512v.248h-4.034v-.247s1.581-.18 1.581-1.523z" fill="#fff"/><path d="M21.452 6.901c0-2.574 3.217-9.681 15.698-5.233S56.806 3.318 59.925.354c0 0 2.107 2.547 3.658 7.121a15.624 15.624 0 01-3.255 2.49l-.002-.015c2.45 18.834-5.646 28.969-9.447 34.08-3.02 3.956-3.235 5.709-2.16 7.408-3.953 1.713-7.456.79-8.793.498a9.32 9.32 0 01-1.21-2.483c-.848.638-1.448 1.012-1.704 1.21a.16.16 0 01-.263-.081c-3.622-8.368-6.345-22.816-10.106-37.52-.374-1.457-.89-1.51-1.225-1.538-.002-.001.023-.004.071-.01-3.641-.34-4.037-3.32-4.037-4.613zM55.1 11.642l-.06.006-10.19 23.368c.983 1.536 2.145 2.981 3.292 3.534l.01-.017c8.157-11.843 6.995-25.451 6.948-26.89zm-.668.056a15.64 15.64 0 01-1.597.014l-9.227 21.165c.27.504.571 1.044.898 1.584zm-3.68-.197l-8.298 19.027c.162.361.451.985.833 1.733l8.97-20.582a18.534 18.534 0 01-1.505-.178zm-1.998-.415l-7.421 17.02c.323.703.6 1.302.819 1.763L50.2 11.406c-.488-.091-.97-.199-1.446-.32m-1.929-.571L40.22 25.662c.288.636.56 1.235.811 1.785l7.194-16.502a28.494 28.494 0 01-1.4-.43zm-1.878-.69l-5.835 13.38.808 1.793 6.394-14.659a37.425 37.425 0 01-1.367-.514zm-1.842-.776L38.007 20.74c.271.607.54 1.208.805 1.797l5.634-12.915a56.26 56.26 0 01-1.34-.573zm-1.814-.822l-4.384 10.054.601 1.345.2.447 4.903-11.245c-.494-.222-.963-.438-1.406-.64zm-1.81-.845l-3.676 8.426.803 1.802 4.188-9.614-1.315-.614zm-1.82-.834l-2.957 6.786.802 1.803 3.484-7.982a192.8 192.8 0 00-1.329-.607m-1.819-.803l-2.233 5.123.796 1.793 2.761-6.336c-.48-.214-.919-.407-1.324-.58zm-6.267-1.53h-.236l.024.012c.591.292 1.542.654 2.815 3.41l.507 1.145.136.307.49 1.106 2.032-4.66c-2.116-.882-3.216-1.174-4.296-1.272l-.14-.011a18.015 18.015 0 00-1.332-.037zm-3.377 1.753l-.095.003a1.539 1.539 0 00-.092.009h-.003c-.37.045-.715.225-.969.509l-.014.01a1.58 1.58 0 00-.396 1.048c0 .872.702 1.578 1.569 1.578s1.568-.706 1.568-1.578c0-.872-.702-1.579-1.568-1.579z" fill="#fcc978"/><path d="M43.006 50.918a.51.51 0 01-.277.26 4.69 4.69 0 01-1.515.292c.285-.112.575-.22.865-.314a6.29 6.29 0 01.926-.238zm.37-.767l-.075.161c-.074.162-.152.325-.242.503a6.283 6.283 0 00-1.012.256c-.36.12-.712.26-1.038.38a3.463 3.463 0 01-1.03-.17l-.048-.062c.285-.108.588-.225.891-.341.419-.144.811-.31 1.257-.449a5.48 5.48 0 011.296-.278zm.374-.766c-.12.224-.223.426-.317.627h-.058a5.53 5.53 0 00-1.336.292c-.428.139-.843.31-1.257.475-.307.126-.615.247-.927.354a9.493 9.493 0 01-.347-.533h.044c.432-.121.847-.305 1.266-.449.419-.143.81-.309 1.256-.448.42-.147.855-.242 1.297-.283a2.67 2.67 0 01.379-.035zM26.492 4.345c.909-.233 3.364-.682 4.95 2.906l1.591 3.587-.29.66.29.667.677-1.551.352-.215.5.83-1.061.645.633 1.421-.303.7.294.682.717-1.65.348-.211.481.83-1.1.667.646 1.453-.321.74.294.682.73-1.7.344-.206.548.897-1.132.69c.214.498.388.897.61 1.395l-.338.776.294.681.802-1.834.334-.206.58.978-1.168.708c.227.484.374.843.597 1.345l-.352.812.294.677.838-1.919.33-.202.588 1.018-1.194.726c.236.516.374.84.601 1.346l-.365.838.298.673.891-1.996.326-.197.641 1.072-1.22.744c.236.525.352.82.579 1.319l-.312.883.298.668.892-2.05.32-.196.638 1.094-1.248.758c.245.538.339.793.561 1.278v.04l-.374.86.303.656.891-2.072.317-.193.628 1.108-1.261.767c.263.574.37.807.58 1.255v.045l-.357.82.303.66.89-2.05.313-.188.641 1.121-1.256.762.111.22c.16.323.334.655.513.991l-.375.857c.104.197.213.399.326.605l.85-1.955.308-.188.633 1.067-1.145.695c.25.44.374.641.641 1.063l-.37.847c.105.144.211.293.321.449l.058.027.682-1.561.303-.184.5.83-.86.52c1.05 1.48 2.187 2.6 3.243 2.628l-.088-.006c.292-.41.458-.649.458-.649-1.163 2.242-.726 3.332-2.317 5.381C57.09 33.098 59.519 23.475 60.25 14.058c.099 2.202.03 4.409-.205 6.6h-.098l-.049.23.12-.036c-.02.176-.043.352-.067.529l-.173.049-.054.224.2-.054c-.022.184-.048.36-.075.538l-.258.068-.054.224.28-.067-.088.538-.335.076-.058.215.357-.071c-.03.182-.062.363-.098.542-.138.032-.276.08-.414.08l-.063.212c.15-.016.299-.04.446-.072a19.25 19.25 0 01-.112.542 4.052 4.052 0 01-.49.072l-.067.206c.17-.01.34-.03.508-.062l-.124.542a3.54 3.54 0 01-.553.05l-.067.197h.076c.167 0 .334-.012.5-.036l-.135.543a3.211 3.211 0 01-.365.022h-.258l-.067.193c.11.005.22.005.33 0h.311a19.06 19.06 0 01-.147.538h-.169c-.172 0-.343-.013-.512-.04l-.072.188c.193.034.388.052.584.054h.107c-.05.176-.103.353-.156.529a3.452 3.452 0 01-.726-.094l-.076.184c.242.06.49.096.74.107-.054.177-.109.35-.165.52a4.014 4.014 0 01-.771-.148l-.076.18c.256.078.519.132.784.161l-.173.507a4.706 4.706 0 01-.776-.193h-.035l-.076.175h.049c.25.088.506.155.766.202l-.178.493a5.212 5.212 0 01-.526-.148l-.316-.112-.08.17.334.126c.172.06.346.11.521.152l-.187.48-.272-.085a6.91 6.91 0 01-.601-.229l-.08.17c.2.086.41.171.619.243l.263.08-.192.449-.224-.079a11.917 11.917 0 01-.667-.275l-.085.166c.277.134.58.264.892.372l-.197.448a19.44 19.44 0 01-.93-.394l-.085.161c.307.139.619.278.94.404l-.205.448-.691-.3-.272-.121-.085.16.286.127c.24.098.454.201.686.3l-.21.448-.4-.179-.593-.26-.09.157.607.269.41.08-.219.449-.102-.045c-.308-.134-.615-.273-.932-.39l-.089.157c.317.121.633.265.945.404l.094.04-.228.448c-.34-.156-.69-.294-1.047-.412h-.03l-.095.152h.072c.344.117.681.251 1.011.404l-.236.448a8.213 8.213 0 00-.722-.273 3.985 3.985 0 00-.414-.112l-.098.152c.15.033.3.073.445.121.241.076.46.17.687.265l-.25.448c-.125-.045-.254-.094-.383-.134-.27-.09-.55-.15-.833-.18l-.103.162c.303.025.603.086.891.184l.343.125-.267.449h-.022a3.506 3.506 0 00-1.31-.184l-.12.175h.089c.43-.024.862.037 1.27.179l-.295.448a3.168 3.168 0 00-.984-.08c-.171.013-.34.037-.508.071l-.139.198c.217-.052.438-.086.66-.103.299-.022.6.003.891.071l-.33.503a2.88 2.88 0 00-.557 0 5.232 5.232 0 00-1.158.242l-.165.22h.045a5.45 5.45 0 011.287-.279 2.74 2.74 0 01.446 0l-.383.557h-.063a5.545 5.545 0 00-1.336.295c-.2.068-.397.14-.593.216l-.187.237c.276-.107.552-.21.829-.3a5.59 5.59 0 011.216-.274 14.93 14.93 0 01-.446.628c-.273.057-.542.13-.806.22-.423.143-.842.314-1.257.48l-.205.08-.196.234.446-.175c.414-.144.829-.31 1.252-.449.2-.062.401-.12.606-.17-.184.245-.368.484-.552.717l-.103.032c-.423.143-.882.332-1.257.48-.374.147-.744.291-1.122.417l-.183.206.093-.027c.433-.121.892-.3 1.266-.448s.749-.296 1.127-.426c-.222.278-.444.547-.664.807l-.516.206c-.415.152-.807.318-1.253.448-.242.076-.49.136-.74.18l-.15.157c.315-.04.626-.108.93-.202.433-.121.852-.283 1.266-.449l.258-.098c-.258.3-.508.587-.757.865-.267.103-.535.202-.807.287-.418.14-.855.216-1.296.229h-.192l-.12.121c.104.005.208.005.312 0 .454-.01.904-.088 1.337-.229a11.6 11.6 0 00.557-.188c-.265.29-.52.567-.767.83-.366.11-.745.17-1.127.179a3.541 3.541 0 01-.83-.103l-.106.103c.305.085.62.13.936.135.32-.004.638-.044.949-.122l-.69.74h-.277a3.99 3.99 0 01-1.292-.242l-.12-.04-.103.094.178.067c.429.159.88.245 1.337.256h.134l-.544.57a4.698 4.698 0 01-.891-.211 10.228 10.228 0 01-.664-.26l-.098.09c.236.102.477.201.722.286.265.094.538.165.815.21l-.445.494-.308-.094c-.41-.139-.806-.314-1.203-.493l-.094.085.202.092c.336.154.67.305 1.042.428l.25.08-.42.45c-.347-.144-.69-.297-1.03-.45l-.512-.223-.03.09.556.246c.326.143.65.291.985.421l-.397.449-.539-.238a12.697 12.697 0 00-1.078-.448l-.094.08c.384.113.758.279 1.128.449l.503.224-.383.449-.071-.032c-.408-.19-.826-.358-1.252-.502a4.49 4.49 0 00-.446-.121l-.098.085c.176.034.35.079.521.135.42.146.833.315 1.235.506h.04l-.375.449a9.237 9.237 0 00-.868-.332 3.579 3.579 0 00-1.204-.188l-.12.107c.439-.024.878.039 1.292.184.277.094.548.206.82.323l-.374.448a7.702 7.702 0 00-.414-.148 3.443 3.443 0 00-1.337-.179 4.77 4.77 0 00-.891.166l-.165.143a5.01 5.01 0 011.065-.21c.441-.026.883.037 1.3.184.13.04.25.085.375.134-.138.17-.263.332-.379.48a3.416 3.416 0 00-1.3-.17 5.56 5.56 0 00-1.338.29c-.338.113-.668.243-.993.373l-.192.166c.401-.157.802-.314 1.212-.448.42-.147.855-.242 1.297-.283.415-.024.83.03 1.225.162a11.45 11.45 0 00-.379.52 3.026 3.026 0 00-.855-.054c-.456.042-.905.14-1.337.291-.428.144-.851.323-1.256.48-.406.157-.811.319-1.226.449l-.035.027-.107.09.129-.041c.432-.121.846-.305 1.265-.449.42-.143.811-.309 1.257-.448.42-.146.855-.241 1.297-.282.262-.02.526-.003.784.049-.143.21-.259.403-.361.578a2.74 2.74 0 00-.446 0c-.456.042-.905.14-1.336.292-.428.143-.843.327-1.257.48-.414.152-.811.318-1.257.448l-.066.063a8.821 8.821 0 01-.272-.485c-.05-.094-.232.054-.317.104l-.445-.969c1.242-.618 2.934-2.316 4.577-4.217-2.103-3.214-4.916-10.425-7.667-17.887l-.315-.856-.47-1.284-.312-.856c-2.025-5.554-3.959-10.97-5.483-14.706a.278.278 0 00-.392-.193c-.387.265-.838.42-1.305.448a2.346 2.346 0 001.305-3.013l.209.51a317.13 317.13 0 011.262 3.154l.702-.275.583-.225.348-.13.065-.025c-.545-1.345-.944-2.33-1.128-2.78-.985-2.418-2.67-2.705-3.921-2.588zm7.566 36.685c.446.897 1.934 4.852 2.936 6.969.317.551.566.973 1.36.614l.975-.444c-.429.381-.886.73-1.368 1.04-.445.288-.918 0-1.385-.856-.598-1.107-1.939-5.22-2.518-7.323zm4.38 1.965a1.124 1.124 0 011.457.695 1.048 1.048 0 01-.735 1.395c-.38.144-.795.161-1.185.048a2.832 2.832 0 01-1.395-1.085.325.325 0 01-.049-.076.063.063 0 010-.072l.071-.058.2-.17a.07.07 0 01.068-.023.08.08 0 01.049.058v.068c.155.285.395.514.686.654.167.094.343.17.526.225l-.04-.027a.587.587 0 01-.308-.386.997.997 0 01.642-1.229zm.668.56a.554.554 0 00-.432.009l.014-.018a.509.509 0 00-.366.704.546.546 0 00.709.247.509.509 0 00.383-.637.559.559 0 00-.308-.305m4.737.042h-.1c.076.106.153.21.23.313l.228-.279a2.59 2.59 0 00-.358-.034zm-.597-.723c.139.216.282.424.427.626l-.119.006a2.8 2.8 0 01.72.037c.14-.172.278-.344.415-.516a3.572 3.572 0 00-1.443-.153m-.222-.698l-.175.033-.03.007c.12.194.241.382.362.566l-.093.011a3.668 3.668 0 011.666.152l.389-.49c-.846-.337-1.478-.39-2.119-.28zm-4.546-2.19a.098.098 0 01.076.085l-.013.018.508 1.426a.076.076 0 010 .071.071.071 0 01-.063.027h-.365a.111.111 0 01-.12-.067l-.33-.933h-.067l-.584.148c.159.115.27.284.312.476a.997.997 0 01-.65 1.22 1.205 1.205 0 01-.847 0 1.033 1.033 0 01-.593-.62 1.213 1.213 0 010-1.053.084.084 0 01.111-.063h.059l.378.14a.058.058 0 01.04.035.07.07 0 01-.011.058l-.015.014a.577.577 0 00-.072.61.555.555 0 00.762.318.503.503 0 00.036-.94l-.053-.02a.075.075 0 01-.054-.034l-.009-.02-.062-.197-.05-.152a.077.077 0 010-.063.08.08 0 01.054-.036zM42.6 41.55l-.096.03-.057.02c.106.18.213.358.32.531l.134-.028c.701-.139 1.38-.097 2.302.274l.372-.476c-1.207-.553-2.15-.6-2.975-.35zm-.458-.599l-.055.021c.103.185.207.367.312.546l.027-.01.097-.033.05-.015c.85-.257 1.823-.207 3.06.365.12-.153.235-.304.349-.453l-.334-.149-.27-.126-.13-.055c-1.012-.414-1.975-.496-3.106-.09zm-.347-.586l-.032.017c.092.172.185.34.277.507l-.08.03c1.222-.478 2.25-.404 3.328.038l.127.054.358.166.252.113.015.006.356-.47a5.679 5.679 0 01-.074-.035l-.73-.36c-1.294-.609-2.44-.719-3.797-.066zm4.787-.17l-.163-.075-.605-.3c-1.502-.743-2.653-.864-4.34-.079l-.039.018c.094.183.189.363.283.54l-.106.053c1.402-.721 2.58-.653 3.888-.067l.21.098.573.286.173.08.345-.464a4.009 4.009 0 01-.219-.09m-5.366-1.072l-.083.04c.087.175.174.347.261.517l-.115.054c1.748-.853 2.933-.776 4.437-.062l.76.376.029.013c.13.061.245.11.352.15.137-.185.268-.362.39-.53a4.086 4.086 0 01-.725-.25l-.26-.12-.389-.187c-1.644-.797-2.748-.9-4.657 0zm1.82-1.297c-.402.07-.831.188-1.27.34-.257.09-.502.186-.726.282l-.213.094c.089.183.177.364.266.542l-.077.036c1.983-.97 3.123-.91 4.762-.14l.582.279.058.027c.338.155.616.257.888.317l.374-.515.221.053a6.578 6.578 0 01-.921-.272l-.036-.014c-1.063.085-1.928-.348-2.666-1.047-.343-.075-.762-.065-1.243.018zm-5.511-.594l.566 1.597a.081.081 0 01-.036.112l-.446.157s-.401-.113-.854-.212l-.161-.034a8.766 8.766 0 00-.321-.06 3.1 3.1 0 00-1.409.068.075.075 0 01-.11-.036l-.193-.542a.076.076 0 010-.063.089.089 0 01.063-.04 3.823 3.823 0 011.582.053c.386.074.766.179 1.136.314l.071.027-.419-1.18a.1.1 0 010-.08.09.09 0 01.038-.036l.025-.009.026-.009.317-.08a.098.098 0 01.125.053zm10.5 1.376l-.006.002c-.298.11-.583.182-.855.22.173.062.35.115.527.16l.051.012.283-.394zm-4.46-1.596h-.02c-.313.011-.777.117-1.354.3a17.123 17.123 0 00-1.048.367l-.323.125-.289.117c.087.184.173.366.26.545l.041-.02.175-.077c.226-.096.472-.193.732-.283a8.21 8.21 0 011.282-.344c.433-.075.819-.092 1.148-.041a7.17 7.17 0 01-.604-.689zm-.483-.674l-.02.002c-.067.007-.15.022-.248.045l-.157.04-.178.05-.198.062-.218.073-.235.082-.264.095-.143.053c-.125.046-.25.094-.378.144l-.8.316.252.543.294-.118.078-.03a20.794 20.794 0 011.299-.465l.133-.041.253-.074c.385-.107.706-.172.95-.186a11.318 11.318 0 01-.42-.59m-.398-.632l-.034.007a2.048 2.048 0 00-.054.012l-.125.031-.146.043-.166.052-.287.097-.214.076-.232.084-.333.125-.436.169-.637.254-.057.023.246.546.404-.16.401-.157.379-.144.283-.104.249-.088.23-.078.21-.068.191-.057.17-.046.15-.034c.058-.012.11-.021.157-.027-.12-.181-.236-.367-.35-.555zm-5.93-.357l-.014.018.04.045.263.314v.022s0 .058-.062.085l-2.816 1.014a.089.089 0 01-.125-.054l-.138-.39a.086.086 0 01.058-.112l2.673-.951a.097.097 0 01.12.009zm5.562-.272l-.061.016-.162.052-.371.134-1.706.651-.294.106-.038.013.246.557.192-.078.506-.202.437-.168.335-.126.345-.125.207-.072.276-.09.158-.048.072-.02.127-.032.055-.012a26.002 26.002 0 01-.21-.358zm-.34-.618l-.153.053-1.288.498-.44.165-.272.096-.153.051-.131.04c-.02.007-.04.012-.058.017l-.078.02.249.576v-.001l.137-.046.738-.279 1.091-.418.34-.124.153-.053.118-.037.046-.012-.091-.162-.06-.108a8.41 8.41 0 01-.149-.276zm-.312-.624l-.038.012-1.192.459-.34.126-.224.08-.202.068-.18.057-.158.045-.136.033-.075.015.254.598.042-.01.108-.03.13-.04.151-.05.174-.062.195-.071.336-.127 1.16-.45.232-.086.038-.013a25.15 25.15 0 01-.275-.554zm-.29-.614l-.996.388-.27.099-.13.045c-.478.166-.862.272-1.139.304l.25.6a2.35 2.35 0 00.226-.05l.156-.045.178-.056.2-.068.222-.079.336-.125 1.206-.463.017-.006c-.08-.168-.166-.35-.256-.544m-5.556-.823v.014a.049.049 0 01.062.045l.201.565a.813.813 0 01-.484.913.804.804 0 01-.982-.308l-.232-.655a.05.05 0 01.027-.067zm5.27.2l-.477.191-.213.082-.22.082c-.188.068-.37.128-.542.18-.453.138-.824.211-1.092.204.09.217.177.433.265.647l-.057.004a3.6 3.6 0 00.718-.15l.232-.072.251-.085.261-.093.39-.148.738-.287-.254-.554zm-6.923.818a.229.229 0 01-.022.422.227.227 0 01-.29-.14.23.23 0 01.062-.246.226.226 0 01.25-.036m1.542-.61l-.972.35.112.314c.14.188.4.235.597.108a.448.448 0 00.37-.476zm5.095-.842l-.2.08-.462.177-.151.055c-.265.093-.518.17-.758.229-.373.091-.697.133-.96.115h-.015l.257.64c.26.014.636-.058 1.101-.2.115-.034.233-.072.354-.114l.239-.084.311-.119.539-.213-.255-.566zm-.262-.59l-.12.05a8.157 8.157 0 01-.844.287c-.553.154-1.073.232-1.532.207l-.069-.005.249.626-.04-.004c.269.036.617-.004 1.03-.104a8.2 8.2 0 00.75-.227l.253-.093.553-.218-.23-.52zm-5.373-.971l.42 1.18a.067.067 0 01-.032.084l-.04.027-.183.112a.058.058 0 01-.049 0 .058.058 0 01-.025-.023l-.18-.501-1.67.592a.049.049 0 01-.072-.036l-.111-.319a.05.05 0 01.036-.067l1.68-.6-.063-.176-.09-.25a.041.041 0 010-.037.076.076 0 01.037-.02l.022-.002v-.018h.231a.076.076 0 01.09.054zm5.095.339l-.273.097-.314.104a5.322 5.322 0 01-1.34.253 2.908 2.908 0 01-.637-.04l-.022-.005.268.683-.028-.003c.48.05 1.04-.027 1.639-.194.222-.062.439-.134.647-.212l.19-.073.117-.048-.247-.562zm-.278-.64l.063-.027a4.22 4.22 0 01-2.608.28l-.078-.018.282.729-.043-.01c.221.055.466.074.731.063a5.252 5.252 0 001.28-.236l.267-.087.354-.123-.248-.57zm-.279-.645l.056-.023a3.657 3.657 0 01-2.7.084l-.016-.006c.096.252.191.502.287.75l-.03-.008a4.152 4.152 0 002.566-.176l.089-.037-.252-.584zm-5.233-.89a.709.709 0 01.303.46v-.023a.776.776 0 01-.026.55l-.032.064a.058.058 0 01-.057.01l-.018-.01-.272-.085a.071.071 0 01-.05-.036.045.045 0 01-.006-.033l.007-.016a.28.28 0 00.085-.314.291.291 0 00-.352-.215.337.337 0 00-.157.367v.162a.673.673 0 01-.445.695.749.749 0 01-.971-.485.662.662 0 01.075-.78.067.067 0 01.09-.027l.262.126c.006.011.008.024.006.036l-.006.018a.45.45 0 00-.08.448.314.314 0 00.423.206c.183-.066.21-.156.232-.438l.005-.068a.632.632 0 01.445-.713.7.7 0 01.539.1zm2.26.12c.093.249.187.496.28.74l-.063-.024a3.59 3.59 0 002.652.024l.077-.032-.25-.583.063-.018a4.121 4.121 0 01-2.693-.08zm-.326-.862l.293.777-.026-.01a4.052 4.052 0 002.644.182l.084-.024c-.084-.197-.17-.396-.255-.598l.07-.022c-.718.24-1.424.176-2.26-.103l-.227-.08zm-.322-.861l.29.776.378.143.078.029c.837.299 1.535.392 2.233.195l.056-.018-.254-.598.053-.01a2.638 2.638 0 01-.388.055c-.573.04-1.171-.084-1.834-.327l-.186-.072zm-2.334-.646l.366 1.027a.036.036 0 010 .036.062.062 0 01-.05.022h-.035l-.218.027a.085.085 0 01-.085-.058l-.214-.601h-.03l-.447.166.214.6a.05.05 0 01-.035.063l-.223.08a.049.049 0 01-.067-.035l-.21-.592-.6.215.24.678a.054.054 0 01.009.05l-.01.017-.195.116a.062.062 0 01-.054 0 .045.045 0 01-.026-.026l-.455-1.014a.054.054 0 01.058-.072v-.022l1.987-.713a.062.062 0 01.08.036zm2.005-.237l.297.798.448.182.22.084c.654.241 1.244.363 1.805.324a2.63 2.63 0 00.255-.03l.058-.012-.265-.625.066-.007a2.873 2.873 0 01-.793-.014 6.054 6.054 0 01-1.353-.385l-.227-.093a13.368 13.368 0 01-.118-.05zm-.322-.868l.29.78.325.143c.087.038.167.073.244.105l.225.092c.484.191.923.322 1.339.382.232.033.45.043.654.026l.036-.004-.28-.662.082-.006c-.315.03-.677-.015-1.088-.128a7.52 7.52 0 01-.87-.305l-.261-.111zm-.319-.86l.286.771.693.311.164.072c.376.161.707.283 1.021.369.353.097.669.144.946.133h.015l-.289-.688c-.205.02-.547-.06-1.012-.221l-.223-.08-.24-.093-.238-.095-.336-.14zm-.317-.86l.285.772.948.409.232.096.238.095.234.09.218.078.201.068c.345.11.606.165.77.155l-.292-.697a1.087 1.087 0 01-.172-.024l-.127-.031-.148-.043a6.518 6.518 0 01-.081-.026l-.177-.061-.196-.072-.105-.04-.346-.138-.394-.165zm-.304-.824l.273.74.257.107.938.402.342.143.34.135.103.04.193.071.175.06.154.049c.14.04.251.066.334.074l-.307-.735-.04-.009-.075-.02-.085-.025-.148-.052-.179-.068-.297-.122-.378-.16-.689-.295-.274-.113-.157-.063-.14-.052-.122-.043-.108-.035-.095-.026zm-.303-.822l.277.75h.002l.086.022.047.013.102.032.178.063.211.082.346.142 1.051.448.295.12.178.069.1.036.09.029.113.031-.32-.77-.038-.012-.148-.051-.179-.068-.297-.122-.378-.16-.689-.295-.274-.113-.157-.063-.14-.052-.122-.043-.108-.035-.095-.027-.084-.019a1.144 1.144 0 00-.04-.006zm-.295-.8l.028.078.245.663v-.008l.037.005.077.015.086.02c.015.005.03.01.047.014l.102.032.177.063.212.081.346.142 1.051.45.295.12.177.068.101.036.038.012-.331-.798-.03-.011-.143-.055-.323-.136-.904-.392-.243-.1c-.452-.18-.789-.28-1.045-.298zm-.288-.777l.264.714-.063-.002c.234 0 .532.073.927.219l.226.087.12.048.313.132.921.399.2.081.035.013-.33-.797-.07-.026-.434-.173-.757-.31-.127-.05-.237-.089c-.414-.151-.725-.233-.964-.246zm-.262-.733l-.009.002.248.668-.016-.001c.276 0 .644.098 1.163.293l.25.098 1.005.41.199.077c-.106-.263-.216-.528-.325-.792l-.028-.01-.095-.036-.12-.05-.5-.212-.143-.059-.264-.104a8.187 8.187 0 00-.243-.088c-.482-.167-.859-.24-1.122-.196zm-.21-.693l-.054.01.233.625-.048.01c.28-.072.688 0 1.222.184.118.041.241.087.374.14l.355.146.424.18.167.067.02.008-.342-.832.082.04c-1.061-.53-1.877-.663-2.432-.578zM60.077 1.058c.098.14.223.318.361.538l-.071.027v.22l.2-.067c.078.128.16.267.245.417-.191.071-.383.139-.574.201-.023.077-.045.157-.072.243l.245-.078c.163-.054.326-.114.486-.174l.227.413c-.334.135-.673.26-1.016.368l-.156.045-.098.237.312-.085a17.41 17.41 0 001.056-.377l.21.413-.08.031c-.415.153-.83.319-1.253.449a5.609 5.609 0 01-.52.139l-.121.233c.238-.043.473-.1.704-.17.432-.122.855-.283 1.27-.449l.093-.036.2.417-.373.148c-.415.153-.83.319-1.253.449a5.07 5.07 0 01-.993.21l-.147.211c.407-.025.81-.1 1.198-.224.433-.121.856-.287 1.27-.449l.388-.152.192.422-.655.26c-.415.152-.83.318-1.252.448-.416.139-.85.216-1.288.229h-.254l-.16.184c.137.019.275.03.414.031a4.7 4.7 0 001.337-.229c.432-.12.855-.287 1.27-.448l.663-.256.183.449c-.312.116-.62.237-.927.358-.414.153-.829.319-1.252.449-.416.138-.85.215-1.288.229a3.481 3.481 0 01-.85-.113l-.17.157c.331.1.675.152 1.02.157a4.706 4.706 0 001.337-.228 12.55 12.55 0 001.27-.449c.312-.12.62-.242.931-.354l.174.448c-.405.135-.77.296-1.185.449-.415.152-.829.318-1.252.448-.416.139-.85.216-1.288.229a3.987 3.987 0 01-1.279-.238l-.196-.071-.183.134.317.117c.429.157.88.244 1.337.255a4.696 4.696 0 001.336-.228c.433-.122.874-.287 1.27-.449s.789-.314 1.186-.448l.169.448-.174.054c-.432.143-.846.327-1.26.48-.415.152-.83.318-1.253.448a4.48 4.48 0 01-1.288.229 3.988 3.988 0 01-1.279-.238 10.72 10.72 0 01-.86-.34l-.196.116c.326.148.655.291.998.408.43.158.88.244 1.337.256a4.701 4.701 0 001.337-.229c.432-.121.851-.305 1.27-.448.419-.144.833-.31 1.252-.449l.178-.054.16.449-.41.12c-.431.144-.846.328-1.26.48-.415.153-.83.319-1.252.449-.416.139-.85.216-1.288.229a3.988 3.988 0 01-1.279-.238 14.568 14.568 0 01-1.234-.507l-.37-.161-.218.103.512.229c.41.184.802.372 1.248.52.428.158.88.244 1.336.256a4.704 4.704 0 001.337-.23c.432-.12.851-.304 1.27-.448.419-.143.833-.309 1.252-.448l.415-.121v.045s-.214.246-.589.628c-.4.139-.757.295-1.171.448-.415.152-.83.318-1.253.448-.415.14-.85.216-1.287.23a3.988 3.988 0 01-1.28-.239 14.565 14.565 0 01-1.233-.506 11.996 11.996 0 00-1.253-.503l.09-.12-.295.098.272.08c.42.145.833.313 1.235.503.41.184.802.372 1.247.52.429.158.88.245 1.337.256a4.696 4.696 0 001.337-.229c.432-.121.855-.287 1.27-.448l.717-.278c-.267.26-.584.551-.94.86a14.185 14.185 0 01-1.19.431l.388-.103v.212l.2-.069.174-.098c-.121.098-.246.196-.374.295v.18h.004c-.12.063-.178.085-.334.157.067 2.4-.33 2.426-2.272 3.04l-.152.051c-2.293.757-2.152.21-2.767 6.043v-7.076h-.009c-6.405 0-11.792-2.636-16.347-4.928l-.521-.263c-3.283-1.652-6.124-3.06-8.598-3.06a4.202 4.202 0 00-5.423 1.767S25.752.551 35.894 4.287c5.227 2.112 22.338 8.596 24.182-3.229zM32.833 18.156l-.01.003.236.635h.001l.066-.012c.542-.083 1.322.037 2.324.513l-.328-.798.053.028a3.452 3.452 0 00-2.342-.369zm-.21-.69l-.054.015.231.618-.122.027a3.514 3.514 0 012.397.275l.01.006-.322-.784.095.042a3.305 3.305 0 00-2.235-.2zm-.25-.695l-.062.022.24.637-.083.024a3.358 3.358 0 012.266.099l-.308-.754.055.02a3.211 3.211 0 00-2.109-.048m-.191-.638l-.105.037.215.572-.075.026a3.264 3.264 0 012.144-.048l.037.013-.302-.74.073.013a3.998 3.998 0 00-1.987.127zm-3.868-6.151s.045-.085.107 0c.332.588.57 1.225.704 1.888 0 0-.093.38-.918.83-1.296.69-.316 1.892-.405 3.797-.513-.843-.633-4.61-1.952-5.022a3.299 3.299 0 002.464-1.493zm3.612 5.468l-.105.043.239.63-.042.015a4.047 4.047 0 012.005-.207l.051.009-.302-.74.043.003a4.07 4.07 0 00-1.889.247zm1.538-1.006l.082-.003c-.63.01-1.253.129-1.843.35l-.129.052.23.604-.046.019c.6-.258 1.25-.369 1.9-.326l.093.008-.287-.704zm-.295-.722l.098-.012a7.19 7.19 0 00-1.788.417l-.154.06.232.61-.048.018a5.52 5.52 0 011.846-.417l.089-.003-.275-.673zm-.278-.685l.07-.013a8.536 8.536 0 00-1.69.468l-.184.075.22.574-.061.024a7.241 7.241 0 011.786-.477l.118-.014-.26-.637zm-.272-.669l.076-.017a10.41 10.41 0 00-1.646.5l-.205.084.226.586-.052.02a8.593 8.593 0 011.687-.52l.166-.031-.252-.622zm-.272-.668l.06-.017c-.53.149-1.053.324-1.567.525l-.24.097.226.584-.062.025a10.55 10.55 0 011.64-.546l.196-.046-.253-.622zm-.263-.648l.096-.029c-.535.156-1.06.34-1.575.554l-.246.106.224.576-.068.027a16.6 16.6 0 011.56-.558l.254-.074-.245-.602zm22.819.576c-.42-.13-.86-.178-1.297-.144a4.995 4.995 0 00-1.02.22h.548c.16-.036.322-.061.486-.077.278-.025.559-.01.833.045l.36-.022.09-.005zM31.82 10.404l-.047.016-.287.101-.44.163-.46.176-.477.188.23.589-.062.026a15.296 15.296 0 011.568-.59l.22-.067-.245-.602zm21.94.397l-.15.006a5.595 5.595 0 00-1.337.296c-.419.12-.829.287-1.234.448l.156.023h.151c.325-.126.65-.251.98-.36a5.421 5.421 0 011.288-.277 3.3 3.3 0 011.288.184v-.032l.19-.05-.146-.048a3.486 3.486 0 00-1.185-.19zm0-.735l-.15.005a5.56 5.56 0 00-1.337.296c-.428.144-.842.328-1.257.48-.414.153-.806.319-1.252.449h-.062l.285.058c.365-.121.668-.256 1.083-.4s.829-.309 1.252-.448a5.414 5.414 0 011.288-.278c.437-.024.874.038 1.287.184.42.145.833.312 1.235.502l-.207-.095.259-.068a12.11 12.11 0 00-.983-.406l-.255-.09a3.497 3.497 0 00-1.336-.184zm-22.2-.307l-.228.084-.55.21-.92.361.23.588.478-.188.558-.213.445-.163.185-.064.044-.016-.242-.599zm22.202-.482l-.151.005a5.561 5.561 0 00-1.337.296c-.428.144-.842.327-1.257.48-.414.152-.806.318-1.252.448a4.536 4.536 0 01-1.297.23 4.022 4.022 0 01-1.292-.243 14.585 14.585 0 01-1.234-.507c-.408-.19-.826-.358-1.252-.502v.018a4.204 4.204 0 00-.99-.193l.348.144c.204.036.404.086.602.148.42.145.832.315 1.234.506l.562.22c.236.099.45.188.681.269.29.102.588.175.891.22.148.022.297.034.446.036a4.677 4.677 0 001.337-.229c.428-.121.85-.305 1.265-.448s.83-.31 1.252-.449a5.407 5.407 0 011.288-.278c.437-.024.875.038 1.288.184.42.144.832.312 1.234.502.301.135.592.272.902.394l.318-.083a15.538 15.538 0 01-1.148-.477c-.408-.19-.826-.358-1.253-.502a3.477 3.477 0 00-1.336-.184zm.12-.776l-.151.005a5.544 5.544 0 00-1.337.296c-.428.144-.842.328-1.256.48s-.807.319-1.252.449a4.538 4.538 0 01-1.297.228 4.036 4.036 0 01-1.292-.242 14.568 14.568 0 01-1.235-.507c-.407-.19-.825-.358-1.252-.502a3.447 3.447 0 00-1.337-.18 4.23 4.23 0 00-.833.144l.138.063a3.9 3.9 0 01.7-.103 3.31 3.31 0 011.301.184c.42.145.833.315 1.234.507.406.183.798.372 1.244.52.428.158.88.244 1.336.255.454-.01.905-.088 1.337-.228.428-.121.851-.305 1.266-.449.414-.143.828-.31 1.252-.448a5.44 5.44 0 011.287-.278c.438-.025.875.038 1.288.184.42.144.833.312 1.234.502.41.184.803.372 1.248.52.326.12.666.2 1.01.235l1.137-.3a4.49 4.49 0 01-.819.1 3.988 3.988 0 01-1.279-.237 14.568 14.568 0 01-1.234-.507c-.408-.19-.826-.358-1.252-.502a3.487 3.487 0 00-1.337-.184zm-10.36-.588l-.151.006c-.456.041-.905.14-1.337.291l-.481.17.111.055.397-.14a5.46 5.46 0 011.297-.277 3.34 3.34 0 011.3.183c.421.146.833.315 1.235.507.405.184.798.372 1.243.52.429.158.88.245 1.337.256a4.67 4.67 0 001.337-.229 13.28 13.28 0 001.265-.448l.441-.162h-.414l-.067.027c-.414.153-.806.319-1.252.449a4.533 4.533 0 01-1.297.228 4.014 4.014 0 01-1.292-.242 14.572 14.572 0 01-1.234-.506 12.068 12.068 0 00-1.252-.503 3.433 3.433 0 00-1.337-.179zm3.124.374c.16.067.325.13.49.188.429.158.88.245 1.337.256.374-.006.745-.06 1.105-.162l-.503-.027c-.2.037-.403.056-.607.059a4.032 4.032 0 01-1.292-.243zm-4.282-.92l-.321.1c-.388.143-.775.3-1.15.447l-.107.045h-.03l.102.05.062-.036c.379-.153.74-.292 1.136-.422.147-.054.299-.098.446-.139h.022zm-1.092-.336h-.044l-.446.184a17.43 17.43 0 01-.891.34h-.027l.098.046h.027l-.005-.018.207-.073c.207-.075.41-.155.604-.232l.067-.027.5-.193zm-.9-.336h-.12l-.159.059a11.9 11.9 0 01-.559.192 5.987 5.987 0 01-.606.157l.107.05v.017c.165-.036.285-.121.522-.193s.49-.157.815-.282zM37.155 6.3l.312.14c.247.047.497.074.748.08l.01-.014.181-.006a4.23 4.23 0 00.897-.15h-.04l-.099-.036-.188.045a4.14 4.14 0 01-.77.09l-.177-.01a4.785 4.785 0 01-.874-.139" fill="#31251c"/></svg>