<?xml version="1.0" encoding="utf-8"?>
<svg xmlns="http://www.w3.org/2000/svg" width="170px" height="170px" aria-labelledby="title-play-pause-5008208b-19d5-46d0-b621-d2ba1d1f4ebb desc-play-pause-5008208b-19d5-46d0-b621-d2ba1d1f4ebb" role="img" viewBox="0 0 100 100"><title id="title-play-pause-5008208b-19d5-46d0-b621-d2ba1d1f4ebb">Video Pause Button</title><desc id="desc-play-pause-5008208b-19d5-46d0-b621-d2ba1d1f4ebb">Click here to Pause video</desc><g transform="translate(-1016 -309)"><path d="M11.25,2.422A3.751,3.751,0,0,0,15-1.328v-27.5a3.751,3.751,0,0,0-3.75-3.75H3.75A3.751,3.751,0,0,0,0-28.828v27.5a3.751,3.751,0,0,0,3.75,3.75ZM35-1.328v-27.5a3.751,3.751,0,0,0-3.75-3.75h-7.5A3.751,3.751,0,0,0,20-28.828v27.5a3.751,3.751,0,0,0,3.75,3.75h7.5A3.751,3.751,0,0,0,35-1.328Z" transform="translate(1049 374)" fill="white"></path></g></svg>