<svg xmlns="http://www.w3.org/2000/svg" viewBox="0 0 100 40" fill="none"><g clip-path="url(#clip0_10117_14047)"><path d="M0.62423 29.6238C0.0194108 28.3771 -0.0374071 27.1189 0.456529 25.8845C0.686909 25.3041 1.07269 24.7833 1.58003 24.3676C1.20642 24.7368 0.918022 25.1686 0.731446 25.6382C0.237511 26.8701 0.294329 28.1307 0.899148 29.3774C1.48747 30.5904 2.42586 31.5554 3.25978 32.3644C3.79521 32.8765 4.29877 33.4148 4.76816 33.9765C5.14863 34.439 5.33724 35.006 5.3015 35.5797C5.28775 35.8885 5.18603 36.0026 4.99267 36.0453C5.01332 35.9736 5.0247 35.9001 5.02658 35.8261C5.06232 35.2523 4.87371 34.6854 4.49324 34.2229C4.02544 33.6601 3.52341 33.1208 2.98944 32.6075C2.15094 31.7985 1.21255 30.8335 0.62423 29.6238ZM45.4743 32.9713C45.8006 32.9713 46.0507 32.9664 46.2862 32.9565C46.43 32.942 46.5684 32.8994 46.6917 32.8317C46.8151 32.764 46.9203 32.6729 47.0001 32.5648C46.8715 32.6485 46.7196 32.6987 46.5612 32.7101C46.3257 32.72 46.0755 32.7249 45.7492 32.7249H45.3323H44.9025H44.8109V32.9713H45.061H45.4743ZM48.1905 26.7296C47.9928 26.8326 47.7666 26.8832 47.538 26.8758H47.5087C47.0835 26.8709 46.6161 26.8684 46.0425 26.8684H45.1261H44.8118V27.1148H44.8512H45.7676C46.3449 27.1148 46.8123 27.1148 47.2338 27.1222H47.2631C47.3942 27.1222 47.7928 27.1222 48.0805 26.8561C48.1217 26.8175 48.1585 26.7754 48.1905 26.7304V26.7296ZM34.8579 29.8702C34.8752 29.869 34.8923 29.8668 34.9092 29.8636C34.9294 28.915 34.9321 27.9147 34.9166 26.806H34.3979V27.0524H34.6416C34.6563 28.0773 34.6545 29.0095 34.6416 29.894C34.7095 29.8825 34.7819 29.8751 34.8579 29.8702ZM24.3496 35.8794C24.4596 35.8384 24.5641 35.7973 24.5632 35.4056C24.5632 33.423 24.5632 31.4407 24.5632 29.4587V27.16C24.5632 27.1033 24.5632 27.0475 24.5632 26.9957C24.5421 26.7493 24.4229 26.6475 24.1508 26.6459H24.1435C23.9327 26.6459 23.787 26.6927 23.7402 26.9005C23.7827 26.8947 23.8256 26.8919 23.8685 26.8922H23.8759C24.1508 26.8922 24.2672 26.9957 24.2882 27.2421C24.2882 27.2906 24.2882 27.3464 24.2882 27.4064V29.7059C24.2882 31.6874 24.2882 33.6697 24.2882 35.6528C24.2909 35.7375 24.2835 35.8223 24.2662 35.9057C24.2947 35.8987 24.3226 35.8899 24.3496 35.8794ZM8.87177 29.0399C8.69166 29.1377 8.48385 29.1867 8.27336 29.1811H8.22113C7.91963 29.1721 7.61631 29.168 7.3194 29.168C7.02248 29.168 6.72282 29.168 6.43049 29.1811H6.38009C6.24407 29.1872 6.10808 29.1685 5.98035 29.1261C5.85261 29.0838 5.73578 29.0187 5.6369 28.9347C5.35373 28.6785 5.35648 28.3278 5.36198 28.212C5.37519 27.769 5.36081 27.3256 5.31891 26.884C5.285 26.5859 5.1732 26.5555 4.9441 26.5555H4.91112C4.70584 26.5613 4.58488 26.6064 4.54456 26.8085C4.57496 26.8049 4.60555 26.8027 4.6362 26.8019H4.66919C4.89828 26.8019 5.01009 26.8348 5.04399 27.1304C5.08589 27.572 5.10027 28.0154 5.08706 28.4584C5.08706 28.5742 5.08248 28.9249 5.36198 29.1811C5.46086 29.2651 5.5777 29.3302 5.70543 29.3725C5.83316 29.4149 5.96915 29.4336 6.10518 29.4275H6.16016C6.45249 29.4185 6.75123 29.4144 7.04906 29.4144C7.34689 29.4144 7.6493 29.4144 7.95079 29.4275H8.00302C8.14372 29.4337 8.28431 29.4136 8.41588 29.3685C8.54745 29.3234 8.66712 29.2543 8.7673 29.1655C8.80636 29.1266 8.84133 29.0845 8.87177 29.0399ZM76.0544 35.9213C76.2899 35.9 76.3128 35.8178 76.3293 35.6807C76.3428 35.5395 76.3477 35.3978 76.3439 35.2561V35.1666C76.3439 32.9508 76.3439 30.735 76.3439 28.5192V24.4949C76.3439 24.1993 76.3439 23.9537 76.4869 23.7451C76.4284 23.7768 76.3748 23.8152 76.3274 23.8593C76.069 24.0958 76.069 24.3808 76.069 24.7413V28.7656C76.069 30.9814 76.069 33.1972 76.069 35.413V35.5025C76.0723 35.6422 76.0674 35.782 76.0544 35.9213ZM99.5268 26.7296C99.3331 26.8326 99.1105 26.8836 98.8854 26.8766H98.8588C98.4299 26.8717 97.9589 26.8692 97.377 26.8692H96.4468H96.1261V27.1156H96.1719H97.1021C97.684 27.1156 98.155 27.1156 98.5839 27.123H98.6104C98.7387 27.123 99.13 27.123 99.4169 26.8561C99.4583 26.8174 99.4951 26.7751 99.5268 26.7296ZM86.3308 27.0869C86.3675 27.2789 86.3844 27.4735 86.3812 27.6683V27.6766C86.3812 28.3623 86.3876 28.7754 86.7184 29.0891C87.0694 29.4177 87.5496 29.4177 88.2763 29.4177H88.6291H88.9379C89.0653 29.4177 89.1936 29.4177 89.3219 29.4177H89.3558C89.4868 29.4222 89.6175 29.4027 89.7398 29.3603C89.8621 29.318 89.9734 29.2536 90.0669 29.1713C90.1119 29.1306 90.1516 29.0854 90.1851 29.0366C90.0198 29.1272 89.8291 29.1737 89.6353 29.1705H89.6014C89.4731 29.1705 89.3448 29.1705 89.2174 29.1705H88.9086H88.5558C87.8291 29.1705 87.3489 29.1705 86.9979 28.8419C86.6671 28.5282 86.6653 28.1151 86.6607 27.4294V27.4211C86.6639 27.2263 86.647 27.0317 86.6103 26.8397C86.5498 26.5728 86.4646 26.5481 86.2538 26.5481H86.1732C86.0275 26.5572 85.8982 26.5851 85.8478 26.7945H85.8982H85.9789C86.1887 26.7953 86.274 26.82 86.3344 27.0869H86.3308ZM84.235 32.5566C84.8545 33.1569 85.3347 33.6587 85.7324 34.1359C86.1338 34.6023 86.3424 35.179 86.3225 35.7677C86.3227 35.8629 86.3101 35.9578 86.285 36.0503C86.4746 36.0158 86.5874 35.9065 86.5975 35.5214C86.6173 34.9326 86.4087 34.3559 86.0073 33.8895C85.605 33.4123 85.1294 32.9105 84.5099 32.3102C83.5816 31.4068 82.646 30.4032 82.0943 29.1392C81.6567 28.1561 81.5834 27.0729 81.8854 26.0496C82.0596 25.4131 82.4057 24.8248 82.8934 24.3364C82.2601 24.8624 81.8138 25.544 81.6104 26.296C81.3085 27.3193 81.3818 28.4025 81.8194 29.3856C82.3747 30.6496 83.3103 31.6564 84.2387 32.5566H84.235ZM65.4095 35.9238C65.6735 35.8811 65.7092 35.6191 65.7119 35.5C65.7284 34.5145 65.7248 33.5051 65.7211 32.5311C65.7211 32.1147 65.7211 31.6983 65.7211 31.2828V30.7079C65.7211 30.4919 65.7211 30.2767 65.7211 30.0607C65.7211 29.0908 65.7257 28.0897 65.7147 27.1041C65.7147 26.6828 65.5232 26.6491 65.2986 26.6491H65.2877C65.1456 26.6491 64.9614 26.6491 64.8927 26.9013C64.9325 26.897 64.9726 26.8951 65.0127 26.8955H65.0237C65.2482 26.8955 65.4352 26.9292 65.4398 27.3505C65.4508 28.336 65.4489 29.3388 65.4462 30.3071C65.4462 30.5231 65.4462 30.7383 65.4462 30.9543V31.5292C65.4462 31.9447 65.4462 32.3611 65.4462 32.7775C65.4462 33.7515 65.4535 34.7584 65.437 35.7464C65.4368 35.8056 65.4288 35.8646 65.4132 35.9221L65.4095 35.9238ZM96.7978 32.9721C97.1048 32.9721 97.3422 32.9656 97.5676 32.9524C97.8425 32.9368 98.1266 32.7676 98.3007 32.5467C98.1673 32.6367 98.0087 32.6918 97.8425 32.706C97.6171 32.7192 97.3843 32.7257 97.0727 32.7257H96.653C96.5128 32.7257 96.3708 32.7257 96.2278 32.7257H96.1215V32.9721H96.3781H96.7978ZM54.7748 28.5299C54.7748 28.8781 54.7748 29.2266 54.7748 29.5753H55.0497V28.2835C55.0497 27.0228 55.0552 25.7195 55.0369 24.4399C55.0213 24.2017 55.0851 23.9647 55.2202 23.7591C55.1641 23.7917 55.1119 23.8294 55.0644 23.8716C54.7895 24.1229 54.761 24.4563 54.7638 24.6863C54.7803 25.9658 54.7775 27.2692 54.7748 28.5299ZM65.3335 39.4577C64.5785 39.4592 63.8321 39.3147 63.1451 39.0339C61.5744 38.3843 60.6956 37.1237 60.6709 35.4844C60.6333 32.8867 60.6315 30.1461 60.6709 27.0951C60.6828 26.0373 61.0997 25.1117 61.8035 24.4194C60.9348 25.1306 60.4088 26.1523 60.3959 27.3415C60.3611 30.3892 60.363 33.1331 60.3959 35.7308C60.4189 37.3733 61.2977 38.6307 62.8702 39.2803C63.5571 39.561 64.3036 39.7056 65.0585 39.7041C66.3736 39.7041 67.5594 39.2853 68.3997 38.5248C68.4373 38.4903 68.473 38.4549 68.5088 38.4196C67.6868 39.0906 66.5642 39.4577 65.3335 39.4577ZM58.1471 39.2031H58.0555C57.743 39.1908 57.4278 39.1842 57.118 39.1842C56.8083 39.1842 56.4958 39.1908 56.1906 39.2031C56.1595 39.2031 56.1301 39.2031 56.099 39.2031C55.9571 39.2097 55.8153 39.1904 55.682 39.1464C55.5487 39.1023 55.4268 39.0344 55.3237 38.9469C55.0635 38.7112 55.0323 38.4081 55.0341 38.17C55.0451 36.9142 55.0433 35.6363 55.0424 34.4011C55.0424 33.9889 55.0424 33.5782 55.0424 33.1692H53.9693V33.4156H54.7675C54.7675 33.8279 54.7675 34.2385 54.7675 34.6475C54.7675 35.8794 54.7675 37.1606 54.7592 38.4163C54.7592 38.6545 54.7885 38.9576 55.0488 39.1933C55.1519 39.2808 55.2738 39.3487 55.4071 39.3927C55.5403 39.4368 55.6822 39.4561 55.8241 39.4495C55.8525 39.4495 55.8818 39.4495 55.9157 39.4495C56.2209 39.4372 56.5334 39.4306 56.8431 39.4306C57.1528 39.4306 57.4681 39.4372 57.7806 39.4495H57.8722C58.0155 39.4562 58.1589 39.4367 58.2936 39.3923C58.4283 39.3478 58.5515 39.2793 58.6557 39.1908C58.7004 39.1499 58.7403 39.1051 58.7748 39.0569C58.5856 39.1587 58.3677 39.2095 58.1471 39.2031ZM76.639 39.4035C76.3705 39.442 76.099 39.4615 75.8271 39.4618C73.6571 39.4618 71.8958 38.2299 71.4449 36.4042C71.3625 36.0289 71.3251 35.6468 71.3331 35.2643C71.3258 33.9749 71.3267 32.6658 71.3276 31.3986C71.3276 30.9485 71.3276 30.4979 71.3276 30.0468C71.3276 29.5638 71.3276 29.0809 71.3276 28.598C71.3276 27.2306 71.3276 25.8164 71.3184 24.4268C71.3053 24.1916 71.369 23.9582 71.5017 23.755C71.4459 23.7876 71.394 23.8253 71.3468 23.8675C71.0719 24.1139 71.0444 24.4424 71.0463 24.6732C71.0591 26.0628 71.0573 27.477 71.0554 28.8444C71.0554 29.3273 71.0554 29.8102 71.0554 30.2931C71.0554 30.7443 71.0554 31.1949 71.0554 31.6449C71.0554 32.9122 71.0554 34.2213 71.0609 35.5107C71.0529 35.8931 71.0904 36.2753 71.1727 36.6506C71.6236 38.4796 73.3849 39.7082 75.5549 39.7082C75.8269 39.7079 76.0983 39.6884 76.3668 39.6499C77.516 39.4856 78.4745 39.0266 79.1417 38.3695C78.438 38.9258 77.568 39.2853 76.639 39.4035ZM86.2025 39.4479H86.1548C83.8226 39.4479 82.1227 38.2817 81.7177 36.4042C81.5949 35.8293 81.5976 35.2544 81.6004 34.6993C81.6004 34.5523 81.6004 34.4052 81.6004 34.2591C81.603 34.1073 81.6585 33.96 81.7589 33.8377C81.5142 33.993 81.3227 34.241 81.3254 34.5054C81.3254 34.6516 81.3254 34.7986 81.3254 34.9456C81.3254 35.5016 81.3199 36.0774 81.4427 36.6506C81.8478 38.528 83.5504 39.6943 85.8799 39.6943H85.9276C87.2957 39.6852 88.4761 39.2146 89.2751 38.4278C88.4889 39.0684 87.4213 39.4397 86.2025 39.4479ZM4.89004 39.461C4.63673 39.4608 4.38377 39.4444 4.1331 39.4117C1.71657 39.098 0.311741 37.6657 0.278751 35.4811C0.278751 35.3169 0.278751 35.1526 0.278751 34.9842C0.278751 34.7625 0.278749 34.5523 0.274167 34.3428C0.260831 34.1505 0.312571 33.959 0.422623 33.7934C0.363266 33.827 0.308518 33.8667 0.259505 33.9117C0.166487 34.0025 0.0953688 34.1096 0.0505896 34.2261C0.0058105 34.3427 -0.0116675 34.4663 -0.000750517 34.5892C0.00749702 34.7986 0.00566591 35.0089 0.00383313 35.2306C0.00383313 35.3949 0.00383313 35.5591 0.00383313 35.7275C0.0368233 37.9121 1.44165 39.3411 3.85818 39.6581C4.10886 39.6907 4.36182 39.7072 4.61512 39.7074C5.23699 39.7149 5.85367 39.6051 6.42517 39.3853C6.99666 39.1654 7.5102 38.8403 7.93246 38.4311C7.09891 39.1051 6.0126 39.4728 4.89004 39.461ZM98.9623 39.1966H95.9538H92.9142C92.7758 39.203 92.6374 39.1832 92.5082 39.1383C92.379 39.0935 92.2619 39.0246 92.1645 38.9362C92.0739 38.847 92.0053 38.7416 91.9631 38.627C91.921 38.5123 91.9062 38.391 91.9199 38.271C91.9199 38.239 91.9199 38.2077 91.9199 38.1765C91.9199 38.1453 91.9199 38.1248 91.9199 38.0993V35.1896C91.9199 31.6753 91.9199 28.0445 91.9098 24.4695C91.8927 24.2249 91.9565 23.9812 92.0931 23.7689C92.0379 23.8011 91.9866 23.8382 91.94 23.8798C91.6651 24.1262 91.6303 24.4547 91.6312 24.7159C91.6431 28.2884 91.6422 31.9217 91.6413 35.4359V38.3457C91.6413 38.3712 91.6413 38.3966 91.6413 38.4229C91.6413 38.4492 91.6413 38.4853 91.6413 38.5174C91.6276 38.6374 91.6424 38.7587 91.6845 38.8733C91.7267 38.988 91.7953 39.0933 91.8859 39.1826C91.9833 39.271 92.1005 39.3398 92.2297 39.3847C92.3589 39.4296 92.4972 39.4494 92.6356 39.4429H95.6752H98.6838C98.8183 39.4491 98.9528 39.4303 99.0789 39.388C99.205 39.3456 99.32 39.2804 99.4169 39.1966C99.4613 39.156 99.5009 39.1114 99.5351 39.0635C99.3622 39.1559 99.1635 39.202 98.9623 39.1966ZM52.9127 39.2031H52.8256C52.5122 39.1908 52.197 39.1842 51.8882 39.1842C51.5793 39.1842 51.265 39.1908 50.9599 39.2031C50.9287 39.2031 50.8994 39.2031 50.8682 39.2031C50.7256 39.2098 50.5829 39.1905 50.4489 39.1463C50.3148 39.1021 50.1922 39.034 50.0884 38.9461C49.8235 38.7079 49.7942 38.3917 49.7951 38.1741C49.8034 36.1496 49.8024 34.0907 49.8015 32.0966V30.2077C49.8015 29.7056 49.8015 29.2039 49.8015 28.7023C49.8015 27.2996 49.8015 25.8484 49.7924 24.4235C49.7786 24.1883 49.8423 23.9546 49.9756 23.7517C49.9192 23.7835 49.8669 23.821 49.8199 23.8634C49.5449 24.1098 49.5184 24.4383 49.5202 24.6699C49.533 26.0948 49.5312 27.5443 49.5294 28.9487C49.5294 29.4502 49.5294 29.952 49.5294 30.4541V32.343C49.5294 34.3338 49.5294 36.3927 49.5229 38.4205C49.5229 38.6381 49.5514 38.9543 49.8162 39.1925C49.92 39.2804 50.0426 39.3485 50.1767 39.3927C50.3107 39.4369 50.4534 39.4562 50.596 39.4495C50.6245 39.4495 50.6538 39.4495 50.6877 39.4495C50.9928 39.4372 51.3053 39.4306 51.616 39.4306C51.9266 39.4306 52.2401 39.4372 52.5535 39.4495H52.6405C52.7829 39.4563 52.9253 39.437 53.0591 39.3928C53.1928 39.3486 53.3151 39.2804 53.4185 39.1925C53.4638 39.1518 53.504 39.1069 53.5386 39.0586C53.3498 39.1598 53.1325 39.21 52.9127 39.2031ZM17.8753 26.9284H17.8506C17.5757 26.9284 17.3007 26.9234 17.0185 26.9234H16.4604V27.1698H16.7417C17.0231 27.1698 17.2989 27.1698 17.5738 27.1748H17.5986C17.734 27.1813 17.8694 27.1628 17.9965 27.1204C18.1236 27.078 18.2395 27.0127 18.3372 26.9284C18.381 26.8885 18.4197 26.8444 18.4527 26.797C18.2779 26.8887 18.0777 26.9342 17.8753 26.9284ZM24.1526 39.4479H24.1453C21.4291 39.4479 19.5221 37.7782 19.5083 35.3883C19.4918 32.596 19.4918 29.8275 19.5083 27.1698C19.5148 26.0792 19.939 25.1281 20.6566 24.4202C19.7732 25.1454 19.2408 26.1933 19.2334 27.4162C19.216 30.0739 19.216 32.8366 19.2334 35.6347C19.2472 38.0246 21.1578 39.6943 23.8704 39.6943H23.8777C25.321 39.6943 26.5352 39.2146 27.3527 38.4049C26.5471 39.0684 25.4411 39.4462 24.1526 39.4479ZM15.182 39.1949H15.1656C14.9878 39.1949 14.81 39.1949 14.6331 39.1949H14.1126C13.8441 39.1949 13.6251 39.1949 13.4235 39.2064C13.3932 39.2064 13.3639 39.2064 13.3318 39.2064C13.1894 39.213 13.047 39.1937 12.9132 39.1496C12.7793 39.1056 12.6568 39.0377 12.5529 38.9502C12.2881 38.7128 12.2588 38.3966 12.2597 38.1806C12.2679 35.2175 12.267 32.2042 12.267 29.2904V26.9234H11.7172C11.4129 26.9234 11.1673 26.9234 10.9382 26.9341H10.8613C10.5176 26.9341 10.2464 26.8421 10.0539 26.6623C9.75792 26.383 9.779 26.0053 9.78449 25.8804C9.81015 25.3951 9.80374 24.9064 9.78449 24.32C9.7702 24.1191 9.82316 23.9189 9.93661 23.7451C9.87771 23.7779 9.82354 23.8171 9.77533 23.8617C9.50041 24.118 9.50683 24.4531 9.50958 24.5631C9.52699 25.1479 9.5334 25.6365 9.50958 26.1235C9.50316 26.2475 9.483 26.6261 9.779 26.9054C9.97144 27.0852 10.2427 27.1772 10.5863 27.1772H10.6633C10.8906 27.1698 11.138 27.1665 11.4422 27.1665H11.9921V29.5293C11.9921 32.4432 11.9921 35.4565 11.9847 38.4196C11.9847 38.6356 12.0132 38.9518 12.278 39.1892C12.3818 39.2767 12.5044 39.3446 12.6382 39.3886C12.7721 39.4326 12.9145 39.452 13.0569 39.4454C13.0853 39.4454 13.1147 39.4454 13.1486 39.4454C13.3502 39.4372 13.5692 39.4339 13.8377 39.4339H14.3582C14.5351 39.4339 14.7129 39.4339 14.8906 39.4339H14.9071C15.3195 39.4339 15.6457 39.4339 15.9152 39.2015C15.965 39.1582 16.0084 39.1093 16.0444 39.0561C15.8043 39.1941 15.5229 39.1949 15.182 39.1949ZM33.0966 39.1949C32.9188 39.1949 32.7465 39.1949 32.5752 39.1949C32.4038 39.1949 32.2425 39.1949 32.0767 39.1949C31.8274 39.1949 31.624 39.1949 31.4352 39.2089H31.3124C31.1859 39.2089 30.8029 39.2089 30.5133 38.9485C30.2384 38.7022 30.2118 38.3736 30.2118 38.1511C30.2246 34.7469 30.2237 31.2861 30.2228 27.9385V25.175C30.2228 25.0928 30.2228 25.0066 30.2228 24.922C30.2128 24.6722 30.2196 24.4221 30.243 24.173C30.2649 24.0246 30.3279 23.8834 30.4262 23.7624C30.304 23.8382 30.2003 23.9355 30.1215 24.0485C30.0427 24.1615 29.9905 24.2877 29.968 24.4194C29.9446 24.6685 29.9379 24.9186 29.9479 25.1684C29.9479 25.2505 29.9479 25.3376 29.9479 25.4213V28.18C29.9479 31.5275 29.9479 34.9884 29.9369 38.3925C29.9369 38.6176 29.9671 38.9461 30.2384 39.19C30.528 39.4503 30.911 39.4503 31.0375 39.4503H31.1603C31.3435 39.4405 31.5506 39.4364 31.8017 39.4364C31.9676 39.4364 32.1344 39.4364 32.3003 39.4364C32.4661 39.4364 32.6439 39.4364 32.8217 39.4364C33.2441 39.4364 33.5777 39.4364 33.8471 39.2007C33.897 39.1574 33.9404 39.1085 33.9763 39.0553C33.7344 39.1941 33.4467 39.1949 33.0966 39.1949ZM47.506 39.2023H47.4849C46.464 39.1941 45.5156 39.19 44.5836 39.19C43.6177 39.19 42.672 39.19 41.7712 39.2031H41.7428C41.5018 39.2031 41.1508 39.1752 40.8823 38.9346C40.6138 38.6939 40.5808 38.3794 40.5817 38.133C40.5918 35.0705 40.5918 31.9562 40.5909 28.9446V26.3921C40.5909 26.1917 40.5909 25.9918 40.5909 25.7926C40.5909 25.3195 40.5964 24.83 40.5835 24.3537C40.5694 24.1446 40.6249 23.9365 40.743 23.7558C40.6848 23.7891 40.631 23.8282 40.5826 23.8724C40.2958 24.136 40.3077 24.4851 40.3077 24.6001C40.3205 25.0764 40.3178 25.5659 40.315 26.0389C40.315 26.2382 40.315 26.4381 40.315 26.6385V29.191C40.315 32.2026 40.315 35.3169 40.3059 38.3794C40.3059 38.6258 40.3389 38.9395 40.6064 39.181C40.874 39.4224 41.2259 39.4495 41.4669 39.4495H41.4953C42.3962 39.4405 43.3419 39.4364 44.3078 39.4364C45.2397 39.4364 46.1882 39.4364 47.2091 39.4487H47.2301C47.3658 39.4487 47.78 39.4487 48.076 39.1727C48.1167 39.1346 48.153 39.0928 48.1841 39.0479C47.979 39.1561 47.7438 39.2097 47.506 39.2023ZM38.0671 39.2023C38.0387 39.2023 38.0085 39.2023 37.9755 39.2023C37.7006 39.1908 37.4128 39.1851 37.104 39.1851C36.7952 39.1851 36.4964 39.19 36.1509 39.2007H36.0868C35.9472 39.2069 35.8075 39.1876 35.6765 39.144C35.5454 39.1004 35.4256 39.0333 35.3244 38.9469C35.0375 38.6874 35.0403 38.3309 35.0412 38.2135C35.0494 37.1762 35.0476 36.1201 35.0467 35.0984C35.0467 34.7288 35.0467 34.3593 35.0467 33.9897V33.8731C35.0467 33.7909 35.0467 33.7088 35.0467 33.6267C35.0421 33.2785 34.9908 33.2029 34.9844 33.1955C34.978 33.1881 34.8927 33.1372 34.4776 33.106L34.3951 33.0994V33.3704C34.6471 33.4017 34.7058 33.4394 34.7095 33.4419C34.7131 33.4444 34.7672 33.524 34.7718 33.8731C34.7718 33.9552 34.7718 34.0373 34.7718 34.1194V34.2361C34.7718 34.6056 34.7718 34.9752 34.7718 35.3448C34.7718 36.3664 34.7718 37.4226 34.7663 38.4599C34.7663 38.5773 34.7663 38.9338 35.0494 39.1933C35.1507 39.2797 35.2705 39.3468 35.4016 39.3904C35.5326 39.434 35.6722 39.4533 35.8119 39.447H35.876C36.2215 39.4364 36.5331 39.4314 36.8291 39.4314C37.1251 39.4314 37.4229 39.4372 37.7006 39.4487C37.7317 39.4487 37.762 39.4487 37.7922 39.4487C37.9339 39.4553 38.0755 39.436 38.2085 39.3917C38.3415 39.3475 38.4631 39.2794 38.5656 39.1916C38.6111 39.1512 38.6514 39.1063 38.6857 39.0578C38.5 39.1584 38.2859 39.2088 38.069 39.2031L38.0671 39.2023Z" fill="#C3986A"/><path d="M58.5811 24.5044C58.5674 27.6253 58.5729 30.7461 58.5729 33.8669C58.5729 35.3321 58.5646 36.7964 58.5793 38.2607C58.5793 38.5893 58.4812 38.7264 58.089 38.7108C57.4475 38.6845 56.806 38.6845 56.1646 38.7108C55.7669 38.7272 55.6789 38.5851 55.6816 38.2575C55.6963 36.5607 55.6881 34.8631 55.6881 33.1656V32.6728H53.3329V33.127C53.3329 34.8377 53.3247 36.5484 53.3403 38.2591C53.3403 38.5876 53.2486 38.7256 52.8546 38.71C52.2131 38.6845 51.5716 38.6837 50.9301 38.71C50.5352 38.7264 50.4371 38.5893 50.439 38.2591C50.449 35.6039 50.4445 32.9487 50.4445 30.2928C50.4445 28.3628 50.4536 26.4328 50.4362 24.5036C50.4362 24.1283 50.5517 23.9928 50.986 24.0158C51.5809 24.0461 52.1772 24.0461 52.7721 24.0158C53.2019 23.9952 53.3531 24.1036 53.3467 24.5085C53.3219 26.2603 53.3366 28.0121 53.3366 29.7647V30.2279H55.6926V29.7655C55.6926 28.0137 55.7073 26.2611 55.6826 24.5093C55.6771 24.0987 55.8264 23.9903 56.2571 24.0116C56.852 24.0424 57.4483 24.0424 58.0432 24.0116C58.4711 23.9928 58.5829 24.1316 58.5811 24.5044ZM69.2818 31.4097H69.2882C69.2882 32.7098 69.2745 34.0107 69.2882 35.3107C69.3286 38.6656 65.772 39.5707 63.4114 38.5958C61.991 38.0078 61.3312 36.9163 61.312 35.5571C61.2716 32.7648 61.2716 29.9725 61.312 27.1801C61.334 25.1844 63.0091 23.7727 65.2763 23.7653C67.5599 23.7571 69.2232 25.1384 69.2763 27.1374C69.3121 28.5623 69.2818 29.9864 69.2818 31.4097ZM66.364 31.3629C66.364 29.9667 66.375 28.5705 66.364 27.1744C66.3567 26.5026 65.9544 26.1437 65.2891 26.1502C64.6238 26.1568 64.2398 26.5305 64.2307 27.1949C64.2252 27.5908 64.2307 27.9883 64.2307 28.3849C64.2307 30.7507 64.2307 33.1171 64.2307 35.484C64.2307 35.9234 64.3452 36.3053 64.8446 36.4893C65.6263 36.78 66.3484 36.3685 66.3622 35.5859C66.3814 34.1807 66.364 32.7714 66.364 31.3629ZM28.1248 31.3785C28.1248 32.7336 28.1248 34.0887 28.1248 35.443C28.1175 37.5372 26.5147 38.9523 24.1531 38.9547C21.7916 38.9572 20.1632 37.5586 20.1513 35.4668C20.1348 32.7292 20.1348 29.9916 20.1513 27.254C20.1641 25.1902 21.8356 23.7562 24.1715 23.7669C26.478 23.7776 28.112 25.2263 28.1239 27.2713C28.1294 28.6379 28.1248 30.0094 28.1248 31.3785ZM25.2052 35.4848C25.2015 32.7352 25.2015 29.9859 25.2052 27.2368C25.2052 27.1686 25.2052 27.1005 25.1987 27.0323C25.1529 26.4878 24.758 26.156 24.1522 26.1511C23.497 26.1461 23.0837 26.5067 23.0782 27.1366C23.0672 28.5451 23.0782 29.9536 23.0782 31.3629C23.0782 32.7722 23.0681 34.1807 23.0828 35.5891C23.091 36.3595 23.8159 36.7833 24.6013 36.4925C25.0961 36.3061 25.2061 35.9275 25.2052 35.4865V35.4848ZM37.2145 31.578C37.9687 31.1485 38.4058 30.5777 38.4159 29.8328C38.4379 28.6716 38.4645 27.5045 38.3655 26.349C38.2619 25.1516 37.2777 24.2137 35.9508 24.1168C34.3581 24.001 32.7498 24.0429 31.148 24.0346C31.0563 24.0346 30.8914 24.2071 30.8795 24.3106C30.8565 24.6244 30.8519 24.9391 30.8657 25.2534C30.8657 29.5782 30.8712 33.9022 30.8556 38.2295C30.8556 38.618 30.9885 38.7297 31.4055 38.7092C31.9691 38.6812 32.5354 38.7018 33.0999 38.7018C33.7588 38.7018 33.7597 38.7018 33.7597 38.1269V26.3104C34.184 26.3104 34.5606 26.3104 34.9382 26.3104C35.3157 26.3104 35.5567 26.5009 35.5613 26.8368C35.5751 27.8757 35.576 28.9155 35.554 29.9536C35.5466 30.2969 35.3056 30.4997 34.907 30.5285C34.7888 30.5358 34.6715 30.5539 34.5405 30.5687V32.6219C35.4633 32.6909 35.6859 32.9085 35.6969 33.7092C35.6969 33.8324 35.6969 33.9556 35.6969 34.0788C35.6969 35.4881 35.7034 36.8974 35.6924 38.3067C35.6924 38.6032 35.7904 38.7248 36.1377 38.7174C36.7636 38.6977 37.3914 38.6927 38.0154 38.7174C38.415 38.7338 38.4993 38.5884 38.4956 38.2624C38.4791 36.8531 38.458 35.4421 38.4956 34.0337C38.5222 33.021 38.2995 32.1538 37.2145 31.5797V31.578ZM79.4171 24.0199C78.8068 24.033 78.1956 24.0199 77.5843 24.024C76.9731 24.0281 76.985 24.024 76.985 24.5734C76.985 28.1323 76.985 31.6911 76.985 35.25C76.9903 35.4417 76.9845 35.6336 76.9676 35.8248C76.9108 36.3053 76.5772 36.564 76.0109 36.5845C75.3914 36.6067 75.0368 36.3915 74.9387 35.9078C74.8998 35.6906 74.8826 35.4707 74.8874 35.2508C74.8837 31.6919 74.8837 28.1331 74.8874 24.5742C74.8874 24.0223 74.8874 24.0215 74.2533 24.0215C73.6732 24.0215 73.0913 24.0453 72.5121 24.0133C72.0823 23.9903 71.9623 24.1258 71.9623 24.5011C71.9797 26.3761 71.9705 28.2511 71.9705 30.126C71.9705 31.8647 71.9705 33.6025 71.9705 35.3403C71.9627 35.6821 71.9953 36.0238 72.0677 36.3595C72.5066 38.1408 74.4045 39.2184 76.5342 38.9153C78.4586 38.641 79.7809 37.437 79.7919 35.8314C79.8194 32.0133 79.8002 28.1936 79.8084 24.3763C79.813 24.1094 79.714 24.0141 79.4171 24.0199ZM87.5519 30.6722C87.0021 30.1384 86.4587 29.6045 85.9455 29.0436C85.3982 28.4602 85.1284 27.7076 85.1941 26.9477C85.2326 26.4163 85.5716 26.0952 86.1269 26.0599C86.7455 26.0205 87.1148 26.2595 87.2385 26.8089C87.2844 27.0373 87.3055 27.2692 87.3018 27.5012C87.3091 28.6822 87.3018 28.6822 88.6085 28.6822C88.9449 28.6822 89.2803 28.6765 89.6166 28.6822C89.8713 28.6872 89.9749 28.5853 89.9703 28.3611C89.9602 27.8955 89.9868 27.429 89.9529 26.9649C89.82 25.1384 88.56 23.9377 86.63 23.7768C84.614 23.6084 82.9975 24.5808 82.5063 26.2726C82.2374 27.1787 82.3017 28.1383 82.6896 29.0091C83.1945 30.1655 84.0522 31.1009 84.9805 31.9994C85.5233 32.517 86.0366 33.0589 86.5182 33.623C87.0106 34.1929 87.2668 34.8983 87.2431 35.6187C87.2239 36.3316 86.8637 36.6987 86.1389 36.725C85.414 36.7512 84.9677 36.3636 84.9329 35.6573C84.9118 35.2343 84.9457 34.8081 84.9072 34.3868C84.8972 34.2759 84.7166 34.0936 84.6067 34.0895C83.9212 34.0616 83.2321 34.064 82.5475 34.0895C82.4366 34.0895 82.2405 34.2538 82.2414 34.3359C82.2497 35.0175 82.2057 35.7148 82.3487 36.3776C82.7042 38.0267 84.1659 38.9695 86.1975 38.9555C88.1219 38.9424 89.6459 37.8879 89.9437 36.2347C90.0631 35.5217 90.0432 34.7956 89.8851 34.0887C89.5891 32.7098 88.5811 31.6766 87.5519 30.6722ZM6.16252 30.6089C5.67408 30.0505 5.10409 29.5503 4.60465 28.9992C4.08486 28.4315 3.8257 27.7076 3.87979 26.9748C3.91369 26.3958 4.28483 26.0714 4.88782 26.0591C5.50455 26.0418 5.88669 26.3219 5.9545 26.905C5.99835 27.3693 6.01364 27.8354 6.00032 28.3012C6.00032 28.573 6.08096 28.7019 6.41453 28.6921C7.02546 28.6746 7.63639 28.6746 8.24731 28.6921C8.5763 28.7011 8.67985 28.5771 8.66702 28.3028C8.6432 27.7838 8.66702 27.2622 8.61662 26.7424C8.46358 25.1179 7.25669 24.0092 5.43765 23.7924C3.59296 23.5723 1.93978 24.4182 1.3423 25.9129C0.895095 27.0315 0.967491 28.1435 1.49442 29.2292C2.02134 30.3149 2.85434 31.2003 3.73775 32.0552C4.29115 32.5837 4.81124 33.1395 5.29561 33.7199C5.7633 34.2872 5.99624 34.9826 5.9545 35.6869C5.92518 36.3349 5.54762 36.6913 4.86125 36.7241C4.17487 36.757 3.7295 36.4112 3.64977 35.7534C3.62947 35.5766 3.61968 35.3989 3.62045 35.2212C3.6122 34.0714 3.61312 34.0714 2.31642 34.0714C1.98102 34.0714 1.64471 34.078 1.30839 34.0714C1.0408 34.064 0.917091 34.1536 0.926255 34.4073C0.940001 34.79 0.926254 35.1736 0.930836 35.5571C0.959244 37.4543 2.13864 38.655 4.23535 38.9243C6.40903 39.206 8.23723 38.1031 8.67619 36.2223C8.93278 35.1251 8.81273 34.0369 8.185 33.0802C7.60126 32.2047 6.86448 31.4113 6.16252 30.6089ZM98.8181 24.0199C96.9248 24.033 95.0306 24.0388 93.1364 24.0199C92.6663 24.0141 92.5463 24.1439 92.5481 24.5553C92.5637 29.0986 92.5582 33.6427 92.5582 38.1885C92.5582 38.2566 92.5582 38.3248 92.5582 38.393C92.5435 38.6205 92.6618 38.7116 92.9138 38.7108C94.9298 38.7075 96.9459 38.7075 98.962 38.7108C99.214 38.7108 99.3212 38.6172 99.3175 38.3913C99.3093 37.9807 99.3175 37.5701 99.3175 37.1594C99.3038 36.1879 99.4834 36.3028 98.336 36.2971C97.3922 36.2922 96.4483 36.2971 95.4879 36.2971V26.3786C96.6453 26.3786 97.7578 26.3703 98.8703 26.3835C99.2057 26.3876 99.3358 26.2858 99.3285 25.9794C99.3083 25.4735 99.3028 24.966 99.3285 24.4609C99.3404 24.1127 99.192 24.0149 98.8181 24.0182V24.0199ZM47.4515 36.2823C46.5205 36.302 45.5885 36.2897 44.6574 36.2872C44.4952 36.2872 44.3339 36.2749 44.1662 36.2675V26.3786C45.32 26.3786 46.4187 26.3703 47.5175 26.3835C47.8428 26.3876 47.9949 26.3079 47.983 25.9926C47.9638 25.4587 47.9665 24.9249 47.983 24.3911C47.9922 24.0987 47.8538 24.0182 47.545 24.0199C45.59 24.0281 43.635 24.0281 41.6801 24.0199C41.3456 24.0199 41.2173 24.1135 41.2219 24.4215C41.2411 25.1056 41.2274 25.7897 41.2274 26.4746C41.2274 30.3888 41.2329 34.303 41.2191 38.2189C41.2191 38.5925 41.3291 38.7174 41.7598 38.7116C43.6689 38.6925 45.5778 38.6925 47.4863 38.7116C47.8758 38.7116 47.9949 38.5942 47.9794 38.2607C47.9564 37.7557 47.9509 37.2473 47.9794 36.7422C48.0087 36.3652 47.8391 36.2757 47.4515 36.2823ZM17.8355 24.0207C15.4987 24.0273 13.1619 24.0273 10.8251 24.0207C10.5227 24.0207 10.4256 24.125 10.4329 24.3878C10.4485 24.9208 10.4586 25.4554 10.4329 25.9885C10.4146 26.3285 10.5365 26.4525 10.9213 26.4393C11.5738 26.4172 12.2281 26.4328 12.9173 26.4328V26.9674C12.9173 30.7316 12.9151 34.4955 12.9108 38.2591C12.9108 38.5958 13.0144 38.7239 13.4011 38.7083C13.9958 38.6845 14.5924 38.7018 15.1881 38.7018C15.8295 38.7018 15.8295 38.7018 15.8295 38.1449V26.4328C16.5627 26.4328 17.2142 26.427 17.8685 26.4328C18.1434 26.4328 18.2497 26.3506 18.2433 26.0969C18.2287 25.522 18.2268 24.9471 18.2433 24.3722C18.2442 24.1012 18.1224 24.0199 17.8355 24.0207ZM97.8439 30.0291C97.3161 30.0012 96.7864 30.016 96.2348 30.016V32.226C96.7782 32.226 97.2941 32.2425 97.8073 32.2129C97.9218 32.2063 98.1124 32.0388 98.1179 31.9378C98.1491 31.3933 98.1473 30.8463 98.1179 30.3018C98.1115 30.2032 97.9429 30.034 97.8412 30.0291H97.8439ZM46.5177 30.0291C45.9899 30.0053 45.4602 30.0176 44.9058 30.0176V32.2268C45.4721 32.2268 46.0054 32.2392 46.5333 32.2154C46.5963 32.1994 46.6536 32.1693 46.7 32.1279C46.7464 32.0865 46.7801 32.0352 46.7981 31.9788C46.8219 31.4039 46.8219 30.829 46.7981 30.2599C46.7935 30.1745 46.6167 30.034 46.5186 30.0275L46.5177 30.0291Z" fill="#0A0406"/></g><path d="M38.2494 6.69376V6.89943L38.2458 6.89932C38.1695 6.89735 36.8922 6.88356 36.8922 8.17562V14.0154C36.8922 14.9224 37.3729 16.5812 39.7422 16.5812C41.7967 16.5812 42.3961 14.7841 42.3961 13.6479V8.18067C42.3961 7.02419 41.1408 6.9028 40.924 6.9028V6.69713H44.69V6.9028C44.4902 6.9028 43.1821 7.06465 43.1821 8.18067V13.3191C43.1821 14.4655 43.1029 17.2674 39.1447 17.2674C35.1525 17.2674 34.7755 14.9493 34.7755 14.1384V8.17562C34.7755 6.88356 33.4982 6.89735 33.422 6.89932L33.4184 6.89943V6.69376H38.2494ZM26.9457 4.45159C28.9079 4.39595 29.9879 5.17144 30.6571 5.17144C30.9341 5.19116 31.2061 5.09682 31.3959 4.91519H31.5844V8.24136H31.2376C31.2376 8.24136 31.0359 6.84886 29.8843 5.96547C28.7326 5.08209 27.2473 5.11244 26.908 5.14447C26.3407 5.19842 22.9328 5.49007 22.9328 10.8645C22.9328 16.239 25.9241 16.4278 26.8666 16.4278C27.8556 16.4335 28.8296 16.2105 29.6939 15.7805V15.4601C29.6969 15.4107 29.6969 15.3612 29.6939 15.3118V12.5875C29.6939 11.3949 28.5861 11.3328 28.3877 11.3312L28.3653 11.3313C28.3636 11.3313 28.3622 11.3314 28.361 11.3314L28.3575 11.3315V11.1292H33.1639V11.3315L33.1604 11.3314C33.1593 11.3314 33.1579 11.3313 33.1562 11.3313L33.1337 11.3312C32.9353 11.3328 31.8276 11.3949 31.8276 12.5875V16.9926C31.1528 16.6976 30.297 16.7549 29.6769 16.8527C29.4357 16.9133 29.1605 16.9707 28.8702 17.0212H28.8136C28.578 17.0701 28.3575 17.0819 28.1539 17.114H28.1332C27.6816 17.1627 27.2272 17.1869 26.7723 17.1865C23.487 17.1865 20.1602 14.9207 20.1602 11.1292C20.1602 7.23492 22.963 4.56791 26.9457 4.45159ZM95.3575 6.3431C97.1085 6.3431 97.3234 6.8792 97.9379 6.8792C98.1313 6.88689 98.3178 6.81406 98.443 6.68196H98.6485L98.6636 9.08934H98.4581C98.309 8.6345 98.0597 8.21092 97.7249 7.84351C97.1633 7.23156 96.3178 6.88516 95.4329 6.90449C94.4 6.90449 93.2276 7.53837 93.2276 8.64934C93.2276 10.1295 95.3575 10.4566 96.2245 10.7448C97.1971 11.0702 99.3365 11.817 99.3365 13.9277C99.3365 16.0384 97.412 17.06 95.8551 17.06C94.3792 17.06 93.6366 16.4784 92.9166 16.5256C92.6371 16.5478 92.3907 16.6985 92.2663 16.9235H92.0137V13.4607H92.2738C92.417 14.1052 92.7348 14.7084 93.1993 15.2174C93.9174 15.9507 94.6054 16.3654 95.8381 16.3654C97.0708 16.3654 97.9982 15.7282 97.9982 14.6257C97.9982 13.5231 96.7466 12.9145 95.1275 12.4341C93.6479 11.9941 91.8742 11.1697 91.8742 9.44843C91.8742 7.72718 93.6064 6.3431 95.3575 6.3431ZM87.0697 6.3431C88.8207 6.3431 89.0356 6.8792 89.6501 6.8792C89.8435 6.88689 90.03 6.81406 90.1552 6.68196H90.3625L90.3757 9.08934H90.1703C90.0216 8.63435 89.7723 8.21069 89.4371 7.84351C88.8755 7.23156 88.03 6.88516 87.1451 6.90449C86.114 6.90449 84.9398 7.53837 84.9398 8.64934C84.9398 10.1295 87.0697 10.4566 87.9367 10.7448C88.9093 11.0702 91.0486 11.817 91.0486 13.9277C91.0486 16.0384 89.1242 17.06 87.5673 17.06C86.0914 17.06 85.3488 16.4784 84.6287 16.5256C84.3493 16.5478 84.1029 16.6985 83.9785 16.9235H83.7259V13.4607H83.986C84.1292 14.1052 84.447 14.7083 84.9115 15.2174C85.6296 15.9507 86.3176 16.3654 87.5503 16.3654C88.783 16.3654 89.7066 15.7333 89.7066 14.6307C89.7066 13.5282 88.4551 12.9196 86.8359 12.4391C85.3563 11.9991 83.5807 11.1781 83.5807 9.45349C83.5807 7.72887 85.3186 6.3431 87.0697 6.3431ZM62.1987 6.69376V6.89943C62.1987 6.89943 60.7266 7.06127 60.7266 8.1773V16.9336H60.0348L60.0265 16.9233C59.757 16.5913 53.0199 8.2886 52.959 8.20765C52.0222 6.97698 51.01 6.90112 51.01 6.90112V6.69882H54.5913L59.9425 13.3613V8.17899C59.9425 7.0225 58.4345 6.90112 58.4345 6.90112V6.69545L58.4289 6.69376H62.1987ZM73.8058 6.69376V6.89943C73.8058 6.89943 72.3337 7.06127 72.3337 8.1773V16.9336H71.6419C71.6419 16.9336 64.6283 8.29025 64.5661 8.20765C63.6293 6.97698 62.6171 6.90112 62.6171 6.90112V6.69882H66.1984L71.5439 13.3613V8.17899C71.5439 7.0225 70.036 6.90112 70.036 6.90112V6.69545V6.69376H73.8058ZM82.071 6.69713V8.6662H81.9013C81.9013 8.6662 81.8674 8.1419 81.1775 7.68672C80.7181 7.38129 79.7805 7.35025 79.1281 7.34881L78.9929 7.34887C78.9061 7.34909 78.8262 7.34955 78.7555 7.34955H77.5661V11.0213L78.513 11.0212C78.955 11.0197 79.9857 10.9922 80.3067 10.7769C80.624 10.563 80.8286 10.2416 80.8722 9.88843H81.0456V12.955H80.8722C80.8188 12.6117 80.6155 12.3013 80.3067 12.0918C79.9429 11.8373 78.8836 11.8137 78.4708 11.8137H77.5661V16.2087H79.4943C80.4688 16.2087 81.1606 15.9002 81.6299 15.4332C81.9343 15.0973 82.1414 14.6995 82.2331 14.275H82.5252L81.9861 16.9302H74.4975V16.7262C74.4975 16.7262 74.5001 16.7263 74.505 16.7264L74.5264 16.7265C74.7128 16.725 75.7378 16.662 75.7378 15.4635V8.15539C75.7378 6.97839 74.7466 6.9034 74.5364 6.90073L74.5106 6.90075C74.5063 6.90082 74.5031 6.90091 74.5009 6.90099L74.4975 6.90112V6.69713H82.071ZM49.93 6.69545V6.89943L49.9266 6.89932C49.8559 6.89732 48.6897 6.88375 48.6897 8.16213V15.4601C48.6897 16.6586 49.7147 16.7216 49.9011 16.7232L49.9225 16.7231C49.9274 16.723 49.93 16.7228 49.93 16.7228V16.9285H45.5137V16.7228C45.5137 16.7228 45.5163 16.723 45.5211 16.7231L45.5426 16.7232C45.7289 16.7216 46.7539 16.6586 46.7539 15.4601V8.16213C46.7539 6.88375 45.5877 6.89732 45.517 6.89932L45.5137 6.89943V6.69545H49.93ZM52.5424 8.41501L53.3359 9.42651V15.4618C53.3359 16.6166 54.8344 16.7178 54.8344 16.7178V16.9235H51.0647V16.7178C51.0647 16.7178 52.5424 16.5694 52.5424 15.4534V8.41501ZM64.1457 8.41501L64.9393 9.42651V15.4618C64.9393 16.6166 66.4378 16.7178 66.4378 16.7178V16.9235H62.668V16.7178C62.668 16.7178 64.1457 16.5694 64.1457 15.4534V8.41501Z" fill="#0A0406"/><path d="M0 3.00496C0 2.03729 1.36088 -0.634773 6.64043 1.03758C11.92 2.70994 14.9546 1.65797 16.2741 0.543632C16.2741 0.543632 17.1656 1.50119 17.8215 3.22075C17.373 3.61361 16.912 3.92102 16.4445 4.15668L16.4437 4.15134C17.4804 11.2319 14.0556 15.0419 12.4478 16.9638C11.1698 18.4507 11.0793 19.1098 11.5336 19.7488C9.8617 20.3928 8.38018 20.0455 7.81471 19.9359C7.59296 19.6493 7.42038 19.3347 7.30271 19.0025C6.94406 19.2422 6.69037 19.383 6.582 19.4571C6.56431 19.4714 6.53957 19.4763 6.51681 19.4701C6.49405 19.4638 6.47659 19.4474 6.4708 19.4268C4.93839 16.281 3.78673 10.8492 2.19589 5.32131C2.03756 4.77341 1.81891 4.75318 1.6775 4.74307C1.67668 4.74244 1.68736 4.74138 1.70781 4.73933C0.167312 4.61151 0 3.49099 0 3.00496ZM14.2332 4.78737L14.2075 4.78965L9.89774 13.5747C10.3131 14.1522 10.8046 14.6955 11.2897 14.9034L11.2942 14.8969C14.7447 10.4445 14.253 5.32856 14.2332 4.78737ZM13.9504 4.80853C13.7241 4.82076 13.4989 4.82201 13.2752 4.81379L9.37204 12.7704C9.48583 12.9603 9.61365 13.1631 9.75196 13.3663L13.9504 4.80853ZM12.394 4.73444L8.88391 11.8876C8.95255 12.0233 9.07473 12.2577 9.23623 12.5389L13.0308 4.80107C12.8166 4.78668 12.6041 4.76403 12.394 4.73444ZM11.5489 4.57825L8.40958 10.9769C8.54611 11.2414 8.66363 11.4664 8.75605 11.6398L12.1603 4.6986C11.9538 4.66436 11.7498 4.6238 11.5489 4.57825ZM10.7329 4.36361L7.93898 10.0582C8.06075 10.2973 8.17587 10.5226 8.28206 10.7293L11.325 4.52517C11.1241 4.47547 10.9265 4.42116 10.7329 4.36361ZM9.93842 4.1042L7.47011 9.13413C7.58752 9.36624 7.70198 9.59206 7.81196 9.80851L10.5165 4.29743C10.319 4.23546 10.1261 4.17054 9.93842 4.1042ZM9.15929 3.81233L7.00261 8.20785C7.11743 8.4358 7.23138 8.66172 7.3432 8.88307L9.72653 4.02798C9.53103 3.95645 9.34168 3.88396 9.15929 3.81233ZM8.39205 3.50352L6.53754 7.28311C6.62204 7.45136 6.70696 7.62034 6.79182 7.78906L6.87629 7.95695L8.95024 3.72948C8.74148 3.64606 8.54286 3.56483 8.35568 3.4888L8.39205 3.50352ZM7.62615 3.18584L6.07131 6.3536C6.18239 6.5753 6.29601 6.80191 6.41091 7.03085L8.18233 3.41648C7.98686 3.33502 7.80172 3.25823 7.62615 3.18584ZM6.85641 2.87212L5.60565 5.42325C5.71421 5.64034 5.82784 5.86745 5.94498 6.10139L7.41851 3.10045C7.21843 3.0184 7.03149 2.94244 6.85641 2.87212ZM6.087 2.57043L5.14251 4.49621C5.24548 4.70249 5.35853 4.92886 5.47923 5.17036L6.64705 2.78848C6.44416 2.70789 6.25827 2.63548 6.087 2.57043ZM3.43587 1.99518L3.33624 1.99502L3.34645 1.99966C3.5964 2.10954 3.99856 2.24565 4.53691 3.28144C4.53691 3.28144 4.61537 3.43912 4.75144 3.71215L4.80889 3.82741C4.86964 3.94928 4.93926 4.08889 5.01639 4.24348L5.87587 2.49123C4.98064 2.1599 4.51559 2.04986 4.0585 2.01332L3.99922 2.00898C3.82129 1.99712 3.64181 1.99543 3.43587 1.99518ZM2.0074 2.65431L1.96749 2.65542C1.95437 2.65614 1.9413 2.6572 1.92832 2.65862C1.92788 2.65853 1.9275 2.65857 1.92712 2.65861C1.77087 2.67573 1.62455 2.7432 1.51733 2.84987C1.51529 2.85114 1.51326 2.85242 1.51123 2.8537C1.40714 2.95855 1.34392 3.09654 1.34392 3.24773C1.34392 3.57546 1.64097 3.84114 2.0074 3.84114C2.37383 3.84114 2.67088 3.57546 2.67088 3.24773C2.67088 2.91999 2.37383 2.65431 2.0074 2.65431Z" fill="#FCC978"/><path d="M9.11526 19.553C9.09183 19.5978 9.04997 19.6329 8.99839 19.6508C8.79294 19.7185 8.57643 19.7555 8.35753 19.7604C8.47817 19.7182 8.60068 19.6778 8.7232 19.6424C8.8512 19.6038 8.98225 19.574 9.11526 19.553ZM9.2717 19.2647L9.24045 19.3253C9.20891 19.3859 9.17604 19.4472 9.13787 19.5142C8.99253 19.5356 8.84942 19.5678 8.71001 19.6103C8.55733 19.6558 8.40843 19.7081 8.27083 19.7536C8.12292 19.7519 7.97614 19.7303 7.83542 19.6896L7.81469 19.666C7.93532 19.6255 8.06349 19.5817 8.19166 19.5378C8.36884 19.4839 8.53471 19.4215 8.7232 19.3692C8.90064 19.3147 9.08482 19.2796 9.2717 19.2647ZM9.43003 18.9764C9.37914 19.0607 9.33579 19.1366 9.2962 19.2125H9.2717C9.07889 19.228 8.88897 19.2648 8.70624 19.322C8.52529 19.3743 8.34999 19.4384 8.1747 19.5007C8.04464 19.5479 7.91459 19.5935 7.78264 19.6339C7.72798 19.5648 7.67898 19.4957 7.63562 19.4333H7.65447C7.83731 19.3878 8.0126 19.3187 8.18978 19.2647C8.36696 19.2108 8.53283 19.1484 8.72132 19.0961C8.89866 19.041 9.08284 19.0053 9.26982 18.9899C9.32279 18.982 9.37634 18.9775 9.43003 18.9764ZM2.12989 2.04383C2.5144 1.95617 3.55297 1.78758 4.22399 3.13626L4.89689 4.48493L4.77438 4.73275L4.89689 4.98394L5.18339 4.40064L5.3323 4.31972L5.54341 4.6316L5.09481 4.87436L5.36246 5.40877L5.23429 5.67177L5.35869 5.92801L5.66215 5.30762L5.80918 5.22839L6.01274 5.54027L5.54718 5.79146L5.82048 6.33767L5.68477 6.61584L5.80918 6.87209L6.1183 6.23315L6.26343 6.1556L6.49527 6.49277L6.01651 6.75239C6.10699 6.93952 6.1805 7.08956 6.27474 7.27669L6.13149 7.56834L6.25589 7.82459L6.59517 7.13508L6.73654 7.05753L6.98157 7.42504L6.48773 7.69141C6.58386 7.87348 6.64606 8.00835 6.74031 8.19716L6.5914 8.5023L6.7158 8.75686L7.07016 8.03532L7.20964 7.95946L7.45845 8.34214L6.9533 8.61525C7.0532 8.80912 7.11163 8.9305 7.20776 9.121L7.0532 9.43626L7.17948 9.68913L7.55646 8.93893L7.69406 8.86475L7.96548 9.26767L7.44902 9.54752C7.54892 9.74476 7.59793 9.85603 7.69406 10.0432L7.56211 10.3753L7.6884 10.6265L8.06538 9.85603L8.20109 9.78185L8.47063 10.1932L7.94286 10.4781C8.04653 10.6804 8.08611 10.7765 8.18035 10.9586V10.9737L8.02202 11.2974L8.1502 11.5436L8.52717 10.7647L8.661 10.6922L8.92677 11.1086L8.39335 11.3969C8.50455 11.6127 8.54979 11.7003 8.63838 11.8689V11.8858L8.48759 12.1943L8.61576 12.4421L8.99274 11.6717L9.12468 11.6009L9.3961 12.0223L8.86457 12.3089C8.91169 12.3915 8.88342 12.341 8.91169 12.3915C8.97954 12.5129 9.05305 12.6377 9.12845 12.7641L8.97012 13.0861C9.0141 13.1603 9.05997 13.2361 9.10772 13.3137L9.46773 12.5787L9.59778 12.5079L9.86544 12.9091L9.38102 13.1704C9.48658 13.3356 9.53935 13.4115 9.65245 13.5699L9.496 13.8886C9.53998 13.9425 9.58522 13.9987 9.63171 14.0572L9.65622 14.0673L9.9446 13.4806L10.0728 13.4115L10.2839 13.7234L9.9201 13.9189C10.3649 14.4752 10.8456 14.8967 11.2923 14.9068L11.2549 14.9047C11.3786 14.7506 11.4487 14.6607 11.4487 14.6607C10.9568 15.5036 11.1415 15.9133 10.4686 16.6837C15.0734 12.8535 16.1006 9.23564 16.4097 5.69537C16.4515 6.52332 16.4225 7.35292 16.323 8.17693H16.2816L16.2608 8.26291L16.3117 8.24942C16.3029 8.31573 16.2935 8.38204 16.2835 8.44835L16.2099 8.4669L16.1873 8.55119L16.2721 8.53096C16.2627 8.60008 16.2514 8.66582 16.2401 8.73326L16.1308 8.75855L16.1082 8.84284L16.2269 8.81755L16.1892 9.01985L16.0478 9.04851L16.0233 9.12943L16.1741 9.10246C16.1616 9.17102 16.1477 9.23901 16.1327 9.30645C16.0742 9.31825 16.0158 9.33679 15.9574 9.33679L15.931 9.41603C15.9943 9.40998 16.0572 9.40098 16.1195 9.38905C16.1044 9.45817 16.0893 9.52561 16.0723 9.59304C16.0039 9.60578 15.9347 9.61479 15.865 9.62001L15.8367 9.69756C15.9089 9.69392 15.9806 9.68603 16.0516 9.67396C16.034 9.74252 16.0164 9.81051 15.9988 9.87795C15.9216 9.88955 15.8434 9.89575 15.7651 9.89649L15.7368 9.97067H15.7689C15.8395 9.97056 15.9101 9.96605 15.98 9.95718C15.9611 10.0263 15.9423 10.0937 15.9234 10.1612C15.8721 10.1666 15.8205 10.1694 15.7689 10.1696H15.6596L15.6313 10.2421C15.6778 10.2442 15.7243 10.2442 15.7708 10.2421H15.9027C15.8826 10.3106 15.8619 10.3781 15.8405 10.4444H15.7689C15.6963 10.4445 15.6238 10.4394 15.5521 10.4292L15.522 10.5C15.6035 10.5129 15.6861 10.5197 15.7689 10.5203H15.8141C15.7928 10.5866 15.7708 10.6529 15.7481 10.7192C15.6446 10.7171 15.5416 10.7052 15.4409 10.6838L15.4089 10.7529C15.5114 10.7757 15.6162 10.7892 15.7218 10.7934C15.6991 10.8597 15.6759 10.9249 15.652 10.9889C15.5416 10.9799 15.4324 10.9613 15.3259 10.9333L15.2939 11.0007C15.4022 11.03 15.5132 11.0503 15.6256 11.0614L15.5521 11.2519C15.4407 11.236 15.331 11.2118 15.2242 11.1794H15.2091L15.177 11.2452H15.1978C15.3034 11.2781 15.4118 11.3035 15.522 11.321L15.4466 11.5065C15.3714 11.4914 15.2972 11.4728 15.2242 11.4508L15.0903 11.4087L15.0564 11.4728L15.1978 11.52C15.2706 11.5424 15.3442 11.5615 15.4183 11.5773L15.3391 11.7577L15.2242 11.7256C15.1374 11.7003 15.0526 11.6717 14.9697 11.6397L14.9358 11.7037C15.0206 11.7357 15.1092 11.7678 15.1978 11.7948L15.309 11.8251L15.2279 11.9937L15.1332 11.9641C15.0386 11.9329 14.9442 11.8972 14.8509 11.8605L14.8151 11.9229C14.932 11.9735 15.0602 12.0223 15.1921 12.0628L15.1092 12.2314C14.9772 12.1859 14.8472 12.1353 14.7152 12.083L14.6794 12.1437C14.8095 12.196 14.9414 12.2482 15.0771 12.2954L14.9904 12.464L14.6983 12.3511L14.5833 12.3056L14.5475 12.3663L14.6681 12.4135C14.7699 12.4505 14.8604 12.4893 14.9584 12.5264L14.8698 12.695L14.7002 12.6276L14.4495 12.5298L14.4118 12.5888L14.6681 12.6899L14.8415 12.7203L14.7492 12.8889L14.7058 12.872C14.5758 12.8214 14.4457 12.7692 14.3119 12.7253L14.2742 12.7843C14.408 12.8299 14.5418 12.8838 14.6738 12.9361L14.7134 12.9512L14.6172 13.1198C14.4728 13.061 14.325 13.0092 14.1743 12.9647H14.1611L14.1215 13.022H14.1517C14.2972 13.0658 14.44 13.1164 14.5795 13.1738L14.4796 13.3424C14.3797 13.3053 14.2779 13.2682 14.1743 13.2395C14.1177 13.2227 14.0593 13.2092 13.999 13.1974L13.9575 13.2547C14.0212 13.267 14.0841 13.2821 14.146 13.3002C14.2478 13.3289 14.3401 13.3643 14.4363 13.3997L14.3307 13.5683C14.2779 13.5514 14.2233 13.5329 14.1686 13.5177C14.0541 13.4841 13.936 13.4615 13.8161 13.4502L13.7728 13.5109C13.9011 13.5203 14.0277 13.5435 14.1498 13.5801L14.2949 13.6273L14.1818 13.7958H14.1724C13.9942 13.7418 13.8062 13.7183 13.6182 13.7267L13.5673 13.7925H13.605C13.7873 13.7835 13.9698 13.8064 14.1422 13.8599L14.0178 14.0285C13.8816 13.9991 13.741 13.9889 13.6013 13.9981C13.5291 14.0032 13.4573 14.0122 13.3864 14.0251L13.328 14.0993C13.4197 14.08 13.513 14.0671 13.6069 14.0605C13.7334 14.0525 13.8605 14.0616 13.9839 14.0875L13.8444 14.2763C13.7661 14.2696 13.6872 14.2696 13.6088 14.2763C13.4421 14.2901 13.2777 14.3206 13.1187 14.3673L13.049 14.45H13.0678C13.2441 14.3956 13.427 14.3605 13.6126 14.3454C13.6753 14.3409 13.7383 14.3409 13.8011 14.3454L13.639 14.5545H13.6126C13.4197 14.5707 13.2298 14.608 13.0471 14.6657C12.9623 14.691 12.8794 14.718 12.7964 14.7467L12.7173 14.836C12.8341 14.7956 12.951 14.7568 13.0678 14.7231C13.2346 14.6718 13.4072 14.6373 13.5824 14.6202C13.5221 14.7 13.4593 14.7787 13.3939 14.8562C13.2784 14.8775 13.1645 14.9051 13.0528 14.9389C12.8737 14.9928 12.6965 15.0569 12.5212 15.1192L12.4345 15.1496L12.3516 15.2372L12.5401 15.1715C12.7154 15.1175 12.8907 15.0552 13.0697 15.0029C13.1546 14.9793 13.2394 14.9574 13.3261 14.9389C13.2482 15.031 13.1703 15.1209 13.0924 15.2086L13.049 15.2204C12.8699 15.2743 12.6758 15.3451 12.5175 15.4008C12.3591 15.4564 12.2027 15.5104 12.0425 15.5576L11.9652 15.6351L12.0048 15.625C12.1876 15.5795 12.3818 15.512 12.5401 15.4564C12.6984 15.4008 12.8567 15.3451 13.017 15.2962C12.9227 15.4008 12.8291 15.5019 12.7361 15.5997L12.5175 15.6772C12.3422 15.7346 12.1763 15.7969 11.9878 15.8458C11.8853 15.8744 11.7808 15.8969 11.6749 15.9133L11.6108 15.9723C11.7444 15.9572 11.8762 15.9318 12.0048 15.8964C12.1876 15.8509 12.3648 15.7902 12.5401 15.7278L12.6494 15.6907C12.5401 15.8037 12.4345 15.9116 12.329 16.0161C12.2159 16.0549 12.1028 16.092 11.9878 16.124C11.8106 16.1763 11.6258 16.2053 11.4393 16.21H11.3583L11.3074 16.2555C11.3513 16.2575 11.3954 16.2575 11.4393 16.2555C11.6315 16.2515 11.8219 16.2225 12.0048 16.1695C12.0839 16.1476 12.1631 16.124 12.2404 16.0987C12.1286 16.2077 12.0205 16.3117 11.9162 16.4106C11.7613 16.4521 11.6009 16.4747 11.4393 16.478C11.3212 16.4774 11.2035 16.4644 11.0887 16.4393L11.0435 16.478C11.1725 16.5099 11.3055 16.5269 11.4393 16.5286C11.5747 16.5275 11.7094 16.5122 11.8408 16.4831L11.5486 16.7612H11.4318C11.2452 16.758 11.0605 16.7272 10.8852 16.6702L10.8343 16.655L10.7909 16.6904L10.8663 16.7157C11.0476 16.7753 11.2387 16.8078 11.4318 16.8118H11.4883L11.2584 17.0259C11.1301 17.0105 11.0039 16.984 10.8814 16.9467C10.789 16.918 10.6929 16.8843 10.6005 16.8489L10.5591 16.8826C10.659 16.9214 10.7608 16.9585 10.8644 16.9905C10.9766 17.0258 11.092 17.0523 11.2094 17.0698L11.0209 17.2552L10.8908 17.2198C10.7174 17.1675 10.5496 17.1018 10.3819 17.0344L10.3423 17.0664L10.4277 17.101C10.5698 17.1587 10.7111 17.2156 10.8682 17.2619L10.9737 17.2923L10.7966 17.4609C10.6495 17.4069 10.5044 17.3496 10.3612 17.2923L10.1444 17.208L10.1312 17.2417L10.3668 17.3344C10.5044 17.3884 10.642 17.444 10.7834 17.4929L10.6156 17.6615L10.3875 17.5721C10.2386 17.5114 10.0879 17.4524 9.93141 17.4036L9.89183 17.4339C10.0539 17.476 10.2123 17.5384 10.3687 17.6025L10.5817 17.6868L10.4196 17.8554L10.3894 17.8436C10.2169 17.772 10.0401 17.7089 9.85978 17.6547C9.79786 17.6367 9.73495 17.6215 9.6713 17.6092L9.62983 17.6413C9.70446 17.6539 9.77812 17.6708 9.85036 17.6918C10.0282 17.7467 10.2025 17.8103 10.3725 17.8823H10.3894L10.2311 18.0509C10.111 18.0039 9.98833 17.9622 9.86355 17.9262C9.69964 17.8769 9.52754 17.8529 9.35464 17.8554L9.30374 17.8958C9.48924 17.8868 9.67492 17.9103 9.85036 17.9649C9.96722 18.0003 10.0822 18.0425 10.1972 18.0863L10.0388 18.2549C9.98042 18.2347 9.92198 18.2161 9.86355 18.1993C9.68183 18.1439 9.4897 18.1209 9.29809 18.1318C9.17051 18.142 9.04429 18.1628 8.92111 18.1942L8.85137 18.2482C8.99791 18.2073 9.14895 18.1808 9.30186 18.1689C9.48862 18.1593 9.67567 18.1828 9.85224 18.238C9.90691 18.2532 9.9578 18.2701 10.0106 18.2886C9.95214 18.3527 9.89937 18.4134 9.85036 18.469C9.6732 18.4162 9.48633 18.3945 9.29997 18.4049C9.10717 18.4206 8.91726 18.4574 8.73451 18.5145C8.59126 18.5567 8.45178 18.6056 8.31418 18.6545L8.23313 18.7168C8.40277 18.6578 8.57241 18.5988 8.74582 18.5482C8.92313 18.493 9.10733 18.4573 9.29432 18.442C9.46984 18.4328 9.64572 18.4534 9.81266 18.5027C9.75235 18.5718 9.69957 18.6376 9.65245 18.6983C9.53348 18.6763 9.41164 18.6695 9.29055 18.6781C9.09775 18.6937 8.90784 18.7305 8.72509 18.7876C8.54414 18.8416 8.36507 18.909 8.19355 18.968C8.02202 19.027 7.8505 19.0877 7.67521 19.1366L7.66013 19.1467L7.61489 19.1804L7.66955 19.1653C7.85239 19.1197 8.02768 19.0506 8.20486 18.9967C8.38204 18.9427 8.54791 18.8804 8.73639 18.8281C8.91381 18.7731 9.09796 18.7375 9.28489 18.7219C9.3959 18.7146 9.5075 18.7208 9.61663 18.7404C9.55632 18.8197 9.50731 18.8922 9.46396 18.9579C9.40123 18.9533 9.3382 18.9533 9.27547 18.9579C9.08266 18.9735 8.89273 19.0103 8.71001 19.0675C8.52906 19.1214 8.35376 19.1905 8.17847 19.2479C8.00318 19.3052 7.83542 19.3676 7.64693 19.4165L7.61866 19.4401C7.55646 19.3473 7.52442 19.2934 7.50368 19.258C7.48295 19.2226 7.40567 19.2782 7.36986 19.2968L7.18137 18.9326C7.70702 18.7003 8.4225 18.062 9.11735 17.3474C8.22782 16.139 7.03799 13.428 5.87436 10.6225L5.74126 10.3009C5.67478 10.14 5.60843 9.9789 5.54227 9.81798L5.41021 9.49639C4.55371 7.4082 3.73586 5.37175 3.09118 3.96738C3.08381 3.93577 3.06052 3.90899 3.02808 3.89481C2.99565 3.88064 2.95772 3.88067 2.92531 3.89489C2.76157 3.99457 2.57075 4.05282 2.37304 4.06347C2.87251 3.88444 3.11855 3.37975 2.92531 2.93058L3.01346 3.12263C3.19648 3.52242 3.37439 3.91777 3.54764 4.30823L3.84433 4.20464L4.09113 4.12008L4.23808 4.07107L4.26576 4.06188C4.03514 3.55626 3.86643 3.1857 3.78858 3.01656C3.37202 2.10789 2.65954 2 2.12989 2.04383ZM5.33042 15.8357C5.5189 16.1729 6.14845 17.6598 6.57255 18.4555C6.70638 18.6629 6.81193 18.8213 7.14744 18.6865L7.56023 18.5196C7.3787 18.6629 7.18525 18.7936 6.98157 18.9107C6.79308 19.0186 6.59329 18.9107 6.39537 18.5887C6.1428 18.1723 5.57545 16.6264 5.33042 15.8357ZM7.18325 16.5741C7.30365 16.5343 7.43692 16.5396 7.55292 16.5887C7.66892 16.6379 7.75785 16.7269 7.79961 16.8354C7.84483 16.9417 7.8366 17.0602 7.77702 17.1606C7.71745 17.2611 7.61233 17.3336 7.4886 17.3597C7.32812 17.4142 7.15219 17.4208 6.98723 17.3783C6.74701 17.3019 6.54032 17.159 6.39726 16.9703C6.38889 16.9616 6.38191 16.952 6.37652 16.9416C6.37021 16.9335 6.37021 16.9228 6.37652 16.9147L6.40668 16.8927L6.4915 16.8287C6.49861 16.8216 6.50935 16.8184 6.51977 16.8203C6.53036 16.824 6.53814 16.8322 6.54051 16.8422V16.8675C6.60605 16.9747 6.70759 17.0608 6.83078 17.1136C6.9013 17.1488 6.97588 17.177 7.0532 17.1979L7.03623 17.1878C6.97114 17.1589 6.92357 17.1059 6.90618 17.0428C6.84193 16.8485 6.96224 16.6437 7.1776 16.5809L7.18325 16.5741ZM7.46575 16.785C7.40688 16.7641 7.34106 16.7652 7.28315 16.7882L7.28881 16.7815C7.2253 16.793 7.17099 16.8295 7.14099 16.8809C7.111 16.9322 7.10852 16.993 7.13425 17.0462C7.1912 17.1429 7.32234 17.1835 7.43394 17.1389C7.49187 17.1278 7.54212 17.0958 7.57281 17.0505C7.60349 17.0052 7.6119 16.9505 7.59604 16.8995C7.57158 16.8472 7.52462 16.806 7.46575 16.785ZM9.46958 16.8007L9.42694 16.8006C9.45946 16.8405 9.49208 16.8798 9.52482 16.9183C9.55686 16.8833 9.58901 16.8484 9.621 16.8136C9.57086 16.8061 9.52031 16.8019 9.46958 16.8007ZM9.2172 16.5287C9.27577 16.6099 9.33648 16.6883 9.39755 16.7642L9.3474 16.7664C9.44925 16.7594 9.55143 16.7641 9.65145 16.7803C9.71072 16.7156 9.7694 16.6509 9.82734 16.5865C9.63088 16.5305 9.42327 16.5106 9.2172 16.5287ZM9.12308 16.2663L9.04922 16.2789L9.0366 16.2816C9.08739 16.3543 9.13838 16.4252 9.18959 16.4944L9.15009 16.4984C9.38761 16.4689 9.62876 16.4887 9.85503 16.5556C9.91045 16.4939 9.96533 16.4323 10.0194 16.3713C9.66177 16.2447 9.39423 16.225 9.12308 16.2663ZM7.20022 15.4429C7.21743 15.4464 7.23029 15.4593 7.23226 15.4749L7.2266 15.4817L7.44148 16.0178C7.44651 16.0262 7.44651 16.0363 7.44148 16.0448C7.43516 16.0519 7.42523 16.0557 7.41509 16.0549H7.26053C7.23908 16.058 7.21806 16.0475 7.20964 16.0296L7.07016 15.6789H7.04189L6.79497 15.7346C6.86202 15.7776 6.909 15.8412 6.92691 15.9133C6.98846 16.1075 6.8667 16.3104 6.65172 16.3718C6.53622 16.4103 6.40908 16.4103 6.29359 16.3718C6.1763 16.3304 6.08486 16.2455 6.0429 16.1392C5.975 16.0141 5.975 15.8681 6.0429 15.743C6.04502 15.7339 6.05142 15.7261 6.06046 15.7216C6.06949 15.7171 6.08027 15.7163 6.09002 15.7194H6.11453L6.27474 15.7717C6.28252 15.7734 6.28886 15.7784 6.2917 15.7851C6.29387 15.7928 6.29187 15.8008 6.28665 15.8068L6.2804 15.8121C6.22164 15.8769 6.20989 15.9662 6.25024 16.0414C6.27211 16.0977 6.31983 16.143 6.3814 16.1659C6.44296 16.1887 6.51251 16.187 6.57255 16.1611C6.68031 16.1296 6.74105 16.0277 6.71015 15.9301C6.69126 15.8749 6.64618 15.8303 6.58759 15.8077L6.56501 15.8003C6.55566 15.7992 6.54751 15.7944 6.54251 15.7876L6.53862 15.7801L6.51224 15.7059L6.4915 15.6486C6.48771 15.6411 6.48771 15.6325 6.4915 15.625C6.49661 15.6179 6.50481 15.613 6.51412 15.6115L7.20022 15.4429ZM8.94355 16.0311L8.90328 16.0424L8.87909 16.05C8.92402 16.1179 8.96908 16.1844 9.01429 16.2496L9.07127 16.2388C9.3678 16.1867 9.65492 16.2026 10.0448 16.342C10.0983 16.2819 10.1507 16.2221 10.2021 16.1631C9.69146 15.9551 9.29254 15.9374 8.94355 16.0311ZM8.74987 15.806L8.72665 15.8139C8.77051 15.8835 8.81449 15.9518 8.85859 16.0189L8.87019 16.015L8.91099 16.003C8.91774 16.0011 8.92469 15.9992 8.93217 15.9972C9.29212 15.9005 9.70341 15.9195 10.2271 16.1345C10.2771 16.0769 10.3262 16.0201 10.3742 15.9642L10.2329 15.9083L10.119 15.8609L10.064 15.8402C9.63568 15.6846 9.22858 15.6536 8.74987 15.806ZM8.60343 15.5857L8.58964 15.5918C8.62869 15.6564 8.66782 15.72 8.70702 15.7826L8.67268 15.7939C9.19012 15.6142 9.62452 15.642 10.0808 15.8081L10.1346 15.8284L10.2861 15.891L10.3927 15.9331L10.399 15.9354C10.4505 15.8753 10.5008 15.8163 10.5497 15.7587C10.5395 15.7547 10.529 15.7504 10.518 15.7458L10.2094 15.6103C9.66218 15.3815 9.17753 15.3402 8.60343 15.5857ZM10.6283 15.5217L10.559 15.4933L10.3033 15.3804C9.66784 15.1014 9.18085 15.0558 8.4671 15.3511L8.45096 15.3578C8.49086 15.4265 8.53082 15.4941 8.57084 15.5607L8.52571 15.5806C9.11877 15.3095 9.61688 15.3353 10.1706 15.5556L10.2595 15.5925L10.5016 15.6997C10.5287 15.7114 10.5529 15.7214 10.5747 15.7298C10.6248 15.6699 10.6737 15.6119 10.7209 15.5556C10.6916 15.5458 10.6609 15.5346 10.6283 15.5217ZM8.35846 15.1188L8.32302 15.1339C8.35986 15.1995 8.39674 15.2642 8.43366 15.328L8.38512 15.3485C9.12432 15.0276 9.62547 15.0564 10.2617 15.325L10.5833 15.4663L10.5955 15.4714C10.6502 15.4942 10.6991 15.5127 10.7446 15.5275C10.8025 15.4579 10.8577 15.3915 10.9098 15.3284C10.8136 15.3088 10.7156 15.278 10.6029 15.2343L10.4928 15.1896L10.3284 15.119C9.63293 14.8194 9.16582 14.7803 8.35846 15.1188ZM9.12789 14.6311C8.95794 14.6572 8.77654 14.7015 8.59105 14.7589C8.48218 14.7926 8.37864 14.8287 8.28387 14.8648L8.19391 14.9003C8.23132 14.9691 8.26876 15.037 8.30623 15.104L8.2739 15.1176C9.11239 14.7529 9.59458 14.7751 10.2881 15.0645L10.5343 15.1697L10.5586 15.1798C10.7019 15.2383 10.8192 15.2767 10.9343 15.2989C10.991 15.2298 11.0439 15.1653 11.0924 15.1056L11.1861 15.1256C11.0536 15.0999 10.9233 15.0657 10.7964 15.0231L10.7815 15.018C10.3316 15.0498 9.96593 14.8871 9.65349 14.6243C9.50863 14.596 9.33103 14.5998 9.12789 14.6311ZM6.79685 14.4078L7.03623 15.008C7.04079 15.0153 7.04175 15.024 7.03889 15.032C7.03604 15.0399 7.02962 15.0465 7.02115 15.0501L6.83266 15.1091C6.83266 15.1091 6.66276 15.0668 6.47136 15.0297L6.40316 15.0169C6.35742 15.0086 6.31145 15.0009 6.2672 14.9945C6.0691 14.9621 5.86536 14.9708 5.67158 15.0198C5.66353 15.0244 5.65358 15.0256 5.64446 15.023C5.63534 15.0204 5.628 15.0142 5.62446 15.0063L5.54341 14.8023C5.53962 14.7948 5.53962 14.7862 5.54341 14.7787C5.54932 14.7704 5.55895 14.7649 5.5698 14.7635C5.792 14.7287 6.01987 14.7356 6.23893 14.7838C6.40245 14.8114 6.5632 14.8508 6.71957 14.9018L6.74973 14.9119L6.57255 14.4685C6.56771 14.4588 6.56771 14.4478 6.57255 14.4382C6.57622 14.4322 6.58176 14.4275 6.58835 14.4245L6.59894 14.4213L6.61025 14.4179L6.74408 14.3876C6.76489 14.3806 6.78817 14.3895 6.79685 14.4078ZM11.2387 14.9249L11.236 14.9259C11.1098 14.967 10.9895 14.9941 10.8744 15.0087C10.9477 15.0316 11.0221 15.0516 11.0974 15.0688L11.1188 15.0731C11.1627 15.0192 11.2028 14.9696 11.2387 14.9249ZM9.35185 14.3251L9.34381 14.3253C9.21112 14.3293 9.0147 14.3691 8.77094 14.4375C8.69529 14.4588 8.6163 14.4824 8.53463 14.5081C8.46576 14.5298 8.39664 14.5524 8.32742 14.5757L8.19067 14.6228L8.06862 14.6667C8.10518 14.7358 8.14175 14.8042 8.17834 14.8717L8.19596 14.8642L8.26984 14.8353C8.36534 14.799 8.46964 14.7626 8.57934 14.7287C8.76653 14.6707 8.94974 14.626 9.12182 14.5995C9.30485 14.5713 9.46816 14.565 9.6073 14.584C9.51793 14.5051 9.43309 14.418 9.35185 14.3251ZM9.14781 14.0717L9.13919 14.0723C9.11063 14.0749 9.07548 14.0806 9.03421 14.0892L8.96776 14.1042L8.89248 14.1234L8.80871 14.1466L8.71679 14.1737L8.61708 14.2045L8.50549 14.2403L8.44485 14.2603C8.39228 14.2777 8.3394 14.2956 8.28496 14.3143L7.94679 14.4331C7.98227 14.502 8.01774 14.5701 8.05321 14.6375L8.17762 14.5929L8.21057 14.5815C8.31483 14.5452 8.41905 14.5105 8.52274 14.4779C8.60478 14.4521 8.68416 14.4283 8.76022 14.407L8.81645 14.3915L8.92364 14.3636C9.0863 14.3233 9.22199 14.2991 9.32544 14.294C9.26408 14.2228 9.20511 14.1483 9.14781 14.0717ZM8.97914 13.8342L8.96469 13.8366C8.95751 13.8379 8.94992 13.8394 8.94193 13.841L8.88932 13.853L8.82759 13.8689L8.75711 13.8886L8.63584 13.9249L8.54519 13.9534L8.44716 13.9852L8.30635 14.0322L8.12189 14.0955L7.85238 14.191L7.82817 14.1999C7.86295 14.269 7.89771 14.3375 7.93247 14.4052L8.10326 14.3449C8.1622 14.3242 8.2183 14.3047 8.27284 14.2859L8.43305 14.2318L8.55296 14.1927L8.65803 14.1596L8.75526 14.1302L8.84439 14.1047L8.92515 14.0832L8.99728 14.066L9.0605 14.053C9.08507 14.0485 9.10723 14.0451 9.12689 14.043C9.07621 13.9748 9.02715 13.9049 8.97914 13.8342ZM6.47077 13.6998L6.46511 13.7065L6.48208 13.7234L6.59329 13.8414V13.8498C6.59329 13.8498 6.59329 13.8717 6.5669 13.8818L5.37565 14.2628C5.36575 14.2672 5.3542 14.2675 5.34404 14.2636C5.33388 14.2597 5.32614 14.252 5.32288 14.2426L5.26444 14.0959C5.26092 14.0874 5.26157 14.078 5.26624 14.07C5.27091 14.062 5.27916 14.0561 5.28895 14.0538L6.41988 13.6964C6.4357 13.6869 6.45668 13.6883 6.47077 13.6998ZM8.82363 13.5975L8.79768 13.6035L8.72918 13.6232L8.57231 13.6734L7.85068 13.9183L7.72645 13.9581L7.71032 13.9628C7.745 14.0333 7.77965 14.1031 7.81429 14.1722L7.89541 14.1428L8.10959 14.0672L8.29437 14.0038L8.43603 13.9565L8.58208 13.9095L8.66984 13.8824L8.78629 13.8484L8.85333 13.8305C8.86378 13.8278 8.87386 13.8253 8.88356 13.8229L8.93722 13.8109L8.96057 13.8067C8.93055 13.7621 8.90093 13.7171 8.87166 13.6721L8.82363 13.5975ZM8.67946 13.3653L8.61508 13.3849L8.07006 13.5724L7.88383 13.6344L7.76923 13.6706L7.70449 13.6898L7.64891 13.705C7.6404 13.7072 7.63227 13.7092 7.62451 13.7111L7.59149 13.7185C7.62658 13.7914 7.66163 13.8635 7.69665 13.9349L7.69711 13.9347L7.75459 13.9173L8.06696 13.8126L8.52838 13.6555L8.6723 13.6087L8.737 13.5888L8.78692 13.5749L8.80629 13.5704L8.76765 13.5094L8.74205 13.4688C8.72295 13.4385 8.70206 13.404 8.67946 13.3653ZM8.54778 13.1304L8.53161 13.1352L8.02747 13.3076L7.88387 13.3549L7.78899 13.3848L7.7034 13.4105L7.62717 13.4319L7.56039 13.4489L7.50316 13.4613C7.49187 13.4635 7.48125 13.4654 7.47131 13.4669C7.50727 13.5427 7.54298 13.6176 7.57865 13.6919C7.58319 13.6909 7.58967 13.6896 7.59653 13.688L7.64224 13.6769L7.69709 13.6618L7.76117 13.6427L7.83455 13.6198L7.91731 13.5929L8.05919 13.5454L8.54993 13.3761L8.64804 13.3439L8.66416 13.339C8.62906 13.2783 8.59016 13.2085 8.54778 13.1304ZM8.42502 12.8997L8.00369 13.0455L7.88929 13.0828L7.83459 13.0999C7.63242 13.1623 7.4699 13.202 7.35292 13.2139C7.38829 13.2899 7.42351 13.3652 7.45869 13.4398C7.48476 13.436 7.51676 13.4296 7.55425 13.4207L7.62004 13.4039L7.69534 13.3827L7.78 13.3573L7.87386 13.3276L8.01621 13.2807L8.52609 13.1065L8.53364 13.1043C8.49954 13.0411 8.46328 12.9728 8.42502 12.8997ZM6.07494 12.5905V12.5955C6.08101 12.594 6.08754 12.595 6.09268 12.5983C6.09781 12.6016 6.101 12.6067 6.10133 12.6124L6.18615 12.8248C6.21892 12.9684 6.13296 13.1125 5.98139 13.1681C5.82983 13.2238 5.65545 13.1752 5.56603 13.0524L5.46801 12.8063C5.46553 12.8016 5.46534 12.7962 5.46748 12.7914C5.46963 12.7866 5.47392 12.7828 5.47932 12.781L6.07494 12.5905ZM8.30415 12.6658L8.10229 12.7374L8.01228 12.7682L7.91961 12.7989C7.83971 12.8245 7.76307 12.8473 7.69008 12.8669C7.49835 12.9186 7.34152 12.946 7.22809 12.9433C7.26573 13.0251 7.30302 13.1061 7.34025 13.1864L7.31605 13.1881C7.39267 13.1837 7.49495 13.1642 7.61995 13.1315L7.71792 13.1046L7.82414 13.0728L7.93467 13.0377L8.09969 12.9821L8.41171 12.8742C8.37738 12.8084 8.34149 12.7388 8.30415 12.6658ZM5.37566 12.9729C5.41077 12.9879 5.43233 13.0203 5.43027 13.0551C5.4282 13.0898 5.40292 13.1201 5.36623 13.1316C5.31627 13.1474 5.26147 13.124 5.24371 13.0794C5.23067 13.0466 5.241 13.01 5.26989 12.9867C5.29879 12.9634 5.34054 12.958 5.37566 12.9729ZM6.02782 12.7439L5.61692 12.8754L5.66404 12.9934C5.72339 13.064 5.83357 13.0816 5.91661 13.0338C6.0125 13.0193 6.08026 12.9419 6.07306 12.8551L6.02782 12.7439ZM8.18318 12.4271L8.0988 12.457L7.90329 12.5239L7.83926 12.5445C7.72722 12.5793 7.62006 12.6084 7.51878 12.6304C7.36077 12.6648 7.2238 12.6805 7.11242 12.6739L7.10622 12.6737C7.1426 12.7546 7.1789 12.8347 7.21512 12.9142C7.32457 12.9195 7.48383 12.8925 7.68084 12.8395C7.72913 12.8265 7.77906 12.8121 7.83051 12.7964L7.93136 12.7646L8.06308 12.7202L8.29097 12.64C8.25623 12.5719 8.22027 12.5009 8.18318 12.4271ZM8.07229 12.2052L8.02135 12.2239C7.99629 12.2328 7.97054 12.2416 7.9405 12.2516C7.85152 12.2811 7.75912 12.3082 7.66418 12.3318C7.4306 12.3898 7.21089 12.4191 7.0167 12.4098L6.98747 12.408C7.02261 12.4871 7.05765 12.5656 7.09262 12.6435L7.076 12.642C7.18936 12.6552 7.33694 12.6405 7.51121 12.6026C7.6114 12.5808 7.7176 12.552 7.82874 12.5174L7.93572 12.4825L8.16983 12.4005C8.13811 12.3373 8.10558 12.2722 8.07229 12.2052ZM5.79975 11.8403L5.97693 12.2836C5.98247 12.2958 5.97674 12.3097 5.96374 12.3157L5.94677 12.3258L5.86949 12.3679C5.86292 12.3707 5.85533 12.3707 5.84876 12.3679C5.84424 12.366 5.84057 12.3628 5.83817 12.359L5.76205 12.1707L5.05522 12.3932C5.04931 12.396 5.04225 12.3961 5.03627 12.3934C5.03029 12.3907 5.02611 12.3856 5.02506 12.3797L4.97794 12.26C4.97557 12.2549 4.97588 12.2491 4.9788 12.2442C4.98172 12.2393 4.98694 12.2358 4.99302 12.2348L5.70362 12.0089L5.67723 11.9431L5.63954 11.8487C5.63718 11.8444 5.63718 11.8395 5.63954 11.8352C5.64383 11.8313 5.64923 11.8287 5.65506 11.8275L5.66404 11.8268V11.82H5.76205C5.77863 11.8168 5.79515 11.8257 5.79975 11.8403ZM7.95488 11.9677L7.83941 12.004L7.70649 12.0432C7.70009 12.045 7.69396 12.0466 7.68819 12.0482C7.4967 12.0994 7.31268 12.1318 7.13948 12.1382C7.04351 12.1418 6.95354 12.1371 6.87039 12.1232L6.86103 12.1215C6.8989 12.2078 6.93665 12.2934 6.97429 12.3783L6.96246 12.3773C7.1657 12.3958 7.40218 12.3671 7.65561 12.3042C7.74963 12.2808 7.84119 12.2539 7.92937 12.2247L8.00952 12.1972L8.05934 12.1791C8.02528 12.1105 7.99044 12.04 7.95488 11.9677ZM7.83707 11.7273L7.86381 11.7169C7.5172 11.8555 7.13095 11.892 6.76059 11.8221L6.72761 11.8155C6.76753 11.9076 6.80731 11.9989 6.84696 12.0894L6.82892 12.086C6.92224 12.1063 7.02582 12.1138 7.13815 12.1096C7.30832 12.1033 7.48987 12.0713 7.67902 12.0207L7.79233 11.988L7.94211 11.9418C7.90774 11.8719 7.87271 11.8003 7.83707 11.7273ZM7.71912 11.4848L7.74301 11.4759C7.37991 11.616 6.97161 11.6268 6.60094 11.5077L6.59384 11.5055C6.63446 11.6001 6.67491 11.6939 6.71522 11.787L6.70227 11.7842C7.06352 11.865 7.44348 11.8416 7.78809 11.7182L7.82575 11.7041C7.79077 11.6324 7.75521 11.5592 7.71912 11.4848ZM5.50554 11.15C5.57264 11.1897 5.61894 11.252 5.63388 11.3227V11.3143C5.65888 11.3824 5.65464 11.4562 5.62267 11.5213L5.60938 11.5452C5.60248 11.5506 5.59308 11.5519 5.58493 11.5492L5.57733 11.5452L5.46236 11.5132C5.45355 11.5117 5.44595 11.5068 5.44162 11.4997C5.43886 11.496 5.43794 11.4915 5.43886 11.4872L5.44162 11.4812C5.48073 11.4528 5.49515 11.4053 5.47744 11.3632C5.46985 11.3347 5.44984 11.3101 5.42187 11.2949C5.3939 11.2797 5.36029 11.2752 5.32853 11.2823C5.27498 11.3104 5.24822 11.3665 5.26256 11.4205V11.4812C5.27411 11.5966 5.19643 11.7043 5.07407 11.7425C4.99264 11.7685 4.90287 11.7639 4.82538 11.7295C4.74788 11.6952 4.68933 11.6341 4.66317 11.5604C4.60061 11.467 4.61362 11.3479 4.69521 11.2671C4.70266 11.2552 4.71935 11.2507 4.73291 11.257L4.84412 11.3042C4.84638 11.3084 4.84713 11.3132 4.84638 11.3177L4.84412 11.3244C4.79935 11.3709 4.78636 11.4355 4.81019 11.493C4.82021 11.5259 4.84566 11.5533 4.87999 11.5682C4.91432 11.5831 4.95417 11.5839 4.98925 11.5705C5.06626 11.5455 5.07826 11.5117 5.08713 11.4058L5.08915 11.38C5.06661 11.2608 5.14773 11.1455 5.27764 11.112C5.35623 11.0966 5.43844 11.1103 5.50554 11.15ZM6.46126 11.1953C6.50105 11.2888 6.54069 11.3816 6.58016 11.4736L6.55336 11.4644C6.91317 11.5948 7.31422 11.5975 7.67517 11.4734L7.70784 11.4615C7.67301 11.3896 7.63769 11.3165 7.60192 11.2423L7.62851 11.2353C7.25515 11.3392 6.85436 11.3283 6.48966 11.2055L6.46126 11.1953ZM6.32369 10.871C6.36518 10.9691 6.40647 11.0665 6.44759 11.1632L6.43668 11.1593C6.79111 11.2931 7.18472 11.3169 7.55502 11.228L7.59061 11.2188C7.55501 11.1449 7.51897 11.0699 7.48254 10.9939L7.51192 10.9857C7.20846 11.0762 6.91005 11.0519 6.55659 10.9469L6.46032 10.9168L6.32369 10.871ZM6.18732 10.5473C6.22851 10.6453 6.26951 10.7427 6.31032 10.8393L6.46999 10.8931L6.50309 10.9037C6.85691 11.0161 7.15221 11.0513 7.44758 10.977L7.47132 10.9705C7.43583 10.8964 7.39996 10.8214 7.36375 10.7456L7.38609 10.7416C7.33295 10.7521 7.27824 10.759 7.22204 10.7624C6.97976 10.7774 6.72674 10.731 6.44644 10.6394L6.3677 10.6124L6.18732 10.5473ZM5.20036 10.3045L5.35492 10.6905C5.35761 10.6947 5.35761 10.6998 5.35492 10.704C5.34979 10.7095 5.34217 10.7126 5.33419 10.7124H5.31911L5.22675 10.7226C5.21066 10.7233 5.196 10.7143 5.19093 10.7006L5.10046 10.4747H5.08727L4.89878 10.5371L4.98925 10.763C4.99098 10.7679 4.99033 10.7733 4.98747 10.7778C4.98461 10.7822 4.97979 10.7854 4.97417 10.7866L4.87993 10.817C4.8742 10.8191 4.8677 10.8188 4.86223 10.8162C4.85675 10.8136 4.85287 10.8089 4.85166 10.8035L4.76307 10.5809L4.50861 10.6619L4.61039 10.9164C4.61535 10.922 4.61659 10.9293 4.61411 10.9357L4.61039 10.9417L4.52746 10.9855C4.5203 10.9886 4.512 10.9886 4.50484 10.9855C4.49958 10.9838 4.49543 10.9801 4.49353 10.9754L4.30127 10.5944C4.29853 10.5877 4.29993 10.5802 4.30496 10.5747C4.30998 10.5692 4.31789 10.5664 4.32577 10.5675V10.559L5.16643 10.291C5.17996 10.2864 5.1951 10.2924 5.20036 10.3045ZM6.04818 10.2153C6.09029 10.316 6.13219 10.416 6.17388 10.5153L6.36348 10.5837L6.45615 10.6156C6.73305 10.7062 6.98249 10.7519 7.2201 10.7372C7.25666 10.735 7.29254 10.7312 7.32774 10.726L7.35234 10.7216C7.31534 10.6441 7.27799 10.5657 7.24034 10.4864L7.26807 10.4839C7.16517 10.4963 7.05322 10.494 6.93297 10.4787C6.75471 10.456 6.56682 10.4063 6.36045 10.3337L6.26443 10.2989C6.24812 10.2928 6.2315 10.2865 6.21435 10.2799L6.04818 10.2153ZM5.91205 9.88915C5.95303 9.98748 5.99379 10.0852 6.03436 10.1822L6.17239 10.2361C6.20913 10.2505 6.24282 10.2634 6.27528 10.2755L6.37079 10.3102C6.57529 10.3821 6.76121 10.4312 6.93696 10.4537C7.03515 10.4662 7.12747 10.4698 7.21347 10.4637L7.22883 10.4622C7.18975 10.38 7.15034 10.2969 7.11066 10.2131L7.14505 10.2108C7.01207 10.2225 6.85862 10.2051 6.68506 10.1628C6.56999 10.1347 6.44998 10.0968 6.31713 10.0482L6.20647 10.0062L5.91205 9.88915ZM5.77735 9.56554C5.81783 9.66288 5.85809 9.75962 5.89814 9.85576L6.19119 9.97259L6.26066 9.99968C6.41983 10.0602 6.55967 10.1059 6.69251 10.1384C6.8417 10.1748 6.97534 10.1924 7.0929 10.1886L7.09896 10.1884C7.05851 10.1029 7.01777 10.0167 6.97679 9.92982C6.89002 9.93723 6.7453 9.90742 6.54865 9.8465L6.45444 9.81627L6.35302 9.78178L6.25218 9.74591L6.11018 9.69315L5.77735 9.56554ZM5.64325 9.24278C5.68361 9.33997 5.72374 9.43658 5.76367 9.53261L6.16481 9.68633L6.26279 9.72247L6.36329 9.75821L6.46246 9.79194L6.55472 9.82155L6.63985 9.84693C6.78547 9.88841 6.89584 9.90896 6.96522 9.90525C6.92428 9.81849 6.88312 9.73109 6.84177 9.64316C6.82165 9.64238 6.79745 9.63933 6.76927 9.63406L6.71518 9.62244L6.65278 9.60628C6.64169 9.60321 6.63026 9.59996 6.61848 9.59652L6.54369 9.57371L6.46068 9.54657C6.44616 9.54169 6.4313 9.53664 6.4161 9.53141L6.27013 9.47964L6.10319 9.41761L5.64325 9.24278ZM5.51447 8.93259C5.55319 9.02586 5.5917 9.11863 5.63001 9.21089L5.7387 9.25111L6.13534 9.40237L6.27996 9.45591L6.42357 9.50684C6.43855 9.512 6.45319 9.51698 6.46749 9.52179L6.54932 9.5486L6.62302 9.57119L6.68846 9.58946C6.74724 9.6049 6.79446 9.61425 6.82963 9.61713C6.78649 9.52559 6.74322 9.43343 6.6998 9.34081L6.68311 9.3377L6.65111 9.33023L6.61526 9.32051L6.55259 9.30119L6.47689 9.27548L6.35116 9.22989L6.1914 9.16964L5.89987 9.05865L5.7839 9.01609L5.71739 8.99266L5.65861 8.97293L5.60676 8.95667L5.56108 8.94366L5.52079 8.93369L5.51447 8.93259ZM5.38614 8.6235C5.42545 8.71814 5.46453 8.81229 5.50341 8.90594L5.50444 8.906L5.54083 8.91396C5.54723 8.9155 5.55382 8.91715 5.5606 8.91891L5.60376 8.93088L5.67884 8.95439L5.76847 8.98516L5.91471 9.03861L6.35926 9.20732L6.48402 9.2526L6.55911 9.27816L6.60177 9.29163L6.63937 9.3025L6.6874 9.31435C6.64236 9.21827 6.59717 9.12172 6.55188 9.02483L6.5361 9.02043L6.47342 9.00111L6.39772 8.9754L6.272 8.92981L6.11223 8.86956L5.8207 8.75857L5.70474 8.71601L5.63823 8.69258L5.57944 8.67285L5.5276 8.65659L5.48192 8.64358L5.44162 8.63361L5.40592 8.62646C5.40031 8.62549 5.39486 8.62463 5.38955 8.62387L5.38614 8.6235ZM5.26134 8.32315L5.27335 8.35207C5.30806 8.43556 5.3426 8.51868 5.37697 8.60142L5.37727 8.59848L5.39251 8.60039L5.42527 8.60592L5.46166 8.61388C5.46807 8.61542 5.47465 8.61707 5.48144 8.61883L5.5246 8.6308L5.59968 8.65431L5.6893 8.68508L5.83555 8.73853L6.28009 8.90724L6.40485 8.95252L6.47994 8.97808L6.5226 8.99155L6.53846 8.99613C6.49186 8.89641 6.44515 8.79635 6.39841 8.69608L6.38543 8.69204L6.32538 8.67149L6.1888 8.6204L5.80646 8.4731L5.70356 8.43556C5.51234 8.36785 5.3699 8.33024 5.26134 8.32315ZM5.13966 8.03079C5.17708 8.12063 5.2143 8.21006 5.25131 8.29907L5.22486 8.29831C5.32362 8.29831 5.44969 8.3259 5.61704 8.38072L5.7125 8.41333C5.72912 8.41921 5.7461 8.42532 5.76345 8.43165L5.89553 8.48129L6.28513 8.6312L6.36997 8.66169L6.38467 8.6666C6.33819 8.56688 6.29168 8.46697 6.2452 8.36702L6.21519 8.35722L6.03167 8.29199L5.7114 8.17556L5.6579 8.15685L5.55777 8.12329C5.38236 8.06648 5.25098 8.03565 5.1499 8.03091L5.13966 8.03079ZM5.02878 7.75519L5.02508 7.75601C5.06015 7.84002 5.09504 7.92368 5.12975 8.00699L5.12308 8.00666C5.24005 8.00666 5.39579 8.04351 5.61522 8.11707L5.72111 8.15362L6.14586 8.30764L6.23004 8.33697C6.18519 8.23797 6.13895 8.13841 6.0928 8.03895L6.08107 8.03543L6.04082 8.02175L5.99011 8.00334L5.77815 7.92339L5.71772 7.90117L5.60635 7.86201C5.57084 7.84998 5.53677 7.83894 5.50358 7.82873C5.29958 7.76601 5.14019 7.73892 5.02878 7.75519ZM4.94037 7.49463L4.91739 7.49835C4.95033 7.57706 4.9831 7.65547 5.01572 7.73359L4.99542 7.73729C5.11392 7.7103 5.28654 7.73704 5.51216 7.80641C5.56233 7.82184 5.61442 7.83915 5.67036 7.85882L5.82088 7.91379L5.99991 7.98142L6.07079 8.00684L6.07919 8.00961C6.03076 7.90521 5.98245 7.80095 5.93431 7.69698L5.96918 7.71209C5.52024 7.51294 5.17523 7.4627 4.94037 7.49463ZM16.3362 0.808105C16.3777 0.860367 16.4305 0.9278 16.4889 1.01041L16.4587 1.02052V1.10313L16.5436 1.07784C16.5762 1.12617 16.6108 1.17843 16.6472 1.23462C16.5662 1.2616 16.4851 1.28689 16.4041 1.31049C16.3947 1.33915 16.3852 1.36949 16.3739 1.40152L16.4775 1.37255C16.5465 1.35207 16.6152 1.32959 16.683 1.30712L16.7792 1.46221C16.6378 1.51279 16.4946 1.55999 16.3494 1.60045L16.2835 1.61731L16.242 1.70666L16.3739 1.67463C16.5247 1.63248 16.6736 1.58359 16.8206 1.53302L16.9092 1.68812L16.8753 1.69992C16.7 1.75724 16.5247 1.81961 16.3457 1.8685C16.2721 1.88873 16.1986 1.90728 16.1251 1.92076L16.0742 2.00843C16.1748 1.99235 16.2743 1.97096 16.372 1.94436C16.5549 1.89885 16.7339 1.83816 16.9092 1.77578L16.9488 1.76229L17.0336 1.91908L16.8753 1.97471C16.7 2.03203 16.5247 2.0944 16.3457 2.14329C16.2088 2.18215 16.068 2.2087 15.9253 2.22253L15.8631 2.30176C16.0353 2.29224 16.2056 2.26393 16.3702 2.21747C16.553 2.17195 16.7321 2.10958 16.9074 2.04889L17.0713 1.99157L17.1524 2.15004L16.8753 2.24782C16.7 2.30514 16.5247 2.36751 16.3457 2.4164C16.1697 2.46846 15.9862 2.49742 15.8009 2.50238H15.6935L15.6256 2.5715C15.6837 2.57864 15.7423 2.58258 15.8009 2.5833C15.9931 2.57909 16.1835 2.55013 16.3664 2.49732C16.5492 2.4518 16.7283 2.38943 16.9036 2.32874L17.1844 2.23264L17.2617 2.40123C17.1298 2.44506 16.9997 2.49058 16.8697 2.5361C16.6944 2.59341 16.5191 2.65579 16.34 2.70468C16.164 2.75674 15.9805 2.7857 15.7953 2.79066C15.6738 2.78986 15.5529 2.77571 15.4353 2.74851L15.3636 2.80752C15.5038 2.84463 15.6491 2.86448 15.7953 2.86652C15.9874 2.86229 16.1778 2.83333 16.3607 2.78054C16.5436 2.73503 16.7226 2.67433 16.8979 2.61196C17.0299 2.56644 17.1599 2.52092 17.2919 2.47878L17.3654 2.64736C17.1939 2.69794 17.0393 2.75863 16.864 2.81595C16.6887 2.87326 16.5134 2.93564 16.3343 2.98453C16.1584 3.03662 15.9749 3.06558 15.7896 3.07051C15.6051 3.06725 15.4223 3.03707 15.2487 2.98116L15.1657 2.95418L15.0884 3.00476L15.2223 3.04859C15.4037 3.10786 15.5947 3.14031 15.7877 3.14469C15.9799 3.1405 16.1703 3.11154 16.3532 3.05871C16.536 3.01319 16.7226 2.95081 16.8904 2.89012C17.0581 2.82943 17.224 2.77211 17.3918 2.72154L17.4634 2.89012L17.3899 2.91035C17.207 2.9643 17.0318 3.03342 16.8565 3.09074C16.6812 3.14806 16.5059 3.21043 16.3268 3.25932C16.1509 3.31153 15.9674 3.34049 15.7821 3.3453C15.5975 3.34204 15.4148 3.31186 15.2411 3.25595C15.1186 3.21886 14.998 3.17503 14.8773 3.12783L14.7944 3.17166C14.932 3.22729 15.0715 3.28124 15.2166 3.32507C15.398 3.38437 15.589 3.41682 15.7821 3.42116C15.9742 3.41695 16.1647 3.388 16.3475 3.33519C16.5304 3.28967 16.7076 3.22055 16.8847 3.1666C17.0619 3.11265 17.2372 3.05028 17.4144 2.99802L17.4898 2.97779L17.5576 3.14637L17.3842 3.19189C17.2014 3.24584 17.0261 3.31496 16.8508 3.37227C16.6755 3.42959 16.5002 3.49197 16.3212 3.54086C16.1452 3.59308 15.9617 3.62205 15.7764 3.62684C15.5919 3.62358 15.4091 3.5934 15.2355 3.53749C15.0583 3.48354 14.8868 3.41611 14.7134 3.34699L14.5569 3.2863L14.4645 3.32507L14.6813 3.41105C14.8547 3.48017 15.0206 3.55097 15.2091 3.60661C15.3904 3.66602 15.5814 3.69848 15.7745 3.7027C15.9667 3.69847 16.1571 3.66951 16.34 3.61672C16.5228 3.5712 16.7 3.50208 16.8772 3.44814C17.0544 3.39419 17.2297 3.33181 17.4068 3.27955L17.5821 3.23404V3.25089C17.5821 3.25089 17.4917 3.34361 17.3333 3.48691C17.1637 3.53917 17.0129 3.59818 16.8376 3.6555C16.6623 3.71281 16.487 3.77519 16.308 3.82408C16.132 3.87626 15.9485 3.90522 15.7632 3.91006C15.5787 3.9068 15.396 3.87662 15.2223 3.82071C15.0451 3.76676 14.8736 3.69933 14.7002 3.63021C14.5277 3.55843 14.3509 3.4954 14.1705 3.44139L14.2082 3.39588L14.0838 3.43296L14.1988 3.46331C14.3766 3.51754 14.5509 3.58057 14.7209 3.65212C14.8943 3.72124 15.0602 3.79205 15.2487 3.84768C15.43 3.90709 15.621 3.93955 15.8141 3.94378C16.0063 3.93959 16.1967 3.91063 16.3796 3.8578C16.5624 3.81228 16.7415 3.7499 16.9168 3.68921L17.2202 3.58469C17.1071 3.68247 16.9733 3.79205 16.8225 3.90837C16.668 3.96401 16.5134 4.01627 16.3551 4.0601C16.3432 4.06361 16.3313 4.06702 16.3194 4.07032L16.4833 4.03144L16.4831 4.11101L16.5681 4.08539L16.6416 4.0483C16.5902 4.08511 16.5374 4.12217 16.4832 4.15924L16.4833 4.227H16.4851C16.4342 4.2506 16.4097 4.25903 16.3438 4.286C16.372 5.18793 16.2043 5.19804 15.3825 5.429L15.3185 5.44807C14.3485 5.73261 14.4081 5.52675 14.1479 7.72007L14.1477 5.05964L14.1441 5.0598C11.4349 5.0598 9.15621 4.06882 7.22945 3.2071L7.00869 3.1083C5.62037 2.48706 4.41838 1.95785 3.37202 1.95785C2.53053 1.61326 1.53416 1.90177 1.07812 2.62207C1.07812 2.62207 1.817 0.617605 6.10699 2.02191C8.31795 2.81595 15.5559 5.25368 16.3362 0.808105ZM4.81234 7.23616L4.80787 7.23704C4.84142 7.31698 4.8748 7.39662 4.90802 7.47597L4.90844 7.47573L4.9364 7.47129C5.16566 7.44012 5.49524 7.48516 5.9191 7.66419C5.87268 7.56383 5.82643 7.46384 5.78043 7.36428L5.80281 7.37469C5.5005 7.22574 5.1498 7.17708 4.81234 7.23616ZM4.72338 6.97637L4.70069 6.9821C4.73346 7.05993 4.76607 7.13749 4.79852 7.21477L4.7468 7.22475C5.08852 7.15168 5.44741 7.18874 5.76074 7.32832L5.76472 7.33028C5.71915 7.23163 5.67381 7.13342 5.62878 7.03578L5.66872 7.05154C5.37231 6.92902 5.03808 6.90282 4.72338 6.97637ZM4.61745 6.71537L4.59163 6.72359C4.62552 6.80376 4.65922 6.88365 4.69275 6.96326L4.65795 6.972C4.97333 6.88505 5.31193 6.89859 5.61643 7.0092C5.57266 6.91409 5.52913 6.81964 5.48595 6.72588L5.50932 6.73322C5.22209 6.63802 4.90803 6.63207 4.61745 6.71537ZM4.5367 6.47548L4.49242 6.48926C4.52295 6.56124 4.55333 6.63299 4.58358 6.70453L4.5518 6.71425C4.84378 6.61748 5.16304 6.61143 5.45843 6.6961L5.47447 6.70094C5.43146 6.60755 5.38881 6.51485 5.34657 6.42299L5.3775 6.42771C5.09684 6.38027 4.80771 6.39685 4.5367 6.47548ZM2.9008 4.16294C2.9008 4.16294 2.91965 4.1309 2.94604 4.16294C3.08657 4.38398 3.18708 4.62352 3.24385 4.87268C3.24385 4.87268 3.20427 5.01597 2.85557 5.18456C2.30707 5.44418 2.72174 5.89598 2.68404 6.61247C2.46728 6.29553 2.41639 4.87942 1.85847 4.72432C2.28357 4.6895 2.66754 4.4827 2.9008 4.16294ZM4.42876 6.2189L4.38432 6.23495C4.41809 6.31424 4.45169 6.39327 4.48512 6.47205L4.46733 6.47733C4.73867 6.38808 5.03042 6.36149 5.31565 6.39955L5.33728 6.40279C5.29423 6.30917 5.25161 6.21641 5.20947 6.12465L5.22754 6.12605C4.95651 6.10037 4.68285 6.13231 4.42876 6.2189ZM5.07905 5.84049L5.11381 5.83951C4.84729 5.84315 4.58365 5.88772 4.33434 5.9711L4.27992 5.9904C4.31245 6.06642 4.34481 6.14221 4.377 6.21777L4.35752 6.22462C4.6112 6.1278 4.88655 6.08603 5.16111 6.10232L5.20056 6.10525C5.15957 6.01599 5.11905 5.92769 5.07905 5.84049ZM4.95454 5.5689L4.99594 5.56467C4.73727 5.58793 4.4831 5.64058 4.23955 5.72127L4.17421 5.74387C4.20714 5.82048 4.2399 5.89686 4.27249 5.97302L4.25207 5.98014C4.50058 5.8882 4.76472 5.83521 5.03292 5.8233L5.0706 5.82207C5.03139 5.73658 4.99268 5.65215 4.95454 5.5689ZM4.8366 5.31138L4.86657 5.30665C4.62192 5.34336 4.38222 5.40237 4.1512 5.48272L4.07387 5.51095C4.105 5.58305 4.13598 5.65496 4.16682 5.72668L4.14092 5.73567C4.38334 5.6474 4.63723 5.58718 4.89643 5.55638L4.94634 5.55101C4.90921 5.46996 4.87261 5.39005 4.8366 5.31138ZM4.72161 5.06005L4.75393 5.0537C4.51649 5.09932 4.28365 5.1621 4.0577 5.24141L3.97096 5.27323C4.00292 5.34688 4.03473 5.42033 4.06637 5.49359L4.04466 5.50138C4.27443 5.41446 4.51346 5.34886 4.75801 5.30555L4.82851 5.29371C4.79226 5.21451 4.75661 5.13659 4.72161 5.06005ZM4.60673 4.80879L4.63203 4.80237C4.40759 4.85836 4.18644 4.92429 3.96939 4.99992L3.8679 5.03633C3.8999 5.1097 3.93174 5.18288 3.96343 5.25587L3.93721 5.26537C4.16184 5.18018 4.39377 5.11148 4.6307 5.05992L4.71369 5.04275C4.67731 4.96321 4.64164 4.88517 4.60673 4.80879ZM4.49553 4.56535L4.53599 4.55453C4.30988 4.61306 4.08754 4.68255 3.86994 4.76269L3.76564 4.80249C3.79737 4.87488 3.82896 4.94708 3.86038 5.0191L3.83175 5.02932C4.04777 4.94959 4.26805 4.87953 4.4918 4.8194L4.59894 4.79172C4.56366 4.71452 4.52917 4.63902 4.49553 4.56535ZM14.1478 4.78192C13.9705 4.7333 13.7844 4.71489 13.5994 4.72769C13.4527 4.74176 13.308 4.76944 13.1677 4.8103H13.3996C13.4674 4.79703 13.536 4.78746 13.605 4.78164C13.7228 4.7722 13.8415 4.77788 13.9575 4.7985L14.1102 4.79007L14.1477 4.78821L14.1478 4.78192ZM4.38426 4.3216L4.3642 4.32784L4.24299 4.36572L4.05696 4.42689L3.86238 4.49308L3.66065 4.56373C3.69328 4.63773 3.72574 4.71154 3.75803 4.78516L3.73165 4.79506C3.948 4.71041 4.16931 4.63637 4.39459 4.57326L4.48762 4.54803C4.45219 4.47044 4.41771 4.39491 4.38426 4.3216ZM13.6652 4.47106L13.6013 4.47313C13.4084 4.4895 13.2185 4.52687 13.0358 4.5844C12.8586 4.62991 12.6852 4.69229 12.5137 4.75298L12.5797 4.76141H12.6438C12.7813 4.71421 12.9189 4.667 13.0584 4.62654C13.2346 4.57213 13.4175 4.53704 13.6032 4.52202C13.788 4.51284 13.9731 4.53633 14.1479 4.59114H14.1477L14.1479 4.57934L14.228 4.56046L14.1667 4.54225C14.0052 4.49286 13.8355 4.46883 13.6652 4.47106ZM13.6652 4.19461L13.6013 4.19665C13.4084 4.21291 13.2185 4.25028 13.0358 4.30792C12.8549 4.36186 12.6796 4.43098 12.5043 4.4883C12.329 4.54562 12.1631 4.608 11.9746 4.65689H11.9482L12.0689 4.6788C12.2234 4.63329 12.3516 4.58271 12.5269 4.52876C12.7022 4.47482 12.8775 4.41244 13.0565 4.36018C13.2327 4.30574 13.4156 4.27064 13.6013 4.25566C13.7862 4.24639 13.9713 4.26988 14.146 4.32478C14.3238 4.37908 14.4981 4.44211 14.6681 4.51359L14.5807 4.47785L14.6902 4.45202C14.5542 4.39574 14.4155 4.34479 14.2745 4.29933L14.1667 4.26577C13.985 4.2103 13.793 4.18682 13.6013 4.19665L13.6652 4.19461ZM4.27367 4.07922L4.17735 4.11091L3.94478 4.18988L3.55535 4.32562C3.58806 4.39938 3.62061 4.47297 3.65299 4.54637L3.85493 4.47578L4.09117 4.39567L4.27935 4.33447L4.35767 4.31024L4.37636 4.3043C4.34094 4.22668 4.30668 4.15159 4.27367 4.07922ZM13.6652 3.89785L13.6013 3.89994C13.4084 3.91618 13.2185 3.95355 13.0358 4.01121C12.8549 4.06516 12.6796 4.13428 12.5043 4.19159C12.329 4.24891 12.1631 4.31129 11.9746 4.36018C11.7974 4.41242 11.6126 4.44139 11.4261 4.44616C11.2396 4.44266 11.0549 4.41191 10.8795 4.35512C10.7023 4.30117 10.5308 4.23374 10.3574 4.16462C10.1849 4.09288 10.0081 4.02984 9.82774 3.97581V3.98255C9.69199 3.94356 9.55151 3.91922 9.4093 3.91006L9.55632 3.96401C9.64236 3.97773 9.72735 3.99632 9.81078 4.01964C9.98862 4.07446 10.1629 4.13806 10.3329 4.21014L10.5704 4.29275C10.6703 4.32983 10.7608 4.36355 10.8588 4.3939C10.9812 4.43215 11.1074 4.45981 11.2357 4.4765C11.2982 4.4847 11.3611 4.4892 11.4242 4.48999C11.6164 4.48587 11.8068 4.45691 11.9897 4.40401C12.1706 4.35849 12.3497 4.28937 12.525 4.23543C12.7003 4.18148 12.8756 4.1191 13.0547 4.06684C13.2308 4.01238 13.4137 3.97729 13.5994 3.96232C13.7843 3.95314 13.9694 3.97663 14.1441 4.03144C14.3219 4.08567 14.4962 4.1487 14.6662 4.22025C14.7934 4.27096 14.9166 4.32257 15.0476 4.36843L15.1821 4.33709C15.0178 4.28518 14.8579 4.22226 14.6964 4.15788C14.5239 4.08627 14.347 4.02323 14.1667 3.96906C13.985 3.91342 13.793 3.88994 13.6013 3.89994L13.6652 3.89785ZM13.7161 3.60622L13.6522 3.60829C13.4593 3.62446 13.2694 3.66183 13.0867 3.71956C12.9058 3.77351 12.7305 3.84262 12.5552 3.89994C12.3799 3.95726 12.214 4.01964 12.0255 4.06853C11.8483 4.12075 11.6635 4.14971 11.477 4.15451C11.2905 4.15092 11.1059 4.12017 10.9304 4.06347C10.7532 4.00952 10.5817 3.94209 10.4083 3.87297C10.2358 3.8013 10.059 3.73827 9.87863 3.68416C9.6969 3.62879 9.50477 3.60588 9.31317 3.61672C9.19397 3.6242 9.07589 3.64227 8.9607 3.67067L9.01913 3.69427C9.11626 3.6734 9.21531 3.66042 9.31505 3.6555C9.50182 3.64574 9.6889 3.66923 9.86544 3.72462C10.0433 3.77937 10.2176 3.84297 10.3875 3.91512C10.5591 3.98424 10.7249 4.05504 10.9134 4.11067C11.0948 4.1702 11.2858 4.20267 11.4789 4.20677C11.671 4.20268 11.8615 4.17372 12.0444 4.12079C12.2253 4.07527 12.4044 4.00615 12.5797 3.9522C12.755 3.89826 12.9303 3.83588 13.1093 3.78362C13.2855 3.72929 13.4684 3.6942 13.654 3.6791C13.8389 3.66992 14.024 3.69341 14.1988 3.74822C14.3766 3.80252 14.5509 3.86555 14.7209 3.93703C14.8943 4.00615 15.0602 4.07696 15.2487 4.13259C15.3867 4.17783 15.5303 4.20744 15.6762 4.22086L16.1566 4.10848C16.0428 4.1304 15.9269 4.143 15.8104 4.14608C15.6258 4.14282 15.4431 4.11264 15.2694 4.05673C15.0922 4.00278 14.9207 3.93535 14.7473 3.86623C14.5748 3.79459 14.3979 3.73156 14.2176 3.67741C14.0359 3.62185 13.8439 3.59838 13.6522 3.60829L13.7161 3.60622ZM9.33369 3.38504L9.26982 3.38745C9.077 3.40299 8.88707 3.43979 8.70435 3.49703L8.50078 3.56109L8.54791 3.58132L8.71566 3.52906C8.8931 3.47453 9.07728 3.43943 9.26416 3.42454C9.45092 3.41495 9.63796 3.43844 9.81455 3.49366C9.99239 3.54848 10.1667 3.61207 10.3367 3.68416C10.5082 3.75327 10.6741 3.82408 10.8625 3.87971C11.0439 3.93913 11.2349 3.97159 11.428 3.97581C11.6201 3.97176 11.8106 3.9428 11.9935 3.88983C12.1744 3.84431 12.3516 3.78362 12.5288 3.72124L12.7154 3.66055H12.5401L12.5118 3.67067C12.3365 3.72799 12.1706 3.79036 11.9822 3.83925C11.8049 3.8915 11.6202 3.92046 11.4337 3.92523C11.2471 3.9218 11.0625 3.89105 10.887 3.8342C10.7099 3.78025 10.5383 3.71281 10.3649 3.6437C10.1924 3.572 10.0156 3.50896 9.83528 3.45488C9.65358 3.39938 9.46143 3.37647 9.26982 3.38745L9.33369 3.38504ZM10.6552 3.52569C10.7231 3.55097 10.7928 3.57458 10.8625 3.59649C11.0439 3.65602 11.2349 3.68849 11.428 3.69258C11.5861 3.69061 11.7432 3.67021 11.8955 3.63189L11.6825 3.62178C11.5979 3.6355 11.5121 3.64283 11.4261 3.6437C11.2396 3.64014 11.055 3.60939 10.8795 3.55266L10.6552 3.52569ZM8.84383 3.18009L8.70812 3.21718C8.54414 3.27112 8.38015 3.33013 8.22182 3.38576L8.17659 3.40262H8.16339L8.20674 3.42116L8.23313 3.40768C8.39335 3.35036 8.54602 3.2981 8.71378 3.24921C8.77598 3.22898 8.84006 3.21212 8.90226 3.19695H8.91169L8.84383 3.18009ZM8.38204 3.05365H8.36319L8.1747 3.12277C8.04841 3.16829 7.92401 3.21212 7.79772 3.25089H7.78641L7.82788 3.26775H7.83919L7.83731 3.26101L7.92484 3.23361C8.01213 3.20548 8.09836 3.17545 8.18035 3.14637L8.20863 3.13626L8.41973 3.06376L8.38204 3.05365ZM8.00129 2.92721H7.9504L7.88337 2.94949C7.79652 2.97792 7.71931 3.00139 7.64693 3.02162C7.5627 3.04527 7.47713 3.06497 7.39059 3.08062L7.43583 3.09917V3.10591C7.50557 3.09242 7.55646 3.06039 7.65636 3.03342C7.75626 3.00645 7.86369 2.97442 8.00129 2.92721ZM6.64041 2.77886L6.77235 2.83112C6.8768 2.84896 6.98271 2.85911 7.08901 2.86146L7.09278 2.85641L7.16981 2.85388C7.29799 2.84721 7.42509 2.82829 7.54892 2.7974H7.53196L7.49049 2.78391L7.41067 2.80098C7.3037 2.82143 7.19473 2.83266 7.08524 2.83449L7.01027 2.83135C6.88549 2.82406 6.76168 2.80649 6.64041 2.77886Z" fill="#31251C"/><defs><clipPath id="clip0_10117_14047"><rect width="99.5368" height="15.9664" fill="white" transform="translate(0 23.7417)"/></clipPath></defs></svg>