<svg xmlns="http://www.w3.org/2000/svg" viewBox="0 0 100 40" fill="none"><path d="M17.6141 39.8183H14.3047L12.4485 32.8421C12.3797 32.5938 12.261 32.0821 12.0922 31.3069C11.9297 30.5257 11.836 30.0019 11.811 29.7355C11.7735 30.0625 11.6797 30.5893 11.5297 31.316C11.3797 32.0367 11.2641 32.5514 11.1828 32.8602L9.33595 39.8183H6.03594L2.53906 26.538H5.39844L7.15157 33.7868C7.45782 35.1251 7.6797 36.2848 7.8172 37.2658C7.8547 36.9206 7.93907 36.3877 8.07032 35.6671C8.20782 34.9404 8.33595 34.3772 8.4547 33.9775L10.4516 26.538H13.1985L15.1953 33.9775C15.2828 34.3106 15.3922 34.8193 15.5235 35.5036C15.6547 36.1879 15.7547 36.7753 15.8235 37.2658C15.886 36.7935 15.986 36.2061 16.1235 35.5036C16.261 34.7951 16.386 34.2228 16.4985 33.7868L18.2422 26.538H21.1016L17.6141 39.8183Z" fill="#0A0406"/><path d="M30.1444 39.8183H22.2506V26.538H30.1444V28.8453H25.1569V31.7611H29.7975V34.0684H25.1569V37.4929H30.1444V39.8183Z" fill="#0A0406"/><path d="M32.4371 26.538H36.7028C38.6465 26.538 40.0559 26.8075 40.9309 27.3465C41.8121 27.8794 42.2528 28.7302 42.2528 29.899C42.2528 30.6923 42.059 31.3433 41.6715 31.852C41.2903 32.3606 40.7809 32.6665 40.1434 32.7694V32.8602C41.0121 33.048 41.6371 33.3992 42.0184 33.9139C42.4059 34.4287 42.5996 35.113 42.5996 35.9668C42.5996 37.178 42.1465 38.1227 41.2403 38.8009C40.3403 39.4792 39.1153 39.8183 37.5653 39.8183H32.4371V26.538ZM35.3434 31.7975H37.0309C37.8184 31.7975 38.3871 31.6794 38.7371 31.4432C39.0934 31.207 39.2715 30.8164 39.2715 30.2714C39.2715 29.7627 39.0778 29.3994 38.6903 29.1814C38.309 28.9573 37.7028 28.8453 36.8715 28.8453H35.3434V31.7975ZM35.3434 34.032V37.4929H37.2371C38.0371 37.4929 38.6278 37.3445 39.009 37.0478C39.3903 36.7511 39.5809 36.2969 39.5809 35.6853C39.5809 34.5831 38.7684 34.032 37.1434 34.032H35.3434Z" fill="#0A0406"/><path d="M52.8518 36.1304C52.8518 37.3294 52.4049 38.2741 51.5112 38.9645C50.6237 39.6548 49.3862 40 47.7986 40C46.3361 40 45.0424 39.7335 43.9174 39.2006V36.5845C44.8424 36.9842 45.6236 37.2658 46.2611 37.4293C46.9049 37.5928 47.4924 37.6746 48.0236 37.6746C48.6612 37.6746 49.1487 37.5565 49.4862 37.3203C49.8299 37.0841 50.0018 36.7329 50.0018 36.2666C50.0018 36.0062 49.9268 35.7761 49.7768 35.5763C49.6268 35.3704 49.4049 35.1735 49.1112 34.9858C48.8237 34.7981 48.233 34.4983 47.3393 34.0865C46.5018 33.705 45.8736 33.3386 45.4549 32.9874C45.0361 32.6362 44.7018 32.2274 44.4518 31.7611C44.2018 31.2948 44.0768 30.7498 44.0768 30.1261C44.0768 28.9512 44.4861 28.0277 45.3049 27.3556C46.1299 26.6834 47.2674 26.3473 48.7174 26.3473C49.4299 26.3473 50.108 26.429 50.7518 26.5925C51.4018 26.756 52.0799 26.9862 52.7862 27.2829L51.8487 29.472C51.1174 29.1814 50.5112 28.9785 50.0299 28.8634C49.5549 28.7484 49.0862 28.6908 48.6236 28.6908C48.0737 28.6908 47.6518 28.815 47.358 29.0633C47.0643 29.3116 46.9174 29.6355 46.9174 30.0352C46.9174 30.2835 46.9768 30.5015 47.0955 30.6893C47.2143 30.8709 47.4018 31.0496 47.658 31.2252C47.9205 31.3947 48.5361 31.7036 49.5049 32.1517C50.7862 32.7452 51.6643 33.3417 52.1393 33.9412C52.6143 34.5347 52.8518 35.2644 52.8518 36.1304Z" fill="#0A0406"/><path d="M60.0477 39.8183H57.1414V28.8816H53.4195V26.538H63.7696V28.8816H60.0477V39.8183Z" fill="#0A0406"/><path d="M77.7436 33.16C77.7436 35.3582 77.1811 37.0478 76.0561 38.2287C74.9311 39.4095 73.3186 40 71.2186 40C69.1186 40 67.5061 39.4095 66.3811 38.2287C65.2561 37.0478 64.6936 35.3522 64.6936 33.1418C64.6936 30.9315 65.2561 29.245 66.3811 28.0822C67.5123 26.9135 69.1311 26.3291 71.2373 26.3291C73.3436 26.3291 74.9529 26.9165 76.0655 28.0913C77.1842 29.2661 77.7436 30.9557 77.7436 33.16ZM67.7404 33.16C67.7404 34.6437 68.0311 35.761 68.6123 36.5119C69.1936 37.2628 70.0623 37.6382 71.2186 37.6382C73.5373 37.6382 74.6967 36.1455 74.6967 33.16C74.6967 30.1685 73.5436 28.6727 71.2373 28.6727C70.0811 28.6727 69.2092 29.0512 68.6217 29.8081C68.0342 30.5591 67.7404 31.6763 67.7404 33.16Z" fill="#0A0406"/><path d="M82.9145 32.4333H83.852C84.7707 32.4333 85.4488 32.2849 85.8863 31.9882C86.3238 31.6915 86.5426 31.2252 86.5426 30.5893C86.5426 29.9595 86.3176 29.5114 85.8676 29.245C85.4238 28.9785 84.7332 28.8453 83.7957 28.8453H82.9145V32.4333ZM82.9145 34.7224V39.8183H80.0082V26.538H84.002C85.8645 26.538 87.2426 26.8681 88.1364 27.5281C89.0301 28.1822 89.477 29.1783 89.477 30.5167C89.477 31.2979 89.2551 31.9943 88.8113 32.6059C88.3676 33.2115 87.7395 33.6869 86.927 34.032C88.9895 37.0175 90.3332 38.9463 90.9582 39.8183H87.7332L84.4613 34.7224H82.9145Z" fill="#0A0406"/><path d="M100.001 39.8183H92.1072V26.538H100.001V28.8453H95.0135V31.7611H99.6541V34.0684H95.0135V37.4929H100.001V39.8183Z" fill="#0A0406"/><path d="M38.5068 7.03055V7.26399L38.5032 7.26387C38.4265 7.26163 37.1406 7.24597 37.1406 8.71248V15.3407C37.1406 16.3701 37.6245 18.2529 40.0096 18.2529C42.0778 18.2529 42.6812 16.2132 42.6812 14.9235V8.71822C42.6812 7.40559 41.4175 7.26782 41.1993 7.26782V7.03438H44.9904V7.26782C44.7893 7.26782 43.4725 7.45151 43.4725 8.71822V14.5504C43.4725 15.8516 43.3928 19.0317 39.4081 19.0317C35.3893 19.0317 35.0098 16.4007 35.0098 15.4804V8.71248C35.0098 7.24597 33.724 7.26163 33.6472 7.26387L33.6436 7.26399V7.03055H38.5068ZM27.1277 4.48566C29.103 4.42252 30.1902 5.30271 30.8638 5.30271C31.1428 5.32509 31.4166 5.21801 31.6076 5.01186H31.7974V8.7871H31.4483C31.4483 8.7871 31.2452 7.20659 30.0859 6.20394C28.9265 5.20129 27.4313 5.23574 27.0898 5.27209C26.5186 5.33332 23.088 5.66435 23.088 11.7644C23.088 17.8645 26.0993 18.0788 27.048 18.0788C28.0437 18.0853 29.0241 17.8322 29.8942 17.3441V16.9805C29.8973 16.9244 29.8973 16.8682 29.8942 16.8121V13.72C29.8942 12.3664 28.7791 12.2959 28.5794 12.2941L28.5568 12.2942C28.5551 12.2943 28.5536 12.2943 28.5525 12.2943L28.5489 12.2945V12.0648H33.3875V12.2945L33.3839 12.2943C33.3828 12.2943 33.3813 12.2943 33.3796 12.2942L33.357 12.2941C33.1573 12.2959 32.0422 12.3664 32.0422 13.72V18.7198C31.3629 18.385 30.5014 18.45 29.8772 18.561C29.6343 18.6299 29.3573 18.6949 29.065 18.7524H29.0081C28.7709 18.8078 28.5489 18.8212 28.344 18.8576H28.3231C27.8685 18.9129 27.4111 18.9404 26.9532 18.9399C23.6459 18.9399 20.2969 16.3682 20.2969 12.0648C20.2969 7.64477 23.1184 4.61769 27.1277 4.48566ZM95.9961 6.63256C97.7588 6.63256 97.9751 7.24103 98.5937 7.24103C98.7884 7.24976 98.9762 7.1671 99.1022 7.01716H99.3091L99.3242 9.74957H99.1174C98.9673 9.23332 98.7163 8.75255 98.3793 8.33553C97.8139 7.64096 96.9628 7.24779 96.072 7.26973C95.0322 7.26973 93.852 7.98919 93.852 9.25016C93.852 10.9302 95.9961 11.3014 96.8689 11.6286C97.848 11.9979 100.002 12.8455 100.002 15.2412C100.002 17.6368 98.0643 18.7964 96.497 18.7964C95.0113 18.7964 94.2637 18.1362 93.5389 18.1898C93.2575 18.215 93.0095 18.3861 92.8843 18.6414H92.63V14.7111H92.8918C93.036 15.4426 93.3559 16.1272 93.8235 16.705C94.5464 17.5373 95.239 18.008 96.4799 18.008C97.7209 18.008 98.6544 17.2847 98.6544 16.0333C98.6544 14.7819 97.3945 14.0912 95.7646 13.5459C94.2751 13.0464 92.4896 12.1108 92.4896 10.1571C92.4896 8.2035 94.2334 6.63256 95.9961 6.63256ZM87.653 6.63256C89.4157 6.63256 89.632 7.24103 90.2506 7.24103C90.4453 7.24976 90.6331 7.1671 90.7591 7.01716H90.9678L90.9811 9.74957H90.7743C90.6246 9.23314 90.3736 8.75229 90.0362 8.33553C89.4708 7.64096 88.6197 7.24779 87.7289 7.26973C86.6909 7.26973 85.5088 7.98919 85.5088 9.25016C85.5088 10.9302 87.653 11.3014 88.5258 11.6286C89.5049 11.9979 91.6585 12.8455 91.6585 15.2412C91.6585 17.6368 89.7212 18.7964 88.1539 18.7964C86.6682 18.7964 85.9206 18.1362 85.1957 18.1898C84.9144 18.215 84.6664 18.3861 84.5411 18.6414H84.2869V14.7111H84.5487C84.6929 15.4426 85.0128 16.1272 85.4804 16.705C86.2033 17.5373 86.8959 18.008 88.1368 18.008C89.3777 18.008 90.3075 17.2905 90.3075 16.0391C90.3075 14.7877 89.0476 14.0969 87.4177 13.5516C85.9282 13.0522 84.1408 12.1203 84.1408 10.1629C84.1408 8.20541 85.8902 6.63256 87.653 6.63256ZM62.616 7.03055V7.26399C62.616 7.26399 61.134 7.44769 61.134 8.71439V18.6529H60.4377L60.4293 18.6412C60.1581 18.2643 53.376 8.84072 53.3146 8.74883C52.3716 7.35201 51.3526 7.26591 51.3526 7.26591V7.03629H54.9578L60.3447 14.5983V8.7163C60.3447 7.40368 58.8267 7.26591 58.8267 7.26591V7.03247L58.821 7.03055H62.616ZM74.3005 7.03055V7.26399C74.3005 7.26399 72.8186 7.44769 72.8186 8.71439V18.6529H72.1222C72.1222 18.6529 65.0618 8.84259 64.9992 8.74883C64.0561 7.35201 63.0372 7.26591 63.0372 7.26591V7.03629H66.6424L72.0236 14.5983V8.7163C72.0236 7.40368 70.5056 7.26591 70.5056 7.26591V7.03247V7.03055H74.3005ZM82.6209 7.03438V9.26929H82.4501C82.4501 9.26929 82.416 8.67421 81.7215 8.15758C81.259 7.8109 80.3151 7.77568 79.6584 7.77404L79.5223 7.77411C79.4349 7.77436 79.3545 7.77489 79.2833 7.77489H78.086V11.9424L79.0392 11.9423C79.4841 11.9405 80.5217 11.9094 80.8449 11.6649C81.1643 11.4222 81.3702 11.0574 81.4141 10.6565H81.5887V14.1371H81.4141C81.3604 13.7475 81.1557 13.3952 80.8449 13.1574C80.4787 12.8685 79.4123 12.8417 78.9967 12.8417H78.086V17.8301H80.0271C81.008 17.8301 81.7044 17.4799 82.1769 16.9499C82.4833 16.5687 82.6918 16.1172 82.7841 15.6353H83.0782L82.5355 18.649H74.9969V18.4175C74.9969 18.4175 74.9995 18.4176 75.0044 18.4177L75.026 18.4178C75.2136 18.4161 76.2454 18.3446 76.2454 16.9843V8.68951C76.2454 7.35361 75.2477 7.2685 75.036 7.26547L75.0101 7.26549C75.0058 7.26557 75.0025 7.26567 75.0003 7.26576L74.9969 7.26591V7.03438H82.6209ZM50.2654 7.03247V7.26399L50.262 7.26387C50.1909 7.2616 49.0169 7.24619 49.0169 8.69717V16.9805C49.0169 18.3408 50.0487 18.4123 50.2363 18.414L50.2579 18.4139C50.2628 18.4138 50.2654 18.4137 50.2654 18.4137V18.6471H45.8196V18.4137C45.8196 18.4137 45.8222 18.4138 45.8271 18.4139L45.8487 18.414C46.0363 18.4123 47.0682 18.3408 47.0682 16.9805V8.69717C47.0682 7.24619 45.8941 7.2616 45.823 7.26387L45.8196 7.26399V7.03247H50.2654ZM52.8953 8.98419L53.6941 10.1323V16.9824C53.6941 18.2931 55.2026 18.4079 55.2026 18.4079V18.6414H51.4077V18.4079C51.4077 18.4079 52.8953 18.2395 52.8953 16.9728V8.98419ZM64.576 8.98419L65.3749 10.1323V16.9824C65.3749 18.2931 66.8833 18.4079 66.8833 18.4079V18.6414H63.0884V18.4079C63.0884 18.4079 64.576 18.2395 64.576 16.9728V8.98419Z" fill="#0A0406"/><path d="M0 2.84371C0 1.74539 1.36997 -1.28743 6.68476 0.610718C11.9995 2.50886 15.0545 1.31487 16.3827 0.0500767C16.3827 0.0500767 17.2802 1.13692 17.9405 3.08864C17.489 3.53453 17.0249 3.88345 16.5542 4.15092L16.5535 4.14486C17.5971 12.1814 14.1494 16.5058 12.5308 18.6871C11.2444 20.3748 11.1533 21.1229 11.6106 21.8481C9.92752 22.579 8.43611 22.1849 7.86687 22.0605C7.64364 21.7352 7.46991 21.3781 7.35146 21.0011C6.9904 21.2732 6.73502 21.4329 6.62593 21.5171C6.60813 21.5332 6.58322 21.5388 6.56031 21.5318C6.53739 21.5247 6.51981 21.5061 6.51398 21.4826C4.97135 17.9121 3.812 11.747 2.21054 5.4728C2.05116 4.85092 1.83105 4.82796 1.6887 4.81648C1.68787 4.81576 1.69862 4.81457 1.71921 4.81224C0.168429 4.66716 0 3.39536 0 2.84371ZM14.3282 4.86677L14.3023 4.86935L9.9638 14.8405C10.3819 15.4959 10.8767 16.1126 11.365 16.3486L11.3696 16.3412C14.8431 11.2877 14.3481 5.48102 14.3282 4.86677ZM14.0435 4.89078C13.8157 4.90466 13.589 4.90608 13.3638 4.89676L9.43459 13.9276C9.54915 14.1431 9.67781 14.3734 9.81705 14.6039L14.0435 4.89078ZM12.4767 4.80669L8.9432 12.9256C9.0123 13.0796 9.13529 13.3456 9.29787 13.6649L13.1177 4.88231C12.9021 4.86599 12.6882 4.84027 12.4767 4.80669ZM11.626 4.62942L8.46571 11.892C8.60315 12.1921 8.72145 12.4476 8.81449 12.6444L12.2415 4.76601C12.0336 4.72714 11.8283 4.68111 11.626 4.62942ZM10.8046 4.38579L7.99197 10.8492C8.11455 11.1206 8.23043 11.3763 8.33733 11.6109L11.4006 4.56916C11.1983 4.51276 10.9994 4.45112 10.8046 4.38579ZM10.0048 4.09136L7.51997 9.80039C7.63816 10.0638 7.75338 10.3201 7.8641 10.5658L10.5867 4.31068C10.3879 4.24034 10.1937 4.16666 10.0048 4.09136ZM9.22042 3.76009L7.04935 8.74905C7.16494 9.00777 7.27964 9.26419 7.39221 9.51543L9.79145 4.00485C9.59464 3.92366 9.40403 3.84139 9.22042 3.76009ZM8.44807 3.40958L6.58118 7.69946C6.66624 7.89042 6.75173 8.08222 6.83716 8.27372L6.92219 8.46427L9.00997 3.66605C8.79983 3.57137 8.59987 3.47917 8.41145 3.39287L8.44807 3.40958ZM7.67705 3.04901L6.11183 6.64445C6.22365 6.89608 6.33803 7.15329 6.45369 7.41314L8.23695 3.31079C8.04016 3.21833 7.85379 3.13117 7.67705 3.04901ZM6.90217 2.69294L5.64307 5.58849C5.75235 5.83489 5.86674 6.09267 5.98466 6.35819L7.46803 2.9521C7.26661 2.85897 7.07842 2.77275 6.90217 2.69294ZM6.12763 2.35052L5.17683 4.53629C5.28049 4.77042 5.3943 5.02736 5.5158 5.30147L6.69141 2.598C6.48717 2.50653 6.30004 2.42435 6.12763 2.35052ZM3.4588 1.6976L3.35851 1.69742L3.36879 1.70268C3.6204 1.8274 4.02525 1.98188 4.56719 3.15752C4.56719 3.15752 4.64617 3.33649 4.78315 3.64638L4.84098 3.7772C4.90214 3.91552 4.97222 4.07398 5.04987 4.24945L5.91509 2.26062C5.01388 1.88456 4.54573 1.75966 4.08559 1.71818L4.02591 1.71326C3.8468 1.6998 3.66611 1.69788 3.4588 1.6976ZM2.0208 2.44572L1.98062 2.44697C1.96741 2.44779 1.95426 2.449 1.94119 2.45061C1.94075 2.4505 1.94036 2.45055 1.93998 2.4506C1.78269 2.47003 1.6354 2.54661 1.52746 2.66768C1.5254 2.66912 1.52336 2.67057 1.52132 2.67203C1.41653 2.79104 1.35289 2.94765 1.35289 3.11925C1.35289 3.49123 1.65192 3.79279 2.0208 3.79279C2.38967 3.79279 2.6887 3.49123 2.6887 3.11925C2.6887 2.74727 2.38967 2.44572 2.0208 2.44572Z" fill="#FCC978"/><path d="M9.17671 21.6262C9.15313 21.6771 9.11099 21.7169 9.05907 21.7372C8.85224 21.8141 8.63429 21.8561 8.41393 21.8616C8.53537 21.8138 8.65871 21.7678 8.78204 21.7277C8.91089 21.6839 9.04282 21.65 9.17671 21.6262ZM9.3342 21.299L9.30274 21.3678C9.27099 21.4366 9.23791 21.5062 9.19948 21.5822C9.05317 21.6065 8.9091 21.643 8.76876 21.6913C8.61506 21.743 8.46516 21.8023 8.32665 21.8539C8.17775 21.852 8.03 21.8275 7.88834 21.7812L7.86746 21.7544C7.9889 21.7085 8.11793 21.6588 8.24696 21.609C8.42532 21.5478 8.59229 21.477 8.78204 21.4177C8.96067 21.3558 9.14607 21.3159 9.3342 21.299ZM9.49359 20.9718C9.44236 21.0675 9.39872 21.1536 9.35887 21.2397H9.3342C9.1401 21.2574 8.94891 21.2992 8.76496 21.3641C8.58281 21.4234 8.40634 21.4961 8.22988 21.5669C8.09895 21.6205 7.96803 21.6722 7.83521 21.7181C7.78018 21.6396 7.73085 21.5612 7.68721 21.4904H7.70618C7.89023 21.4387 8.0667 21.3603 8.24506 21.299C8.42342 21.2378 8.5904 21.167 8.78014 21.1077C8.95867 21.0451 9.14408 21.0046 9.3323 20.9871C9.38564 20.9782 9.43954 20.9731 9.49359 20.9718ZM2.14472 1.75314C2.5318 1.65365 3.5773 1.4623 4.2528 2.99306L4.93019 4.52382L4.80686 4.8051L4.93019 5.0902L5.21861 4.42815L5.36851 4.3363L5.58102 4.69029L5.12943 4.96583L5.39887 5.57239L5.26984 5.87089L5.39507 6.16174L5.70056 5.45758L5.84857 5.36765L6.05349 5.72164L5.58482 6.00675L5.85995 6.6267L5.72333 6.94242L5.84857 7.23327L6.15975 6.50807L6.30585 6.42005L6.53924 6.80274L6.05729 7.09741C6.14836 7.30981 6.22236 7.4801 6.31724 7.6925L6.17303 8.02352L6.29826 8.31437L6.63981 7.53176L6.78212 7.44375L7.02879 7.86088L6.53165 8.1632C6.62842 8.36986 6.69104 8.52293 6.78591 8.73724L6.63601 9.08357L6.76124 9.3725L7.11797 8.55355L7.25838 8.46744L7.50884 8.9018L7.00032 9.21177C7.10089 9.43182 7.15971 9.56959 7.25648 9.78581L7.10089 10.1436L7.22802 10.4306L7.60751 9.57916L7.74603 9.49497L8.01926 9.95228L7.49936 10.2699C7.59992 10.4938 7.64926 10.6201 7.74603 10.8325L7.6132 11.2094L7.74033 11.4945L8.11983 10.6201L8.25644 10.5359L8.52778 11.0028L7.99649 11.3261C8.10085 11.5558 8.1407 11.6648 8.23557 11.8715V11.8887L8.07618 12.2561L8.20521 12.5354L8.5847 11.6514L8.71942 11.5691L8.98697 12.0418L8.44999 12.369C8.56193 12.6139 8.60747 12.7134 8.69665 12.9047V12.9239L8.54486 13.274L8.67389 13.5553L9.05338 12.6809L9.1862 12.6005L9.45943 13.0789L8.92435 13.4041C8.97179 13.4979 8.94333 13.4405 8.97179 13.4979C9.0401 13.6357 9.1141 13.7773 9.18999 13.9208L9.03061 14.2862C9.07488 14.3704 9.12105 14.4565 9.16912 14.5446L9.53154 13.7103L9.66246 13.6299L9.9319 14.0853L9.44425 14.3819C9.55051 14.5694 9.60364 14.6555 9.71749 14.8354L9.56 15.197C9.60427 15.2583 9.64981 15.3221 9.69662 15.3884L9.72128 15.3999L10.0116 14.734L10.1406 14.6555L10.3531 15.0095L9.98693 15.2315C10.4347 15.8629 10.9186 16.3413 11.3683 16.3528L11.3306 16.3504C11.4552 16.1755 11.5258 16.0734 11.5258 16.0734C11.0305 17.0301 11.2165 17.4951 10.5391 18.3695C15.1746 14.0222 16.2087 9.91592 16.5199 5.89768C16.562 6.83742 16.5328 7.77902 16.4326 8.71428H16.3909L16.37 8.81186L16.4212 8.79656C16.4124 8.87182 16.4029 8.94708 16.3928 9.02234L16.3188 9.04339L16.296 9.13906L16.3814 9.1161C16.3719 9.19455 16.3605 9.26918 16.3491 9.34572L16.2391 9.37442L16.2163 9.47009L16.3358 9.44139L16.2979 9.671L16.1556 9.70353L16.1309 9.79538L16.2827 9.76476C16.2701 9.84258 16.2561 9.91975 16.241 9.99629C16.1821 10.0097 16.1233 10.0307 16.0645 10.0307L16.0379 10.1207C16.1017 10.1138 16.165 10.1036 16.2277 10.09C16.2125 10.1685 16.1973 10.245 16.1802 10.3216C16.1113 10.336 16.0416 10.3463 15.9715 10.3522L15.9431 10.4402C16.0157 10.4361 16.0879 10.4271 16.1594 10.4134C16.1417 10.4912 16.124 10.5684 16.1062 10.6449C16.0285 10.6581 15.9498 10.6652 15.871 10.666L15.8425 10.7502H15.8747C15.9459 10.7501 16.0169 10.745 16.0873 10.7349C16.0683 10.8133 16.0493 10.8899 16.0303 10.9664C15.9787 10.9726 15.9268 10.9758 15.8747 10.976H15.7647L15.7362 11.0583C15.783 11.0606 15.8299 11.0606 15.8766 11.0583H16.0095C15.9892 11.1361 15.9684 11.2126 15.9469 11.2879H15.8747C15.8017 11.288 15.7287 11.2822 15.6565 11.2706L15.6262 11.351C15.7083 11.3657 15.7914 11.3734 15.8747 11.374H15.9203C15.8988 11.4492 15.8766 11.5245 15.8539 11.5998C15.7497 11.5974 15.646 11.5839 15.5446 11.5596L15.5123 11.638C15.6156 11.6639 15.7211 11.6793 15.8273 11.684C15.8045 11.7592 15.7811 11.8332 15.7571 11.9059C15.6459 11.8957 15.536 11.8745 15.4288 11.8428L15.3966 11.9193C15.5056 11.9526 15.6174 11.9756 15.7305 11.9882L15.6565 12.2044C15.5444 12.1864 15.4339 12.1589 15.3264 12.1221H15.3112L15.2789 12.1968H15.2998C15.4062 12.2342 15.5153 12.2629 15.6262 12.2829L15.5503 12.4933C15.4746 12.4762 15.3999 12.4552 15.3264 12.4302L15.1917 12.3824L15.1575 12.4551L15.2998 12.5086C15.3732 12.5342 15.4472 12.5558 15.5218 12.5737L15.4421 12.7784L15.3264 12.7421C15.2391 12.7134 15.1537 12.6809 15.0702 12.6445L15.0361 12.7172C15.1215 12.7536 15.2106 12.7899 15.2998 12.8205L15.4118 12.855L15.3302 13.0463L15.2349 13.0128C15.1396 12.9773 15.0446 12.9368 14.9507 12.8952L14.9146 12.966C15.0323 13.0234 15.1613 13.0789 15.2941 13.1248L15.2106 13.3161C15.0778 13.2645 14.9469 13.2071 14.8141 13.1477L14.778 13.2166C14.9089 13.2759 15.0418 13.3353 15.1784 13.3888L15.0911 13.5802L14.797 13.452L14.6812 13.4003L14.6452 13.4692L14.7666 13.5228C14.8691 13.5649 14.9602 13.6089 15.0588 13.651L14.9697 13.8423L14.7989 13.7658L14.5465 13.6548L14.5086 13.7218L14.7666 13.8366L14.9412 13.871L14.8482 14.0624L14.8046 14.0432C14.6737 13.9858 14.5427 13.9265 14.408 13.8768L14.3701 13.9437C14.5048 13.9954 14.6395 14.0566 14.7723 14.1159L14.8122 14.1332L14.7154 14.3245C14.5701 14.2577 14.4212 14.1989 14.2695 14.1485H14.2562L14.2164 14.2135H14.2467C14.3932 14.2631 14.537 14.3206 14.6775 14.3857L14.5769 14.5771C14.4763 14.535 14.3739 14.4929 14.2695 14.4604C14.2126 14.4412 14.1538 14.4259 14.093 14.4125L14.0513 14.4776C14.1154 14.4915 14.1787 14.5088 14.241 14.5293C14.3435 14.5618 14.4365 14.602 14.5332 14.6421L14.427 14.8335C14.3739 14.8144 14.3188 14.7933 14.2638 14.7761C14.1486 14.7379 14.0296 14.7123 13.909 14.6995L13.8653 14.7684C13.9945 14.779 14.1219 14.8053 14.2448 14.8469L14.3909 14.9005L14.2771 15.0918H14.2676C14.0882 15.0304 13.8989 15.0038 13.7097 15.0134L13.6585 15.088H13.6965C13.8799 15.0778 14.0636 15.1038 14.2372 15.1645L14.112 15.3559C13.9748 15.3225 13.8334 15.3109 13.6927 15.3214C13.62 15.3272 13.5478 15.3374 13.4764 15.352L13.4175 15.4362C13.5099 15.4143 13.6038 15.3996 13.6984 15.3922C13.8257 15.3832 13.9536 15.3935 14.0779 15.4228L13.9374 15.6371C13.8586 15.6295 13.7791 15.6295 13.7003 15.6371C13.5325 15.6528 13.367 15.6874 13.2069 15.7405L13.1367 15.8342H13.1557C13.3331 15.7726 13.5172 15.7327 13.7041 15.7156C13.7672 15.7104 13.8307 15.7104 13.8938 15.7156L13.7306 15.9529H13.7041C13.5099 15.9712 13.3187 16.0136 13.1348 16.0791C13.0494 16.1078 12.9659 16.1385 12.8825 16.171L12.8028 16.2724C12.9204 16.2265 13.038 16.1825 13.1557 16.1442C13.3235 16.086 13.4973 16.0469 13.6737 16.0275C13.613 16.1181 13.5497 16.2073 13.4839 16.2954C13.3677 16.3195 13.253 16.3508 13.1405 16.3891C12.9603 16.4504 12.7819 16.5231 12.6054 16.5939L12.5181 16.6283L12.4347 16.7278L12.6244 16.6532C12.8009 16.592 12.9773 16.5212 13.1576 16.4618C13.243 16.435 13.3284 16.4102 13.4156 16.3891C13.3372 16.4937 13.2588 16.5958 13.1804 16.6953L13.1367 16.7087C12.9565 16.7699 12.761 16.8503 12.6016 16.9134C12.4422 16.9766 12.2848 17.0378 12.1235 17.0914L12.0457 17.1794L12.0855 17.1679C12.2696 17.1162 12.465 17.0397 12.6244 16.9766C12.7838 16.9134 12.9432 16.8503 13.1045 16.7948C13.0096 16.9134 12.9153 17.0282 12.8217 17.1392L12.6016 17.2272C12.4252 17.2923 12.2582 17.3631 12.0684 17.4186C11.9652 17.451 11.86 17.4765 11.7535 17.4951L11.689 17.5621C11.8234 17.545 11.956 17.5162 12.0855 17.476C12.2696 17.4243 12.4479 17.3554 12.6244 17.2846L12.7345 17.2425C12.6244 17.3707 12.5181 17.4932 12.4119 17.6118C12.298 17.6558 12.1842 17.6979 12.0684 17.7343C11.8901 17.7937 11.7041 17.8266 11.5163 17.8319H11.4347L11.3835 17.8835C11.4277 17.8858 11.472 17.8858 11.5163 17.8835C11.7097 17.879 11.9015 17.8461 12.0855 17.7859C12.1652 17.7611 12.2449 17.7343 12.3227 17.7056C12.2101 17.8293 12.1013 17.9473 11.9963 18.0596C11.8404 18.1066 11.679 18.1324 11.5163 18.1361C11.3973 18.1354 11.2789 18.1207 11.1634 18.0921L11.1178 18.1361C11.2477 18.1723 11.3816 18.1916 11.5163 18.1935C11.6525 18.1923 11.7882 18.1749 11.9204 18.1418L11.6263 18.4576H11.5087C11.3209 18.4539 11.135 18.419 10.9584 18.3542L10.9072 18.337L10.8636 18.3772L10.9395 18.4059C11.122 18.4736 11.3143 18.5104 11.5087 18.515H11.5656L11.3341 18.758C11.205 18.7405 11.0779 18.7104 10.9546 18.668C10.8617 18.6355 10.7649 18.5972 10.6719 18.5571L10.6302 18.5953C10.7307 18.6393 10.8332 18.6814 10.9376 18.7178C11.0505 18.7579 11.1667 18.788 11.2848 18.8077L11.095 19.0182L10.9641 18.978C10.7896 18.9187 10.6207 18.8441 10.4518 18.7675L10.412 18.8039L10.498 18.8432C10.6409 18.9087 10.7832 18.9732 10.9414 19.0259L11.0476 19.0603L10.8692 19.2516C10.7212 19.1904 10.5751 19.1254 10.4309 19.0603L10.2127 18.9646L10.1994 19.0029L10.4366 19.1081C10.5751 19.1694 10.7137 19.2325 10.856 19.288L10.6871 19.4793L10.4575 19.3779C10.3076 19.3091 10.1558 19.2421 9.99831 19.1866L9.95847 19.221C10.1216 19.2689 10.281 19.3397 10.4385 19.4124L10.6529 19.5081L10.4898 19.6994L10.4594 19.686C10.2857 19.6048 10.1077 19.5332 9.92621 19.4717C9.86388 19.4512 9.80054 19.434 9.73646 19.42L9.69472 19.4564C9.76985 19.4708 9.844 19.49 9.91672 19.5138C10.0957 19.5761 10.2712 19.6483 10.4423 19.73H10.4594L10.3 19.9214C10.1791 19.8679 10.0556 19.8207 9.93 19.7798C9.765 19.7238 9.59175 19.6967 9.41769 19.6994L9.36646 19.7453C9.55319 19.7351 9.74011 19.7617 9.91672 19.8238C10.0344 19.864 10.1501 19.9118 10.2659 19.9615L10.1065 20.1529C10.0476 20.1299 9.98883 20.1089 9.93 20.0897C9.74707 20.0268 9.55365 20.0008 9.36077 20.0132C9.23234 20.0247 9.10528 20.0484 8.98127 20.084L8.91107 20.1452C9.05859 20.0989 9.21063 20.0688 9.36456 20.0553C9.55257 20.0444 9.74086 20.071 9.91862 20.1337C9.97365 20.151 10.0249 20.1701 10.078 20.1912C10.0192 20.2639 9.96606 20.3327 9.91672 20.3959C9.73838 20.336 9.55027 20.3113 9.36266 20.3232C9.16858 20.3409 8.97739 20.3827 8.79343 20.4476C8.64922 20.4954 8.50881 20.5509 8.37029 20.6064L8.2887 20.6772C8.45947 20.6102 8.63024 20.5432 8.80481 20.4858C8.98331 20.4231 9.16874 20.3826 9.35697 20.3653C9.53366 20.3548 9.71072 20.3782 9.87877 20.4342C9.81805 20.5126 9.76493 20.5872 9.71749 20.6561C9.59773 20.6312 9.47508 20.6235 9.35318 20.6332C9.15909 20.6509 8.96791 20.6927 8.78394 20.7575C8.60178 20.8188 8.42152 20.8953 8.24885 20.9623C8.07618 21.0292 7.90352 21.0981 7.72705 21.1536L7.71187 21.1651L7.66633 21.2034L7.72136 21.1861C7.90541 21.1345 8.08188 21.056 8.26024 20.9948C8.4386 20.9336 8.60558 20.8628 8.79532 20.8035C8.97392 20.7411 9.1593 20.7006 9.34748 20.6829C9.45923 20.6746 9.57158 20.6817 9.68144 20.704C9.62072 20.7939 9.57138 20.8762 9.52774 20.9508C9.4646 20.9456 9.40114 20.9456 9.338 20.9508C9.1439 20.9685 8.9527 21.0102 8.76876 21.0752C8.5866 21.1364 8.41014 21.2148 8.23367 21.2799C8.05721 21.345 7.88834 21.4158 7.69859 21.4713L7.67013 21.498C7.60751 21.3928 7.57525 21.3316 7.55438 21.2914C7.53351 21.2512 7.45572 21.3143 7.41966 21.3354L7.22992 20.9221C7.75908 20.6584 8.47933 19.934 9.17882 19.1229C8.28335 17.7513 7.08558 14.6743 5.91419 11.49L5.78019 11.125C5.71327 10.9423 5.64648 10.7595 5.57988 10.5769L5.44694 10.2119C4.58472 7.84176 3.76141 5.53037 3.11243 3.93639C3.105 3.90052 3.08156 3.87012 3.04891 3.85403C3.01626 3.83794 2.97807 3.83797 2.94545 3.85411C2.78062 3.96726 2.58853 4.03337 2.38949 4.04546C2.8923 3.84226 3.13998 3.26943 2.94545 2.75962L3.03419 2.9776C3.21843 3.43137 3.39753 3.88009 3.57193 4.32327L3.87061 4.20569L4.11905 4.10971L4.26699 4.05408L4.29485 4.04365C4.06269 3.46977 3.89286 3.04918 3.81449 2.85721C3.39515 1.82586 2.67791 1.7034 2.14472 1.75314ZM5.36661 17.4071C5.55636 17.7898 6.19011 19.4774 6.61704 20.3806C6.75176 20.6159 6.85801 20.7958 7.19576 20.6427L7.61131 20.4533C7.42856 20.6159 7.23383 20.7643 7.02879 20.8972C6.83904 21.0197 6.63791 20.8972 6.43868 20.5317C6.18442 20.0591 5.61328 18.3045 5.36661 17.4071ZM7.23181 18.2452C7.35302 18.2 7.48718 18.206 7.60395 18.2618C7.72073 18.3176 7.81025 18.4185 7.85228 18.5418C7.89781 18.6624 7.88952 18.7969 7.82955 18.9109C7.76957 19.0249 7.66375 19.1072 7.5392 19.1368C7.37765 19.1987 7.20055 19.2061 7.03448 19.1579C6.79266 19.0713 6.58459 18.909 6.44057 18.6948C6.43215 18.685 6.42513 18.6741 6.4197 18.6623C6.41335 18.6531 6.41335 18.6409 6.4197 18.6317L6.45006 18.6068L6.53545 18.5341C6.5426 18.5261 6.55341 18.5224 6.56391 18.5245C6.57456 18.5288 6.5824 18.5381 6.58478 18.5494V18.5781C6.65076 18.6998 6.75297 18.7975 6.87699 18.8575C6.94798 18.8974 7.02305 18.9295 7.10089 18.9531L7.08381 18.9417C7.01829 18.9089 6.9704 18.8487 6.95289 18.7771C6.88821 18.5566 7.00932 18.3242 7.22612 18.2528L7.23181 18.2452ZM7.5162 18.4846C7.45693 18.4608 7.39068 18.4621 7.33238 18.4882L7.33807 18.4805C7.27414 18.4936 7.21947 18.535 7.18927 18.5933C7.15908 18.6516 7.15658 18.7206 7.18248 18.7809C7.23981 18.8907 7.37183 18.9368 7.48418 18.8862C7.54249 18.8736 7.59307 18.8373 7.62397 18.7859C7.65486 18.7344 7.66332 18.6724 7.64736 18.6145C7.62274 18.5551 7.57546 18.5083 7.5162 18.4846ZM9.5334 18.5023L9.49048 18.5022C9.52321 18.5475 9.55605 18.5921 9.58901 18.6358C9.62127 18.5961 9.65363 18.5565 9.68583 18.5169C9.63536 18.5085 9.58447 18.5037 9.5334 18.5023ZM9.27933 18.1936C9.3383 18.2858 9.39941 18.3748 9.46089 18.461L9.4104 18.4634C9.51294 18.4554 9.61579 18.4608 9.71648 18.4792C9.77615 18.4057 9.83522 18.3323 9.89355 18.2592C9.69578 18.1956 9.48678 18.1731 9.27933 18.1936ZM9.18459 17.8958L9.11024 17.9101L9.09753 17.9132C9.14866 17.9956 9.19999 18.0761 9.25154 18.1547L9.21178 18.1593C9.45088 18.1257 9.69365 18.1482 9.92142 18.2242C9.97722 18.1542 10.0325 18.0843 10.0869 18.0149C9.72688 17.8712 9.45755 17.8489 9.18459 17.8958ZM7.24889 16.9612C7.26622 16.9652 7.27917 16.9798 7.28115 16.9976L7.27546 17.0053L7.49177 17.6137C7.49683 17.6233 7.49683 17.6348 7.49177 17.6444C7.4854 17.6525 7.47541 17.6568 7.4652 17.6558H7.30961C7.28801 17.6593 7.26685 17.6475 7.25838 17.6271L7.11797 17.2291H7.0895L6.84094 17.2923C6.90844 17.3411 6.95573 17.4133 6.97376 17.4951C7.03572 17.7155 6.91315 17.9458 6.69673 18.0156C6.58046 18.0593 6.45248 18.0593 6.33621 18.0156C6.21814 17.9685 6.12609 17.8722 6.08385 17.7515C6.01549 17.6095 6.01549 17.4438 6.08385 17.3018C6.08598 17.2916 6.09243 17.2827 6.10152 17.2776C6.11062 17.2724 6.12147 17.2715 6.13129 17.2751H6.15595L6.31724 17.3344C6.32507 17.3363 6.33145 17.3421 6.33432 17.3497C6.33649 17.3584 6.33449 17.3674 6.32923 17.3743L6.32293 17.3803C6.26378 17.4538 6.25196 17.5552 6.29257 17.6405C6.31459 17.7044 6.36263 17.7558 6.42461 17.7818C6.48658 17.8077 6.55659 17.8058 6.61704 17.7764C6.72551 17.7407 6.78666 17.6249 6.75555 17.5142C6.73653 17.4515 6.69116 17.4009 6.63218 17.3753L6.60945 17.3669C6.60003 17.3656 6.59183 17.3602 6.58679 17.3525L6.58288 17.3439L6.55632 17.2597L6.53545 17.1947C6.53163 17.1862 6.53163 17.1764 6.53545 17.1679C6.54059 17.1598 6.54884 17.1543 6.55822 17.1526L7.24889 16.9612ZM9.00386 17.6288L8.96332 17.6417L8.93897 17.6503C8.9842 17.7273 9.02956 17.8028 9.07507 17.8768L9.13244 17.8646C9.43094 17.8054 9.71998 17.8235 10.1124 17.9817C10.1663 17.9135 10.2191 17.8457 10.2708 17.7787C9.75676 17.5426 9.35518 17.5225 9.00386 17.6288ZM8.80889 17.3734L8.78551 17.3823C8.82967 17.4613 8.87394 17.5389 8.91833 17.615L8.93001 17.6106L8.97108 17.5969C8.97788 17.5948 8.98488 17.5926 8.9924 17.5903C9.35476 17.4806 9.76879 17.5021 10.2959 17.7462C10.3463 17.6808 10.3957 17.6163 10.4441 17.5529L10.3018 17.4894L10.1871 17.4356L10.1318 17.4122C9.70061 17.2356 9.29079 17.2003 8.80889 17.3734ZM8.66147 17.1233L8.64759 17.1303C8.6869 17.2036 8.72629 17.2758 8.76575 17.3468L8.73119 17.3597C9.25208 17.1557 9.68938 17.1872 10.1487 17.3758L10.2029 17.3988L10.3554 17.4698L10.4627 17.5176L10.469 17.5202C10.5209 17.452 10.5715 17.3851 10.6207 17.3197C10.6105 17.3151 10.5999 17.3103 10.5888 17.3051L10.2782 17.1512C9.72729 16.8915 9.2394 16.8447 8.66147 17.1233ZM10.6998 17.0507L10.6301 17.0184L10.3727 16.8902C9.73299 16.5736 9.24275 16.5219 8.52423 16.857L8.50799 16.8647C8.54815 16.9426 8.58837 17.0193 8.62866 17.0949L8.58323 17.1175C9.18025 16.8098 9.68168 16.8391 10.2391 17.0891L10.3286 17.131L10.5723 17.2527C10.5996 17.266 10.6239 17.2773 10.6459 17.2869C10.6964 17.2189 10.7456 17.153 10.793 17.0891C10.7635 17.0781 10.7327 17.0653 10.6998 17.0507ZM8.41487 16.5934L8.37919 16.6105C8.41628 16.6849 8.4534 16.7584 8.49057 16.8308L8.4417 16.8541C9.18583 16.4898 9.69033 16.5226 10.3308 16.8274L10.6545 16.9878L10.6669 16.9936C10.7219 17.0194 10.7711 17.0404 10.8169 17.0573C10.8752 16.9783 10.9308 16.9029 10.9832 16.8312C10.8864 16.809 10.7878 16.7741 10.6742 16.7245L10.5635 16.6738L10.398 16.5936C9.69785 16.2535 9.22762 16.2092 8.41487 16.5934ZM9.18943 16.0398C9.01834 16.0695 8.83573 16.1198 8.64901 16.1849C8.53941 16.2231 8.43518 16.2641 8.33977 16.3051L8.24921 16.3454C8.28688 16.4235 8.32456 16.5005 8.36229 16.5765L8.32974 16.592C9.17383 16.1781 9.65924 16.2032 10.3573 16.5318L10.6052 16.6512L10.6297 16.6626C10.7739 16.729 10.892 16.7725 11.0079 16.7978C11.065 16.7194 11.1182 16.6461 11.1671 16.5784L11.2614 16.601C11.128 16.5719 10.9969 16.5331 10.8691 16.4848L10.854 16.4789C10.4011 16.5151 10.0331 16.3304 9.71853 16.0322C9.57271 16 9.39393 16.0043 9.18943 16.0398ZM6.84283 15.7864L7.08381 16.4676C7.0884 16.4759 7.08937 16.4857 7.08649 16.4948C7.08361 16.5039 7.07715 16.5113 7.06863 16.5154L6.87889 16.5824C6.87889 16.5824 6.70785 16.5343 6.51517 16.4922L6.44651 16.4777C6.40047 16.4683 6.3542 16.4596 6.30965 16.4523C6.11023 16.4156 5.90513 16.4254 5.71005 16.481C5.70195 16.4862 5.69193 16.4876 5.68275 16.4846C5.67357 16.4816 5.66618 16.4747 5.66261 16.4657L5.58102 16.2341C5.57721 16.2256 5.57721 16.2159 5.58102 16.2073C5.58698 16.198 5.59667 16.1917 5.60759 16.1901C5.83127 16.1506 6.06066 16.1584 6.28119 16.2131C6.4458 16.2444 6.60762 16.2892 6.76504 16.347L6.7954 16.3585L6.61704 15.8553C6.61217 15.8443 6.61217 15.8318 6.61704 15.8208C6.62073 15.8141 6.6263 15.8087 6.63294 15.8053L6.6436 15.8017L6.65499 15.7979L6.78971 15.7634C6.81066 15.7555 6.83409 15.7656 6.84283 15.7864ZM11.3143 16.3733L11.3117 16.3744C11.1846 16.421 11.0634 16.4518 10.9476 16.4684C11.0214 16.4944 11.0963 16.5171 11.1721 16.5366L11.1937 16.5415C11.2378 16.4803 11.2781 16.424 11.3143 16.3733ZM9.41489 15.6925L9.4068 15.6927C9.27321 15.6972 9.07549 15.7425 8.8301 15.8201C8.75395 15.8442 8.67442 15.8711 8.59221 15.9002C8.52288 15.9248 8.4533 15.9505 8.38362 15.977L8.24596 16.0304L8.12309 16.0802C8.15989 16.1587 8.19671 16.2363 8.23354 16.3129L8.25128 16.3044L8.32565 16.2716C8.42179 16.2304 8.52679 16.1891 8.63722 16.1506C8.82566 16.0848 9.0101 16.034 9.18332 16.0039C9.36758 15.972 9.53197 15.9648 9.67204 15.9863C9.58207 15.8969 9.49667 15.798 9.41489 15.6925ZM9.20949 15.4049L9.20081 15.4055C9.17206 15.4085 9.13667 15.415 9.09512 15.4248L9.02824 15.4418L8.95245 15.4636L8.86812 15.4899L8.77559 15.5206L8.67522 15.5556L8.56287 15.5963L8.50183 15.619C8.44891 15.6388 8.39568 15.659 8.34088 15.6802L8.00045 15.8151C8.03616 15.8933 8.07187 15.9706 8.10758 16.0471L8.23281 15.9965L8.26598 15.9835C8.37095 15.9424 8.47586 15.903 8.58024 15.8659C8.66283 15.8366 8.74274 15.8097 8.81931 15.7854L8.87592 15.7678L8.98382 15.7363C9.14756 15.6905 9.28416 15.663 9.3883 15.6572C9.32653 15.5764 9.26716 15.4919 9.20949 15.4049ZM9.03969 15.1353L9.02514 15.138C9.01791 15.1395 9.01027 15.1412 9.00223 15.1431L8.94927 15.1566L8.88712 15.1747L8.81617 15.197L8.6941 15.2382L8.60285 15.2706L8.50415 15.3067L8.36241 15.36L8.17672 15.4319L7.90541 15.5403L7.88104 15.5504C7.91605 15.6289 7.95104 15.7066 7.98603 15.7835L8.15796 15.715C8.21729 15.6915 8.27377 15.6693 8.32867 15.6481L8.48995 15.5867L8.61066 15.5422L8.71643 15.5046L8.81432 15.4713L8.90404 15.4424L8.98534 15.418L9.05795 15.3984L9.1216 15.3837C9.14633 15.3785 9.16864 15.3747 9.18843 15.3723C9.1374 15.2949 9.08802 15.2156 9.03969 15.1353ZM6.51457 14.9827L6.50888 14.9904L6.52596 15.0095L6.63791 15.1435V15.153C6.63791 15.153 6.63791 15.1779 6.61134 15.1894L5.41215 15.6218C5.40218 15.6268 5.39055 15.6272 5.38032 15.6227C5.3701 15.6183 5.36231 15.6096 5.35902 15.5989L5.3002 15.4324C5.29665 15.4228 5.29731 15.4121 5.30201 15.403C5.30671 15.3938 5.31501 15.3872 5.32487 15.3846L6.46334 14.9789C6.47927 14.9682 6.50039 14.9698 6.51457 14.9827ZM8.88314 14.8667L8.85702 14.8734L8.78806 14.8958L8.63015 14.9529L7.90369 15.2308L7.77864 15.276L7.7624 15.2813C7.79731 15.3613 7.8322 15.4406 7.86706 15.519L7.94873 15.4856L8.16434 15.3998L8.35034 15.3278L8.49296 15.2742L8.63998 15.2208L8.72833 15.19L8.84555 15.1515L8.91304 15.1311C8.92356 15.1281 8.9337 15.1252 8.94347 15.1226L8.99748 15.1089L9.021 15.1041C8.99077 15.0535 8.96096 15.0025 8.93149 14.9513L8.88314 14.8667ZM8.73801 14.6032L8.6732 14.6254L8.12455 14.8382L7.93707 14.9086L7.8217 14.9496L7.75653 14.9714L7.70058 14.9887C7.69201 14.9912 7.68383 14.9935 7.67602 14.9956L7.64278 15.0041C7.6781 15.0867 7.71338 15.1686 7.74864 15.2497L7.74911 15.2494L7.80696 15.2297L8.12142 15.1108L8.58592 14.9326L8.7308 14.8794L8.79593 14.8569L8.84619 14.841L8.86568 14.8359L8.82679 14.7667L8.80101 14.7206C8.78179 14.6862 8.76076 14.647 8.73801 14.6032ZM8.60545 14.3365L8.58918 14.3419L8.08167 14.5376L7.9371 14.5913L7.8416 14.6253L7.75543 14.6545L7.67869 14.6788L7.61147 14.698L7.55386 14.7121C7.54249 14.7146 7.5318 14.7167 7.52179 14.7184C7.55799 14.8045 7.59394 14.8895 7.62985 14.9738C7.63442 14.9727 7.64095 14.9712 7.64785 14.9694L7.69386 14.9568L7.74908 14.9396L7.81359 14.918L7.88746 14.892L7.97077 14.8615L8.1136 14.8076L8.60761 14.6154L8.70638 14.5788L8.72261 14.5733C8.68727 14.5044 8.64811 14.4252 8.60545 14.3365ZM8.48187 14.0746L8.05772 14.2402L7.94256 14.2825L7.8875 14.3019C7.68397 14.3728 7.52037 14.4177 7.40261 14.4313C7.43822 14.5176 7.47368 14.603 7.50909 14.6877C7.53533 14.6834 7.56755 14.6762 7.60529 14.666L7.67151 14.647L7.74732 14.6229L7.83255 14.594L7.92703 14.5604L8.07033 14.5071L8.58361 14.3093L8.59122 14.3069C8.55689 14.2352 8.52039 14.1576 8.48187 14.0746ZM6.11611 13.7237V13.7294C6.12222 13.7277 6.12879 13.7288 6.13396 13.7325C6.13913 13.7363 6.14234 13.7422 6.14267 13.7486L6.22806 13.9897C6.26104 14.1526 6.17451 14.3162 6.02193 14.3793C5.86936 14.4425 5.69382 14.3873 5.60379 14.248L5.50513 13.9686C5.50262 13.9633 5.50243 13.9572 5.50459 13.9518C5.50675 13.9463 5.51107 13.942 5.51651 13.9399L6.11611 13.7237ZM8.3602 13.8092L8.15699 13.8904L8.06637 13.9255L7.97309 13.9602C7.89265 13.9893 7.8155 14.0152 7.74203 14.0375C7.54902 14.0961 7.39114 14.1272 7.27695 14.1242C7.31485 14.2169 7.35239 14.309 7.38986 14.4001L7.3655 14.402C7.44263 14.397 7.54559 14.3749 7.67143 14.3378L7.77005 14.3072L7.87698 14.2712L7.98825 14.2313L8.15437 14.1681L8.46847 14.0457C8.43391 13.971 8.39778 13.8921 8.3602 13.8092ZM5.41215 14.1578C5.4475 14.1748 5.46921 14.2116 5.46713 14.251C5.46505 14.2905 5.4396 14.3248 5.40266 14.3379C5.35237 14.3558 5.29721 14.3293 5.27933 14.2786C5.26619 14.2414 5.2766 14.1999 5.30569 14.1734C5.33477 14.147 5.3768 14.1408 5.41215 14.1578ZM6.06867 13.8978L5.65502 14.0471L5.70246 14.181C5.76221 14.2611 5.87312 14.2811 5.95672 14.2269C6.05324 14.2104 6.12146 14.1226 6.11421 14.0241L6.06867 13.8978ZM8.23841 13.5382L8.15347 13.5722L7.95666 13.6481L7.8922 13.6715C7.77941 13.7111 7.67154 13.7441 7.56958 13.769C7.41052 13.808 7.27264 13.8259 7.16051 13.8184L7.15426 13.8182C7.19089 13.9099 7.22743 14.0009 7.26389 14.0911C7.37407 14.0972 7.5344 14.0665 7.73273 14.0063C7.78133 13.9916 7.8316 13.9752 7.88339 13.9574L7.98492 13.9213L8.11751 13.8709L8.34692 13.7799C8.31195 13.7026 8.27575 13.622 8.23841 13.5382ZM8.12679 13.2864L8.07551 13.3076C8.05028 13.3177 8.02435 13.3278 7.99412 13.3391C7.90455 13.3725 7.81153 13.4033 7.71595 13.4301C7.48081 13.4959 7.25963 13.5292 7.06415 13.5186L7.03472 13.5166C7.07009 13.6064 7.10538 13.6955 7.14058 13.7838L7.12384 13.7822C7.23797 13.7971 7.38653 13.7804 7.56196 13.7374C7.66282 13.7127 7.76973 13.68 7.88161 13.6408L7.98931 13.6011L8.22498 13.5081C8.19305 13.4364 8.1603 13.3624 8.12679 13.2864ZM5.83908 12.8722L6.01744 13.3754C6.02301 13.3892 6.01725 13.405 6.00416 13.4118L5.98708 13.4233L5.90928 13.4711C5.90267 13.4742 5.89503 13.4742 5.88841 13.4711C5.88386 13.4689 5.88017 13.4653 5.87775 13.4609L5.80113 13.2472L5.08958 13.4998C5.08363 13.503 5.07652 13.5031 5.0705 13.5C5.06448 13.497 5.06028 13.4912 5.05922 13.4845L5.01179 13.3487C5.00939 13.3428 5.00971 13.3362 5.01265 13.3307C5.01559 13.3251 5.02084 13.3212 5.02696 13.32L5.74231 13.0635L5.71574 12.9889L5.67779 12.8818C5.67542 12.877 5.67542 12.8713 5.67779 12.8665C5.68212 12.8621 5.68755 12.8591 5.69342 12.8577L5.70246 12.8569V12.8492H5.80113C5.81781 12.8456 5.83445 12.8556 5.83908 12.8722ZM8.0086 13.0169L7.89235 13.0581L7.75855 13.1025C7.7521 13.1045 7.74593 13.1064 7.74012 13.1082C7.54735 13.1663 7.3621 13.2031 7.18775 13.2104C7.09114 13.2144 7.00057 13.2091 6.91687 13.1934L6.90744 13.1914C6.94556 13.2894 6.98356 13.3866 7.02146 13.4829L7.00954 13.4817C7.21415 13.5027 7.4522 13.4702 7.70732 13.3988C7.80197 13.3723 7.89415 13.3417 7.98291 13.3086L8.0636 13.2774L8.11375 13.2568C8.07946 13.1789 8.04439 13.0989 8.0086 13.0169ZM7.89 12.744L7.91691 12.7322C7.56799 12.8895 7.17917 12.931 6.80633 12.8516L6.77313 12.8441C6.81332 12.9486 6.85336 13.0522 6.89328 13.155L6.87512 13.1511C6.96906 13.1742 7.07333 13.1826 7.18641 13.1779C7.35772 13.1707 7.54048 13.1344 7.73089 13.077L7.84496 13.0399L7.99574 12.9874C7.96114 12.9081 7.92588 12.8269 7.89 12.744ZM7.77125 12.4687L7.7953 12.4587C7.42979 12.6176 7.01876 12.63 6.64562 12.4948L6.63847 12.4922C6.67936 12.5996 6.72008 12.7061 6.76066 12.8117L6.74762 12.8085C7.11128 12.9003 7.49378 12.8737 7.84068 12.7336L7.8786 12.7176C7.84339 12.6362 7.80759 12.5532 7.77125 12.4687ZM5.5429 12.0888C5.61045 12.1338 5.65706 12.2045 5.6721 12.2848V12.2752C5.69727 12.3526 5.693 12.4362 5.66081 12.5101L5.64743 12.5374C5.64049 12.5434 5.63103 12.5449 5.62282 12.5419L5.61518 12.5374L5.49943 12.501C5.49056 12.4993 5.48291 12.4937 5.47856 12.4857C5.47578 12.4814 5.47485 12.4763 5.47578 12.4715L5.47856 12.4646C5.51792 12.4325 5.53245 12.3785 5.51461 12.3307C5.50698 12.2984 5.48684 12.2705 5.45868 12.2532C5.43052 12.236 5.39668 12.2308 5.36471 12.2389C5.31081 12.2708 5.28386 12.3344 5.2983 12.3958V12.4646C5.30993 12.5957 5.23173 12.7179 5.10856 12.7612C5.02658 12.7908 4.93621 12.7855 4.8582 12.7465C4.78019 12.7075 4.72125 12.6383 4.69491 12.5546C4.63194 12.4485 4.64503 12.3134 4.72717 12.2216C4.73466 12.2081 4.75147 12.203 4.76512 12.2102L4.87706 12.2637C4.87934 12.2686 4.8801 12.2739 4.87934 12.2791L4.87706 12.2867C4.832 12.3395 4.81892 12.4127 4.84291 12.478C4.853 12.5154 4.87862 12.5465 4.91318 12.5634C4.94774 12.5803 4.98785 12.5812 5.02317 12.5661C5.10069 12.5376 5.11278 12.4993 5.1217 12.3791L5.12374 12.3498C5.10104 12.2145 5.1827 12.0836 5.31348 12.0456C5.3926 12.0281 5.47535 12.0437 5.5429 12.0888ZM6.505 12.1402C6.54506 12.2463 6.58496 12.3516 6.6247 12.456L6.59771 12.4456C6.95993 12.5936 7.36366 12.5967 7.72701 12.4558L7.75991 12.4423C7.72484 12.3607 7.68928 12.2777 7.65327 12.1935L7.68005 12.1856C7.30419 12.3035 6.90072 12.2911 6.53359 12.1517L6.505 12.1402ZM6.36651 11.772C6.40828 11.8834 6.44985 11.994 6.49125 12.1037L6.48026 12.0993C6.83705 12.2512 7.23329 12.2782 7.60607 12.1773L7.64189 12.1668C7.60605 12.0829 7.56978 11.9978 7.5331 11.9115L7.56268 11.9023C7.25719 12.005 6.95679 11.9774 6.60097 11.8582L6.50406 11.8241L6.36651 11.772ZM6.22924 11.4047C6.2707 11.5159 6.31197 11.6264 6.35305 11.7361L6.51379 11.7971L6.54711 11.8092C6.9033 11.9367 7.20056 11.9767 7.49791 11.8924L7.52181 11.885C7.48608 11.8009 7.44997 11.7158 7.41352 11.6297L7.436 11.6253C7.38251 11.6371 7.32744 11.6449 7.27086 11.6489C7.02696 11.6658 6.77225 11.6132 6.49008 11.5092L6.41081 11.4785L6.22924 11.4047ZM5.23569 11.1291L5.39128 11.5672C5.39399 11.572 5.39399 11.5778 5.39128 11.5825C5.38611 11.5887 5.37844 11.5923 5.37041 11.5921H5.35523L5.26225 11.6036C5.24605 11.6044 5.2313 11.5942 5.2262 11.5787L5.13512 11.3223H5.12184L4.93209 11.3931L5.02317 11.6495C5.0249 11.6551 5.02425 11.6612 5.02137 11.6662C5.01849 11.6713 5.01364 11.675 5.00799 11.6763L4.91312 11.7107C4.90735 11.7132 4.90081 11.7128 4.8953 11.7099C4.88979 11.7069 4.88588 11.7016 4.88465 11.6954L4.79547 11.4429L4.53932 11.5347L4.64178 11.8236C4.64678 11.8299 4.64802 11.8382 4.64553 11.8455L4.64178 11.8523L4.55829 11.9021C4.55109 11.9055 4.54273 11.9055 4.53552 11.9021C4.53023 11.9002 4.52605 11.8959 4.52414 11.8906L4.3306 11.4582C4.32784 11.4506 4.32925 11.4421 4.33431 11.4358C4.33936 11.4295 4.34733 11.4264 4.35526 11.4276V11.418L5.20153 11.1137C5.21515 11.1085 5.23039 11.1154 5.23569 11.1291ZM6.08916 11.0278C6.13156 11.1421 6.17373 11.2556 6.2157 11.3683L6.40657 11.446L6.49985 11.4822C6.77861 11.585 7.02971 11.6369 7.2689 11.6202C7.30571 11.6177 7.34184 11.6134 7.37727 11.6075L7.40203 11.6025C7.36478 11.5145 7.32718 11.4255 7.28928 11.3356L7.3172 11.3327C7.21361 11.3468 7.10091 11.3442 6.97986 11.3268C6.80041 11.301 6.61127 11.2446 6.40352 11.1623L6.30686 11.1227C6.29044 11.1158 6.27371 11.1086 6.25645 11.1012L6.08916 11.0278ZM5.95213 10.6577C5.99338 10.7693 6.03442 10.8802 6.07525 10.9903L6.21421 11.0515C6.25119 11.0677 6.28511 11.0824 6.31779 11.0962L6.41393 11.1355C6.61979 11.2171 6.80695 11.2729 6.98388 11.2984C7.08272 11.3126 7.17566 11.3167 7.26223 11.3098L7.2777 11.3081C7.23836 11.2148 7.19869 11.1204 7.15873 11.0253L7.19336 11.0228C7.05949 11.036 6.90501 11.0163 6.7303 10.9682C6.61446 10.9363 6.49365 10.8933 6.35991 10.8381L6.24851 10.7906L5.95213 10.6577ZM5.81653 10.2904C5.85728 10.4008 5.8978 10.5107 5.93812 10.6198L6.23313 10.7524L6.30307 10.7831C6.46329 10.8518 6.60407 10.9037 6.73779 10.9405C6.88798 10.9818 7.02252 11.0018 7.14085 10.9975L7.14696 10.9973C7.10624 10.9003 7.06523 10.8024 7.02397 10.7038C6.93663 10.7122 6.79094 10.6784 6.59297 10.6093L6.49814 10.5749L6.39605 10.5358L6.29453 10.4951L6.15158 10.4352L5.81653 10.2904ZM5.68154 9.92403C5.72216 10.0343 5.76256 10.144 5.80275 10.253L6.20657 10.4275L6.3052 10.4685L6.40638 10.5091L6.50621 10.5473L6.59909 10.5809L6.68478 10.6097C6.83138 10.6568 6.94248 10.6802 7.01232 10.6759C6.97111 10.5775 6.92968 10.4783 6.88805 10.3785C6.8678 10.3776 6.84344 10.3741 6.81507 10.3681L6.76061 10.3549L6.6978 10.3366C6.68664 10.3331 6.67513 10.3294 6.66327 10.3255L6.58798 10.2996L6.50442 10.2688C6.4898 10.2633 6.47484 10.2576 6.45954 10.2516L6.3126 10.1929L6.14454 10.1225L5.68154 9.92403ZM5.5519 9.57196C5.59087 9.67782 5.62964 9.78312 5.6682 9.88783L5.77762 9.93348L6.1769 10.1052L6.32249 10.1659L6.46706 10.2237C6.48214 10.2296 6.49688 10.2352 6.51128 10.2407L6.59365 10.2711L6.66784 10.2968L6.73372 10.3175C6.79289 10.335 6.84043 10.3456 6.87583 10.3489C6.8324 10.245 6.78885 10.1404 6.74514 10.0353L6.72833 10.0318L6.69612 10.0233L6.66003 10.0122L6.59694 9.99032L6.52074 9.96115L6.39417 9.9094L6.23334 9.84101L5.93986 9.71503L5.82313 9.66674L5.75617 9.64014L5.69699 9.61774L5.6448 9.59929L5.59882 9.58453L5.55825 9.57321L5.5519 9.57196ZM5.4227 9.22114C5.46227 9.32856 5.50162 9.43542 5.54076 9.54171L5.54179 9.54178L5.57842 9.55081C5.58487 9.55256 5.59151 9.55443 5.59833 9.55643L5.64178 9.57002L5.71736 9.59671L5.80758 9.63162L5.95481 9.69229L6.40232 9.88379L6.52791 9.93517L6.6035 9.96418L6.64645 9.97947L6.6843 9.99181L6.73265 10.0053C6.68731 9.8962 6.64182 9.78662 6.59622 9.67665L6.58034 9.67165L6.51725 9.64973L6.44104 9.62055L6.31448 9.5688L6.15364 9.50042L5.86017 9.37444L5.74343 9.32614L5.67648 9.29955L5.6173 9.27715L5.56511 9.25869L5.51913 9.24393L5.47856 9.23262L5.44262 9.2245C5.43697 9.2234 5.43149 9.22242 5.42614 9.22156L5.4227 9.22114ZM5.29707 8.88024L5.30917 8.91306C5.34411 9.00782 5.37887 9.10217 5.41347 9.19608L5.41377 9.19274L5.42912 9.19491L5.4621 9.20118L5.49873 9.21022C5.50518 9.21196 5.51181 9.21384 5.51864 9.21584L5.56209 9.22943L5.63767 9.25611L5.72789 9.29103L5.87511 9.35169L6.32263 9.54319L6.44822 9.59458L6.52381 9.62359L6.56675 9.63888L6.58272 9.64408C6.53581 9.5309 6.48879 9.41732 6.44173 9.30352L6.42867 9.29893L6.36822 9.2756L6.23072 9.21762L5.84583 9.05043L5.74225 9.00782C5.54975 8.93097 5.40636 8.88829 5.29707 8.88024ZM5.17458 8.5484C5.21225 8.65037 5.24972 8.75188 5.28698 8.85291L5.26035 8.85205C5.35976 8.85205 5.48668 8.88336 5.65515 8.94559L5.75124 8.98259C5.76797 8.98927 5.78507 8.99621 5.80254 9.00339L5.9355 9.05972L6.3277 9.22988L6.4131 9.26449L6.4279 9.27006C6.38111 9.15688 6.33429 9.04348 6.2875 8.93004L6.25729 8.91891L6.07255 8.84487L5.75013 8.71273L5.69628 8.69149L5.59548 8.65339C5.4189 8.58891 5.28665 8.55392 5.18489 8.54854L5.17458 8.5484ZM5.06296 8.2356L5.05924 8.23653C5.09454 8.33188 5.12966 8.42684 5.1646 8.5214L5.15789 8.52102C5.27565 8.52102 5.43243 8.56285 5.65332 8.64633L5.75991 8.68782L6.1875 8.86264L6.27224 8.89593C6.22709 8.78356 6.18054 8.67056 6.13409 8.55767L6.12228 8.55368L6.08175 8.53815L6.03071 8.51725L5.81734 8.42651L5.7565 8.40129L5.64438 8.35684C5.60864 8.34319 5.57435 8.33065 5.54093 8.31907C5.33557 8.24787 5.17511 8.21713 5.06296 8.2356ZM4.97396 7.93986L4.95082 7.94408C4.98398 8.03342 5.01698 8.12242 5.04981 8.21108L5.02938 8.21528C5.14867 8.18465 5.32245 8.215 5.54957 8.29374C5.60007 8.31124 5.65251 8.33089 5.70882 8.35322L5.86035 8.41561L6.04058 8.49237L6.11192 8.52122L6.12038 8.52436C6.07163 8.40588 6.02299 8.28754 5.97454 8.16953L6.00964 8.18668C5.5577 7.96065 5.21039 7.90362 4.97396 7.93986ZM16.4459 0.350586C16.4876 0.409903 16.5408 0.486441 16.5996 0.5802L16.5692 0.591681V0.68544L16.6546 0.656738C16.6875 0.71159 16.7223 0.770907 16.759 0.834689C16.6774 0.865304 16.5958 0.894006 16.5142 0.920794C16.5047 0.953323 16.4952 0.987765 16.4838 1.02412L16.5881 0.991237C16.6576 0.967993 16.7267 0.94248 16.795 0.916967L16.8918 1.093C16.7495 1.15041 16.6053 1.20398 16.4592 1.24991L16.3928 1.26904L16.351 1.37045L16.4838 1.3341C16.6356 1.28626 16.7855 1.23077 16.9335 1.17337L17.0227 1.34941L16.9886 1.3628C16.8121 1.42786 16.6356 1.49866 16.4554 1.55415C16.3814 1.57711 16.3074 1.59816 16.2334 1.61346L16.1821 1.71296C16.2834 1.69472 16.3835 1.67044 16.4819 1.64025C16.666 1.58859 16.8463 1.5197 17.0227 1.44891L17.0626 1.4336L17.1479 1.61155L16.9886 1.67469C16.8121 1.73975 16.6356 1.81055 16.4554 1.86604C16.3176 1.91014 16.1759 1.94027 16.0322 1.95597L15.9696 2.0459C16.143 2.03509 16.3144 2.00296 16.48 1.95023C16.6641 1.89857 16.8444 1.82777 17.0208 1.75889L17.1859 1.69383L17.2675 1.87369L16.9886 1.98467C16.8121 2.04973 16.6356 2.12053 16.4554 2.17602C16.2782 2.23511 16.0935 2.26798 15.907 2.2736H15.7989L15.7305 2.35206C15.789 2.36016 15.848 2.36463 15.907 2.36545C16.1004 2.36067 16.2921 2.32781 16.4762 2.26786C16.6603 2.2162 16.8406 2.1454 17.017 2.07652L17.2997 1.96745L17.3775 2.1588C17.2447 2.20855 17.1138 2.26021 16.9829 2.31187C16.8064 2.37693 16.6299 2.44773 16.4497 2.50322C16.2725 2.56231 16.0878 2.59518 15.9013 2.6008C15.779 2.5999 15.6573 2.58384 15.5389 2.55297L15.4668 2.61994C15.6079 2.66206 15.7541 2.68459 15.9013 2.68691C16.0947 2.6821 16.2864 2.64924 16.4706 2.58932C16.6546 2.53766 16.8349 2.46878 17.0113 2.39798C17.1442 2.34631 17.2751 2.29465 17.4079 2.24682L17.4819 2.43816C17.3092 2.49556 17.1536 2.56445 16.9772 2.62951C16.8007 2.69456 16.6242 2.76536 16.444 2.82085C16.2668 2.87997 16.0821 2.91284 15.8956 2.91844C15.7098 2.91474 15.5259 2.88048 15.3511 2.81702L15.2676 2.78641L15.1898 2.84381L15.3245 2.89356C15.5071 2.96083 15.6994 2.99767 15.8937 3.00263C16.0871 2.99788 16.2789 2.96501 16.463 2.90504C16.647 2.85338 16.8349 2.78258 17.0037 2.7137C17.1726 2.64481 17.3396 2.57976 17.5085 2.52235L17.5806 2.7137L17.5066 2.73666C17.3225 2.79789 17.146 2.87634 16.9696 2.9414C16.7931 3.00645 16.6167 3.07725 16.4364 3.13274C16.2593 3.19199 16.0746 3.22487 15.888 3.23033C15.7022 3.22663 15.5183 3.19237 15.3435 3.12892C15.2201 3.08682 15.0987 3.03707 14.9773 2.98349L14.8938 3.03324C15.0323 3.09639 15.1727 3.15762 15.3188 3.20737C15.5014 3.27467 15.6937 3.31151 15.888 3.31643C16.0814 3.31166 16.2732 3.27879 16.4573 3.21885C16.6413 3.16718 16.8197 3.08873 16.998 3.0275C17.1764 2.96627 17.3529 2.89547 17.5312 2.83616L17.6071 2.8132L17.6754 3.00454L17.5009 3.0562C17.3168 3.11744 17.1404 3.19589 16.9639 3.26094C16.7874 3.326 16.611 3.3968 16.4307 3.45229C16.2536 3.51157 16.0689 3.54444 15.8823 3.54987C15.6966 3.54617 15.5126 3.51192 15.3378 3.44846C15.1594 3.38723 14.9867 3.31069 14.8122 3.23224L14.6547 3.16336L14.5617 3.20737L14.7799 3.30495C14.9545 3.3834 15.1215 3.46377 15.3112 3.52691C15.4938 3.59435 15.6861 3.63119 15.8804 3.63598C16.0738 3.63118 16.2656 3.59831 16.4497 3.53839C16.6337 3.48673 16.8121 3.40828 16.9905 3.34705C17.1688 3.28582 17.3453 3.21502 17.5236 3.1557L17.7001 3.10404V3.12318C17.7001 3.12318 17.609 3.22842 17.4496 3.39106C17.2789 3.45038 17.1271 3.51735 16.9506 3.5824C16.7741 3.64746 16.5977 3.71826 16.4174 3.77375C16.2403 3.83297 16.0556 3.86585 15.8691 3.87133C15.6833 3.86763 15.4993 3.83338 15.3245 3.76992C15.1461 3.70869 14.9735 3.63215 14.7989 3.5537C14.6253 3.47224 14.4473 3.40069 14.2657 3.3394L14.3037 3.28773L14.1784 3.32983L14.2942 3.36427C14.4732 3.42582 14.6486 3.49737 14.8198 3.57858C14.9943 3.65703 15.1613 3.73739 15.3511 3.80054C15.5336 3.86797 15.7259 3.90481 15.9203 3.9096C16.1137 3.90485 16.3054 3.87199 16.4895 3.81202C16.6736 3.76035 16.8538 3.68956 17.0303 3.62067L17.3358 3.50204C17.2219 3.61302 17.0872 3.73739 16.9354 3.86942C16.7798 3.93256 16.6242 3.99188 16.4649 4.04163C16.4529 4.04562 16.441 4.04948 16.429 4.05323L16.5939 4.0091L16.5937 4.09942L16.6793 4.07033L16.7533 4.02824C16.7016 4.07002 16.6484 4.11209 16.5939 4.15416L16.5939 4.23106H16.5958C16.5446 4.25785 16.5199 4.26742 16.4535 4.29803C16.4819 5.32173 16.3131 5.33321 15.4858 5.59535L15.4213 5.61699C14.4449 5.93995 14.5048 5.70629 14.2429 8.19573L14.2427 5.17612L14.2391 5.17631C11.5118 5.17631 9.21794 4.05153 7.27832 3.07347L7.05609 2.96134C5.6585 2.25622 4.44849 1.65556 3.39515 1.65556C2.54804 1.26444 1.54501 1.5919 1.08594 2.40946C1.08594 2.40946 1.82974 0.134366 6.14836 1.72827C8.37409 2.62951 15.6603 5.39635 16.4459 0.350586ZM4.84508 7.6465L4.84058 7.64749C4.87435 7.73822 4.90796 7.82862 4.94139 7.91868L4.94181 7.91841L4.96997 7.91337C5.20075 7.878 5.53253 7.92911 5.95923 8.13231C5.91249 8.0184 5.86594 7.90491 5.81963 7.79191L5.84216 7.80373C5.53783 7.63467 5.18479 7.57944 4.84508 7.6465ZM4.75552 7.35163L4.73268 7.35813C4.76567 7.44647 4.7985 7.5345 4.83117 7.62222L4.7791 7.63355C5.1231 7.55061 5.48439 7.59267 5.7998 7.7511L5.80382 7.75332C5.75794 7.64135 5.7123 7.52988 5.66697 7.41907L5.70717 7.43695C5.40878 7.29789 5.07233 7.26815 4.75552 7.35163ZM4.64888 7.05539L4.6229 7.06472C4.65701 7.15571 4.69094 7.24639 4.72469 7.33675L4.68966 7.34667C5.00714 7.24797 5.348 7.26335 5.65453 7.38889C5.61047 7.28094 5.56665 7.17374 5.52318 7.06732L5.54671 7.07565C5.25757 6.9676 4.9414 6.96085 4.64888 7.05539ZM4.56759 6.78312L4.52302 6.79876C4.55375 6.88045 4.58434 6.96189 4.61479 7.04309L4.5828 7.05412C4.87673 6.94428 5.19812 6.93742 5.49548 7.03352L5.51162 7.03901C5.46833 6.93301 5.4254 6.8278 5.38287 6.72354L5.41401 6.72889C5.13148 6.67505 4.84042 6.69387 4.56759 6.78312ZM2.92078 4.15835C2.92078 4.15835 2.93976 4.122 2.96632 4.15835C3.10779 4.40924 3.20897 4.68112 3.26612 4.96391C3.26612 4.96391 3.22627 5.12656 2.87524 5.3179C2.32308 5.61257 2.74052 6.12538 2.70257 6.9386C2.48437 6.57887 2.43314 4.97157 1.87149 4.79553C2.29943 4.756 2.68596 4.52129 2.92078 4.15835ZM4.45894 6.49189L4.4142 6.51011C4.4482 6.6001 4.48202 6.68981 4.51567 6.77922L4.49777 6.78521C4.77092 6.68392 5.06461 6.65374 5.35175 6.69694L5.37352 6.70062C5.33018 6.59435 5.28727 6.48906 5.24486 6.38492L5.26305 6.38651C4.99021 6.35736 4.71473 6.39361 4.45894 6.49189ZM5.11356 6.06239L5.14856 6.06128C4.88026 6.06541 4.61486 6.116 4.36389 6.21063L4.30911 6.23254C4.34185 6.31882 4.37442 6.40485 4.40683 6.49062L4.38722 6.49839C4.64259 6.3885 4.91978 6.34109 5.19618 6.35958L5.23588 6.36289C5.19462 6.26158 5.15383 6.16137 5.11356 6.06239ZM4.98822 5.75413L5.02991 5.74933C4.7695 5.77573 4.51364 5.8355 4.26847 5.92708L4.20269 5.95273C4.23584 6.03968 4.26881 6.12638 4.30162 6.21282L4.28107 6.22089C4.53124 6.11655 4.79714 6.0564 5.06713 6.04289L5.10506 6.04148C5.06559 5.94445 5.02662 5.84862 4.98822 5.75413ZM4.8695 5.46185L4.89966 5.45648C4.65339 5.49814 4.41209 5.56513 4.17953 5.65633L4.10167 5.68836C4.13302 5.7702 4.16421 5.85182 4.19525 5.93321L4.16917 5.94342C4.41321 5.84323 4.6688 5.77488 4.92973 5.73993L4.97997 5.73383C4.94259 5.64184 4.90575 5.55114 4.8695 5.46185ZM4.75374 5.17659L4.78628 5.16938C4.54725 5.22115 4.31286 5.29242 4.0854 5.38244L3.99809 5.41855C4.03026 5.50214 4.06227 5.58551 4.09413 5.66866L4.07227 5.67751C4.30357 5.57885 4.5442 5.50439 4.79038 5.45524L4.86136 5.44179C4.82486 5.3519 4.78897 5.26346 4.75374 5.17659ZM4.6381 4.8914L4.66356 4.88412C4.43763 4.94767 4.215 5.0225 3.9965 5.10834L3.89433 5.14967C3.92655 5.23294 3.9586 5.316 3.9905 5.39884L3.96411 5.40963C4.19023 5.31293 4.42371 5.23496 4.66223 5.17643L4.74577 5.15695C4.70915 5.06667 4.67324 4.9781 4.6381 4.8914ZM4.52615 4.6151L4.56689 4.60281C4.33927 4.66925 4.11544 4.74813 3.89639 4.83908L3.79139 4.88426C3.82334 4.96641 3.85513 5.04837 3.88677 5.13011L3.85794 5.14171C4.0754 5.05121 4.29716 4.97169 4.5224 4.90344L4.63025 4.87203C4.59474 4.78441 4.56002 4.69871 4.52615 4.6151ZM14.2428 4.86091C14.0643 4.80573 13.877 4.78483 13.6908 4.79936C13.5431 4.81532 13.3975 4.84675 13.2563 4.89312H13.4896C13.5579 4.87806 13.6269 4.86719 13.6965 4.86059C13.815 4.84987 13.9345 4.85632 14.0513 4.87972L14.205 4.87016L14.2427 4.86805L14.2428 4.86091ZM4.41414 4.33844L4.39395 4.34552L4.27193 4.38852L4.08465 4.45795L3.88877 4.53308L3.6857 4.61326C3.71854 4.69724 3.75122 4.78102 3.78373 4.86459L3.75718 4.87582C3.97497 4.77974 4.19775 4.6957 4.42454 4.62408L4.51819 4.59544C4.48252 4.50737 4.44781 4.42165 4.41414 4.33844ZM13.757 4.50808L13.6927 4.51043C13.4985 4.52901 13.3074 4.57142 13.1234 4.63671C12.9451 4.68838 12.7705 4.75918 12.5978 4.82806L12.6642 4.83763H12.7288C12.8673 4.78405 13.0058 4.73047 13.1462 4.68455C13.3236 4.6228 13.5077 4.58296 13.6946 4.56592C13.8807 4.5555 14.067 4.58216 14.2429 4.64437H14.2427L14.2429 4.63097L14.3236 4.60954L14.2619 4.58888C14.0993 4.53283 13.9285 4.50555 13.757 4.50808ZM13.757 4.1943L13.6927 4.19662C13.4985 4.21507 13.3073 4.25749 13.1234 4.32291C12.9413 4.38414 12.7648 4.46259 12.5883 4.52765C12.4119 4.59271 12.2449 4.6635 12.0552 4.71899H12.0286L12.15 4.74387C12.3056 4.6922 12.4347 4.6348 12.6111 4.57357C12.7876 4.51234 12.964 4.44154 13.1443 4.38223C13.3217 4.32043 13.5058 4.2806 13.6927 4.26359C13.8788 4.25307 14.0652 4.27973 14.241 4.34204C14.42 4.40368 14.5955 4.47522 14.7666 4.55635L14.6786 4.51578L14.7889 4.48647C14.6519 4.42259 14.5123 4.36476 14.3704 4.31316L14.2619 4.27507C14.079 4.21211 13.8857 4.18547 13.6927 4.19662L13.757 4.1943ZM4.30281 4.06334L4.20585 4.0993L3.97172 4.18893L3.5797 4.343C3.61263 4.42672 3.64539 4.51024 3.67799 4.59356L3.88128 4.51343L4.11909 4.42251L4.30853 4.35305L4.38737 4.32554L4.40619 4.3188C4.37053 4.23071 4.33605 4.14548 4.30281 4.06334ZM13.757 3.85748L13.6927 3.85985C13.4985 3.87829 13.3073 3.9207 13.1234 3.98614C12.9413 4.04737 12.7648 4.12582 12.5883 4.19088C12.4119 4.25594 12.2449 4.32674 12.0552 4.38223C11.8768 4.44152 11.6908 4.4744 11.503 4.47981C11.3152 4.47585 11.1293 4.44094 10.9527 4.37649C10.7744 4.31526 10.6017 4.23872 10.4271 4.16027C10.2535 4.07884 10.0755 4.00729 9.89395 3.94596V3.95361C9.75729 3.90935 9.61588 3.88173 9.47272 3.87133L9.62072 3.93256C9.70734 3.94815 9.7929 3.96924 9.87688 3.99571C10.0559 4.05793 10.2314 4.13012 10.4025 4.21193L10.6416 4.30569C10.7421 4.34778 10.8332 4.38605 10.9319 4.4205C11.0551 4.46391 11.1822 4.49531 11.3114 4.51425C11.3742 4.52355 11.4376 4.52867 11.5011 4.52956C11.6945 4.52489 11.8863 4.49202 12.0703 4.43198C12.2525 4.38031 12.4328 4.30186 12.6092 4.24063C12.7857 4.1794 12.9621 4.1086 13.1424 4.04929C13.3198 3.98748 13.5039 3.94764 13.6908 3.93065C13.8769 3.92023 14.0632 3.94689 14.2391 4.0091C14.4181 4.07065 14.5936 4.1422 14.7647 4.22341C14.8928 4.28096 15.0168 4.33954 15.1486 4.39159L15.2841 4.35602C15.1186 4.2971 14.9577 4.22568 14.7951 4.15261C14.6214 4.07133 14.4434 3.99979 14.2619 3.93831C14.079 3.87515 13.8857 3.8485 13.6927 3.85985L13.757 3.85748ZM13.8082 3.52648L13.7439 3.52883C13.5497 3.54718 13.3585 3.5896 13.1747 3.65511C12.9925 3.71635 12.816 3.7948 12.6396 3.85985C12.4631 3.92491 12.2961 3.99571 12.1064 4.0512C11.928 4.11047 11.742 4.14334 11.5542 4.14878C11.3665 4.14472 11.1806 4.10982 11.004 4.04546C10.8256 3.98423 10.6529 3.90769 10.4784 3.82924C10.3047 3.7479 10.1267 3.67635 9.94518 3.61493C9.76224 3.55209 9.56883 3.52608 9.37595 3.53839C9.25595 3.54688 9.13709 3.56739 9.02112 3.59962L9.07994 3.62641C9.17773 3.60273 9.27743 3.588 9.37784 3.5824C9.56586 3.57132 9.75418 3.59799 9.9319 3.66085C10.111 3.723 10.2864 3.79519 10.4575 3.87707C10.6302 3.95553 10.7971 4.03589 10.9869 4.09904C11.1694 4.1666 11.3617 4.20345 11.5561 4.2081C11.7496 4.20346 11.9413 4.17059 12.1254 4.11052C12.3075 4.05885 12.4878 3.9804 12.6642 3.91917C12.8407 3.85794 13.0172 3.78714 13.1974 3.72783C13.3748 3.66616 13.5589 3.62633 13.7458 3.60919C13.9319 3.59877 14.1183 3.62543 14.2942 3.68764C14.4731 3.74927 14.6486 3.82082 14.8198 3.90195C14.9943 3.9804 15.1613 4.06077 15.3511 4.12391C15.49 4.17526 15.6346 4.20887 15.7815 4.2241L16.265 4.09655C16.1505 4.12142 16.0339 4.13573 15.9165 4.13922C15.7307 4.13552 15.5468 4.10126 15.3719 4.0378C15.1936 3.97657 15.0209 3.90004 14.8463 3.82158C14.6727 3.74028 14.4947 3.66873 14.3131 3.60728C14.1302 3.54422 13.9369 3.51758 13.7439 3.52883L13.8082 3.52648ZM9.39661 3.27543L9.3323 3.27816C9.1382 3.2958 8.947 3.33758 8.76307 3.40254L8.55814 3.47525L8.60558 3.49821L8.77445 3.43889C8.95308 3.377 9.13848 3.33717 9.32661 3.32026C9.51462 3.30939 9.7029 3.33605 9.88067 3.39871C10.0597 3.46093 10.2352 3.53312 10.4063 3.61493C10.5789 3.69338 10.7459 3.77375 10.9357 3.83689C11.1182 3.90433 11.3105 3.94117 11.5049 3.94596C11.6983 3.94137 11.8901 3.9085 12.0741 3.84837C12.2563 3.79671 12.4347 3.72783 12.613 3.65703L12.8009 3.58814H12.6244L12.5959 3.59962C12.4195 3.66468 12.2525 3.73548 12.0628 3.79097C11.8843 3.85027 11.6984 3.88314 11.5106 3.88856C11.3228 3.88466 11.1369 3.84975 10.9603 3.78523C10.782 3.724 10.6093 3.64746 10.4347 3.56901C10.2611 3.48763 10.0831 3.41609 9.90154 3.3547C9.71863 3.29171 9.52519 3.2657 9.3323 3.27816L9.39661 3.27543ZM10.7269 3.43507C10.7952 3.46377 10.8655 3.49056 10.9357 3.51543C11.1182 3.583 11.3105 3.61985 11.5049 3.6245C11.6641 3.62226 11.8222 3.5991 11.9755 3.55562L11.7611 3.54413C11.6759 3.5597 11.5896 3.56802 11.503 3.56901C11.3152 3.56498 11.1294 3.53008 10.9527 3.46568L10.7269 3.43507ZM8.90348 3.04281L8.76686 3.08491C8.60178 3.14614 8.4367 3.21311 8.27732 3.27625L8.23178 3.29539H8.21849L8.26214 3.31643L8.2887 3.30113C8.44998 3.23607 8.60368 3.17675 8.77255 3.12126C8.83517 3.0983 8.89968 3.07917 8.9623 3.06195H8.97179L8.90348 3.04281ZM8.4386 2.8993H8.41963L8.22988 2.97775C8.10275 3.02942 7.97752 3.07917 7.85039 3.12318H7.839L7.88075 3.14231H7.89213L7.89023 3.13466L7.97835 3.10356C8.06622 3.07163 8.15303 3.03755 8.23557 3.00454L8.26403 2.99306L8.47655 2.91078L8.4386 2.8993ZM8.05531 2.75579H8.00408L7.93661 2.78108C7.84917 2.81335 7.77145 2.83998 7.69859 2.86295C7.61379 2.8898 7.52765 2.91215 7.44054 2.92992L7.48607 2.95096V2.95862C7.55628 2.94331 7.60751 2.90696 7.70808 2.87634C7.80864 2.84573 7.9168 2.80937 8.05531 2.75579ZM6.68535 2.58741L6.81817 2.64673C6.92331 2.66697 7.02993 2.67849 7.13694 2.68117L7.14074 2.67543L7.21828 2.67256C7.34732 2.66499 7.47527 2.64352 7.59992 2.60846H7.58285L7.5411 2.59315L7.46074 2.61252C7.35307 2.63573 7.24336 2.64848 7.13315 2.65055L7.05768 2.64699C6.93207 2.63871 6.80743 2.61878 6.68535 2.58741Z" fill="#31251C"/></svg>